SplineFontDB: 3.0
FontName: GildaDisplay-Regular
FullName: Gilda Display
FamilyName: Gilda Display
Weight: Book
Copyright: Copyright (c) 2012, Eduardo Tunni (http://www.tipo.net.ar), with Reserved Font Name 'Gilda'
Version: 1.001
ItalicAngle: 0
UnderlinePosition: 4
UnderlineWidth: 4
Ascent: 800
Descent: 200
sfntRevision: 0x00010042
LayerCount: 2
Layer: 0 1 "Back"  1
Layer: 1 1 "Fore"  0
XUID: [1021 750 1850305929 8681720]
FSType: 0
OS2Version: 3
OS2_WeightWidthSlopeOnly: 0
OS2_UseTypoMetrics: 1
CreationTime: 1347633480
ModificationTime: 1351749398
PfmFamily: 17
TTFWeight: 400
TTFWidth: 5
LineGap: 0
VLineGap: 0
Panose: 2 0 0 0 0 0 0 0 0 0
OS2TypoAscent: 892
OS2TypoAOffset: 0
OS2TypoDescent: -285
OS2TypoDOffset: 0
OS2TypoLinegap: 0
OS2WinAscent: 892
OS2WinAOffset: 0
OS2WinDescent: 285
OS2WinDOffset: 0
HheadAscent: 892
HheadAOffset: 0
HheadDescent: -285
HheadDOffset: 0
OS2SubXSize: 650
OS2SubYSize: 600
OS2SubXOff: 0
OS2SubYOff: 75
OS2SupXSize: 650
OS2SupYSize: 600
OS2SupXOff: 0
OS2SupYOff: 350
OS2StrikeYSize: 4
OS2StrikeYPos: 283
OS2Vendor: 'TIPO'
OS2CodePages: 20000001.00000000
OS2UnicodeRanges: 800000af.5000204b.00000000.00000000
Lookup: 4 0 1 "'liga' Standard Ligatures in Latin lookup 0"  {"'liga' Standard Ligatures in Latin lookup 0 subtable"  } ['liga' ('latn' <'dflt' > ) ]
Lookup: 258 0 0 "'kern' Horizontal Kerning in Latin lookup 0"  {"'kern' Horizontal Kerning in Latin lookup 0 per glyph data 0"  "'kern' Horizontal Kerning in Latin lookup 0 per glyph data 1"  "'kern' Horizontal Kerning in Latin lookup 0 kerning class 2"  } ['kern' ('latn' <'dflt' > ) ]
DEI: 91125
KernClass2: 10+ 13 "'kern' Horizontal Kerning in Latin lookup 0 kerning class 2" 
 50 A Agrave Aacute Acircumflex Atilde Adieresis Aring
 59 D O Q Eth Ograve Oacute Ocircumflex Otilde Odieresis Oslash
 1 K
 8 L Lslash
 8 N Ntilde
 1 T
 37 U Ugrave Uacute Ucircumflex Udieresis
 22 V W Y Yacute Ydieresis
 68 quotedbl quotesingle quoteleft quoteright quotedblleft quotedblright
 22 v w y yacute ydieresis

StartChar: exclam
Encoding: 33 33 4
Width: 244
GlyphClass: 2
Flags: W
LayerCount: 2
Fore
SplineSet
89 695 m 128,-1,1
 100 709 100 709 122.5 709 c 128,-1,2
 145 709 145 709 156 695 c 128,-1,3
 167 681 167 681 167 661 c 0,4,5
 167 599 167 599 151 424.5 c 128,-1,6
 135 250 135 250 135 175 c 1,7,-1
 110 175 l 1,8,9
 110 250 110 250 94 424.5 c 128,-1,10
 78 599 78 599 78 661 c 0,11,0
 78 681 78 681 89 695 c 128,-1,1
85.5 80.5 m 128,-1,13
 101 96 101 96 123 96 c 128,-1,14
 145 96 145 96 160 80.5 c 128,-1,15
 175 65 175 65 175 42.5 c 128,-1,16
 175 20 175 20 159.5 5 c 128,-1,17
 144 -10 144 -10 122.5 -10 c 128,-1,18
 101 -10 101 -10 85.5 5 c 128,-1,19
 70 20 70 20 70 42.5 c 128,-1,12
 70 65 70 65 85.5 80.5 c 128,-1,13
EndSplineSet
EndChar

StartChar: quotedbl
Encoding: 34 34 5
Width: 295
GlyphClass: 2
Flags: W
LayerCount: 2
Fore
SplineSet
25 689 m 0,0,1
 25 708 25 708 38 721.5 c 128,-1,2
 51 735 51 735 69 735 c 128,-1,3
 87 735 87 735 100.5 721.5 c 128,-1,4
 114 708 114 708 114 689 c 0,5,6
 114 638 114 638 78 478 c 1,7,-1
 62 478 l 1,8,9
 25 626 25 626 25 689 c 0,0,1
181 689 m 0,10,11
 181 708 181 708 194 721.5 c 128,-1,12
 207 735 207 735 225 735 c 128,-1,13
 243 735 243 735 256.5 721.5 c 128,-1,14
 270 708 270 708 270 689 c 0,15,16
 270 638 270 638 234 478 c 1,17,-1
 218 478 l 1,18,19
 181 626 181 626 181 689 c 0,10,11
EndSplineSet
EndChar

StartChar: numbersign
Encoding: 35 35 6
Width: 724
GlyphClass: 2
Flags: W
LayerCount: 2
Fore
SplineSet
361 -40 m 1,0,-1
 429 205 l 1,1,-1
 230 205 l 1,2,-1
 162 -40 l 1,3,-1
 111 -40 l 1,4,-1
 179 205 l 1,5,-1
 80 205 l 1,6,-1
 93 253 l 1,7,-1
 193 253 l 1,8,-1
 230 385 l 1,9,-1
 129 385 l 1,10,-1
 142 433 l 1,11,-1
 243 433 l 1,12,-1
 313 683 l 1,13,-1
 364 683 l 1,14,-1
 294 433 l 1,15,-1
 493 433 l 1,16,-1
 563 683 l 1,17,-1
 614 683 l 1,18,-1
 544 433 l 1,19,-1
 644 433 l 1,20,-1
 631 385 l 1,21,-1
 531 385 l 1,22,-1
 494 253 l 1,23,-1
 594 253 l 1,24,-1
 581 205 l 1,25,-1
 480 205 l 1,26,-1
 412 -40 l 1,27,-1
 361 -40 l 1,0,-1
281 385 m 1,28,-1
 244 253 l 1,29,-1
 443 253 l 1,30,-1
 480 385 l 1,31,-1
 281 385 l 1,28,-1
EndSplineSet
EndChar

StartChar: dollar
Encoding: 36 36 7
Width: 550
GlyphClass: 2
Flags: W
LayerCount: 2
Fore
SplineSet
127 392.5 m 128,-1,1
 87 436 87 436 87 502 c 128,-1,2
 87 568 87 568 139.5 610.5 c 128,-1,3
 192 653 192 653 270 653 c 1,4,-1
 275 713 l 1,5,-1
 311 713 l 1,6,-1
 306 651 l 1,7,8
 378 644 378 644 437 615 c 1,9,10
 437 547 437 547 423 457 c 1,11,-1
 410 460 l 1,12,13
 410 531 410 531 379.5 571 c 128,-1,14
 349 611 349 611 303 623 c 1,15,-1
 282 374 l 1,16,17
 399 309 399 309 429 270 c 0,18,19
 468 218 468 218 468 162 c 0,20,21
 468 76 468 76 405.5 33 c 128,-1,22
 343 -10 343 -10 249 -10 c 1,23,-1
 244 -70 l 1,24,-1
 208 -70 l 1,25,-1
 213 -6 l 1,26,27
 131 5 131 5 85 48 c 1,28,29
 85 98 85 98 96 197 c 1,30,-1
 110 195 l 1,31,32
 110 124 110 124 139 80.5 c 128,-1,33
 168 37 168 37 216 23 c 1,34,-1
 240 306 l 1,35,0
 167 349 167 349 127 392.5 c 128,-1,1
406 139 m 0,36,37
 406 184 406 184 373 216 c 128,-1,38
 340 248 340 248 274 286 c 1,39,-1
 251 17 l 1,40,41
 406 17 406 17 406 139 c 0,36,37
181.5 597 m 128,-1,43
 149 568 149 568 149 524 c 128,-1,44
 149 480 149 480 174.5 450.5 c 128,-1,45
 200 421 200 421 247 393 c 1,46,-1
 267 627 l 1,47,42
 214 626 214 626 181.5 597 c 128,-1,43
EndSplineSet
EndChar

StartChar: percent
Encoding: 37 37 8
Width: 997
GlyphClass: 2
Flags: W
LayerCount: 2
Fore
SplineSet
322 -40 m 1,0,-1
 624 683 l 1,1,-1
 675 683 l 1,2,-1
 373 -40 l 1,3,-1
 322 -40 l 1,0,-1
160 597.5 m 128,-1,5
 200 651 200 651 263.5 651 c 128,-1,6
 327 651 327 651 366.5 597.5 c 128,-1,7
 406 544 406 544 406 449.5 c 128,-1,8
 406 355 406 355 366.5 302.5 c 128,-1,9
 327 250 327 250 263.5 250 c 128,-1,10
 200 250 200 250 160 302.5 c 128,-1,11
 120 355 120 355 120 449.5 c 128,-1,4
 120 544 120 544 160 597.5 c 128,-1,5
264 275 m 128,-1,13
 301 275 301 275 324.5 323.5 c 128,-1,14
 348 372 348 372 348 450 c 128,-1,15
 348 528 348 528 324 578 c 128,-1,16
 300 628 300 628 264 628 c 128,-1,17
 228 628 228 628 203 578 c 128,-1,18
 178 528 178 528 178 450 c 128,-1,19
 178 372 178 372 202.5 323.5 c 128,-1,12
 227 275 227 275 264 275 c 128,-1,13
631 341.5 m 128,-1,21
 671 395 671 395 734.5 395 c 128,-1,22
 798 395 798 395 837.5 341.5 c 128,-1,23
 877 288 877 288 877 193.5 c 128,-1,24
 877 99 877 99 837.5 46.5 c 128,-1,25
 798 -6 798 -6 734.5 -6 c 128,-1,26
 671 -6 671 -6 631 46.5 c 128,-1,27
 591 99 591 99 591 193.5 c 128,-1,20
 591 288 591 288 631 341.5 c 128,-1,21
735 19 m 128,-1,29
 772 19 772 19 795.5 67.5 c 128,-1,30
 819 116 819 116 819 194 c 128,-1,31
 819 272 819 272 795 322 c 128,-1,32
 771 372 771 372 735 372 c 128,-1,33
 699 372 699 372 674 322 c 128,-1,34
 649 272 649 272 649 194 c 128,-1,35
 649 116 649 116 673.5 67.5 c 128,-1,28
 698 19 698 19 735 19 c 128,-1,29
EndSplineSet
EndChar

StartChar: ampersand
Encoding: 38 38 9
Width: 786
GlyphClass: 2
Flags: W
LayerCount: 2
Fore
SplineSet
252 -10 m 0,0,1
 146 -10 146 -10 88 44.5 c 128,-1,2
 30 99 30 99 30 194 c 0,3,4
 30 269 30 269 89.5 332.5 c 128,-1,5
 149 396 149 396 236 430 c 1,6,7
 229 470 229 470 229 502 c 0,8,9
 229 586 229 586 277.5 642.5 c 128,-1,10
 326 699 326 699 403 699 c 0,11,12
 457 699 457 699 491.5 666 c 128,-1,13
 526 633 526 633 526 581 c 128,-1,14
 526 529 526 529 487 487.5 c 128,-1,15
 448 446 448 446 360 443 c 1,16,17
 436 403 436 403 537 403 c 0,18,19
 599 403 599 403 663 449 c 0,20,21
 692 470 692 470 709 470 c 0,22,23
 732 470 732 470 732 445 c 0,24,25
 732 429 732 429 712.5 415.5 c 128,-1,26
 693 402 693 402 663 394 c 0,27,28
 605 380 605 380 561 378 c 1,29,30
 558 235 558 235 507 139 c 1,31,32
 564 92 564 92 639.5 52.5 c 128,-1,33
 715 13 715 13 774 12 c 1,34,-1
 776 0 l 1,35,-1
 625 0 l 1,36,37
 561 14 561 14 471 85 c 1,38,39
 390 -10 390 -10 252 -10 c 0,0,1
267 20 m 0,40,41
 389 20 389 20 446 105 c 1,42,43
 372 167 372 167 316 247 c 128,-1,44
 260 327 260 327 239 415 c 1,45,46
 110 342 110 342 110 193 c 0,47,48
 110 111 110 111 155.5 65.5 c 128,-1,49
 201 20 201 20 267 20 c 0,40,41
328.5 632.5 m 128,-1,51
 301 584 301 584 301 509 c 128,-1,52
 301 434 301 434 344 341 c 128,-1,53
 387 248 387 248 477 165 c 1,54,55
 515 257 515 257 517 379 c 1,56,57
 418 388 418 388 347 443 c 1,58,-1
 347 452 l 1,59,60
 396 452 396 452 429.5 488.5 c 128,-1,61
 463 525 463 525 463 573 c 128,-1,62
 463 621 463 621 445.5 651 c 128,-1,63
 428 681 428 681 397 681 c 0,64,50
 356 681 356 681 328.5 632.5 c 128,-1,51
EndSplineSet
EndChar

StartChar: quotesingle
Encoding: 39 39 10
Width: 139
GlyphClass: 2
Flags: W
LayerCount: 2
Fore
SplineSet
25 689 m 0,0,1
 25 708 25 708 38 721.5 c 128,-1,2
 51 735 51 735 69 735 c 128,-1,3
 87 735 87 735 100.5 721.5 c 128,-1,4
 114 708 114 708 114 689 c 0,5,6
 114 638 114 638 78 478 c 1,7,-1
 62 478 l 1,8,9
 25 626 25 626 25 689 c 0,0,1
EndSplineSet
EndChar

StartChar: parenleft
Encoding: 40 40 11
Width: 258
GlyphClass: 2
Flags: W
LayerCount: 2
Fore
SplineSet
89 319 m 128,-1,1
 89 246 89 246 104 178 c 128,-1,2
 119 110 119 110 141 64 c 0,3,4
 186 -29 186 -29 222 -67 c 2,5,-1
 237 -83 l 1,6,-1
 216 -103 l 1,7,8
 190 -84 190 -84 150.5 -38 c 128,-1,9
 111 8 111 8 84.5 53.5 c 128,-1,10
 58 99 58 99 36.5 171 c 128,-1,11
 15 243 15 243 15 319 c 128,-1,12
 15 395 15 395 35.5 466.5 c 128,-1,13
 56 538 56 538 86 586 c 0,14,15
 145 681 145 681 196 724 c 1,16,-1
 216 742 l 1,17,-1
 237 722 l 1,18,19
 215 700 215 700 187.5 658 c 128,-1,20
 160 616 160 616 140.5 573 c 128,-1,21
 121 530 121 530 105 461 c 128,-1,0
 89 392 89 392 89 319 c 128,-1,1
EndSplineSet
EndChar

StartChar: parenright
Encoding: 41 41 12
Width: 258
GlyphClass: 2
Flags: W
LayerCount: 2
Fore
SplineSet
243 319 m 128,-1,1
 243 243 243 243 222.5 171.5 c 128,-1,2
 202 100 202 100 172 52 c 0,3,4
 109 -48 109 -48 62 -86 c 1,5,-1
 42 -103 l 1,6,-1
 21 -83 l 1,7,8
 43 -61 43 -61 70.5 -19.5 c 128,-1,9
 98 22 98 22 117.5 65 c 128,-1,10
 137 108 137 108 153 177 c 128,-1,11
 169 246 169 246 169 319 c 128,-1,12
 169 392 169 392 154 460 c 128,-1,13
 139 528 139 528 117 574 c 0,14,15
 73 665 73 665 36 706 c 1,16,-1
 21 722 l 1,17,-1
 42 742 l 1,18,19
 68 722 68 722 107.5 676 c 128,-1,20
 147 630 147 630 173.5 584.5 c 128,-1,21
 200 539 200 539 221.5 467 c 128,-1,0
 243 395 243 395 243 319 c 128,-1,1
EndSplineSet
EndChar

StartChar: asterisk
Encoding: 42 42 13
Width: 460
GlyphClass: 2
Flags: W
LayerCount: 2
Fore
SplineSet
345 495.5 m 128,-1,1
 380 489 380 489 394.5 480 c 128,-1,2
 409 471 409 471 409 454.5 c 128,-1,3
 409 438 409 438 398 426 c 128,-1,4
 387 414 387 414 376.5 414 c 128,-1,5
 366 414 366 414 355.5 420 c 128,-1,6
 345 426 345 426 321 453 c 128,-1,7
 297 480 297 480 235 525 c 1,8,9
 243 449 243 449 254.5 414.5 c 128,-1,10
 266 380 266 380 266 365.5 c 128,-1,11
 266 351 266 351 255.5 341.5 c 128,-1,12
 245 332 245 332 229 332 c 128,-1,13
 213 332 213 332 203 341.5 c 128,-1,14
 193 351 193 351 193 365.5 c 128,-1,15
 193 380 193 380 205 414.5 c 128,-1,16
 217 449 217 449 225 525 c 1,17,18
 150 471 150 471 135 450 c 0,19,20
 108 414 108 414 85 414 c 0,21,22
 72 414 72 414 61 425.5 c 128,-1,23
 50 437 50 437 50 453.5 c 128,-1,24
 50 470 50 470 64.5 479.5 c 128,-1,25
 79 489 79 489 114.5 496 c 128,-1,26
 150 503 150 503 220 533 c 1,27,28
 150 564 150 564 114.5 571.5 c 128,-1,29
 79 579 79 579 64.5 588 c 128,-1,30
 50 597 50 597 50 613.5 c 128,-1,31
 50 630 50 630 61 641.5 c 128,-1,32
 72 653 72 653 83.5 653 c 128,-1,33
 95 653 95 653 104 648 c 128,-1,34
 113 643 113 643 121 635 c 128,-1,35
 129 627 129 627 135 618 c 0,36,37
 151 596 151 596 225 542 c 1,38,39
 217 619 217 619 205 653 c 128,-1,40
 193 687 193 687 193 701 c 128,-1,41
 193 715 193 715 203 725 c 128,-1,42
 213 735 213 735 229 735 c 128,-1,43
 245 735 245 735 255.5 725 c 128,-1,44
 266 715 266 715 266 701 c 128,-1,45
 266 687 266 687 254.5 653 c 128,-1,46
 243 619 243 619 235 542 c 1,47,48
 297 587 297 587 321 614.5 c 128,-1,49
 345 642 345 642 355 647.5 c 128,-1,50
 365 653 365 653 376 653 c 128,-1,51
 387 653 387 653 398 641.5 c 128,-1,52
 409 630 409 630 409 613.5 c 128,-1,53
 409 597 409 597 394.5 588 c 128,-1,54
 380 579 380 579 345 571.5 c 128,-1,55
 310 564 310 564 240 533 c 1,56,0
 310 502 310 502 345 495.5 c 128,-1,1
EndSplineSet
EndChar

StartChar: plus
Encoding: 43 43 14
Width: 550
GlyphClass: 2
Flags: W
LayerCount: 2
Fore
SplineSet
98 295 m 1,0,-1
 98 343 l 1,1,-1
 251 343 l 1,2,-1
 251 496 l 1,3,-1
 299 496 l 1,4,-1
 299 343 l 1,5,-1
 452 343 l 1,6,-1
 452 295 l 1,7,-1
 299 295 l 1,8,-1
 299 142 l 1,9,-1
 251 142 l 1,10,-1
 251 295 l 1,11,-1
 98 295 l 1,0,-1
EndSplineSet
EndChar

StartChar: comma
Encoding: 44 44 15
Width: 182
GlyphClass: 2
Flags: W
LayerCount: 2
Fore
SplineSet
105 -36 m 0,0,1
 105 -17 105 -17 82 -11 c 0,2,3
 34 0 34 0 34 43 c 0,4,5
 34 66 34 66 49.5 81 c 128,-1,6
 65 96 65 96 89.5 96 c 128,-1,7
 114 96 114 96 132.5 75.5 c 128,-1,8
 151 55 151 55 151 12.5 c 128,-1,9
 151 -30 151 -30 126.5 -72 c 128,-1,10
 102 -114 102 -114 56 -144 c 1,11,-1
 41 -125 l 1,12,13
 105 -83 105 -83 105 -36 c 0,0,1
EndSplineSet
EndChar

StartChar: hyphen
Encoding: 45 45 16
Width: 379
GlyphClass: 2
Flags: W
LayerCount: 2
Fore
SplineSet
35 277 m 1,0,-1
 35 327 l 1,1,-1
 344 327 l 1,2,-1
 344 277 l 1,3,-1
 35 277 l 1,0,-1
EndSplineSet
EndChar

StartChar: period
Encoding: 46 46 17
Width: 173
GlyphClass: 2
Flags: W
LayerCount: 2
Fore
SplineSet
49.5 80.5 m 128,-1,1
 65 96 65 96 87 96 c 128,-1,2
 109 96 109 96 124 80.5 c 128,-1,3
 139 65 139 65 139 42.5 c 128,-1,4
 139 20 139 20 123.5 5 c 128,-1,5
 108 -10 108 -10 86.5 -10 c 128,-1,6
 65 -10 65 -10 49.5 5 c 128,-1,7
 34 20 34 20 34 42.5 c 128,-1,0
 34 65 34 65 49.5 80.5 c 128,-1,1
EndSplineSet
EndChar

StartChar: slash
Encoding: 47 47 18
Width: 329
GlyphClass: 2
Flags: W
LayerCount: 2
Fore
SplineSet
15 -85 m 1,0,-1
 227 670 l 1,1,-1
 288 670 l 1,2,-1
 76 -85 l 1,3,-1
 15 -85 l 1,0,-1
EndSplineSet
EndChar

StartChar: zero
Encoding: 48 48 19
Width: 550
GlyphClass: 2
Flags: W
LayerCount: 2
Fore
SplineSet
110.5 564 m 128,-1,1
 175 653 175 653 276 653 c 128,-1,2
 377 653 377 653 440.5 564 c 128,-1,3
 504 475 504 475 504 319.5 c 128,-1,4
 504 164 504 164 441 77 c 128,-1,5
 378 -10 378 -10 276.5 -10 c 128,-1,6
 175 -10 175 -10 110.5 77 c 128,-1,7
 46 164 46 164 46 319.5 c 128,-1,0
 46 475 46 475 110.5 564 c 128,-1,1
163.5 102.5 m 128,-1,9
 209 19 209 19 276.5 19 c 128,-1,10
 344 19 344 19 388 102 c 128,-1,11
 432 185 432 185 432 319.5 c 128,-1,12
 432 454 432 454 388 540.5 c 128,-1,13
 344 627 344 627 276.5 627 c 128,-1,14
 209 627 209 627 163.5 540.5 c 128,-1,15
 118 454 118 454 118 320 c 128,-1,8
 118 186 118 186 163.5 102.5 c 128,-1,9
EndSplineSet
EndChar

StartChar: one
Encoding: 49 49 20
Width: 550
GlyphClass: 2
Flags: W
LayerCount: 2
Fore
SplineSet
332 226 m 2,0,1
 332 86 332 86 344 60 c 0,2,3
 350 47 350 47 357.5 35.5 c 128,-1,4
 365 24 365 24 379 20 c 0,5,6
 407 12 407 12 450 12 c 1,7,-1
 452 0 l 1,8,-1
 142 0 l 1,9,-1
 144 12 l 1,10,11
 174 12 174 12 191.5 14 c 128,-1,12
 209 16 209 16 223.5 25 c 128,-1,13
 238 34 238 34 244.5 45.5 c 128,-1,14
 251 57 251 57 256 85 c 0,15,16
 262 125 262 125 262 226 c 2,17,-1
 262 490 l 2,18,19
 262 558 262 558 218 558 c 0,20,21
 186 558 186 558 105 522 c 1,22,-1
 97 541 l 1,23,24
 270 619 270 619 321 654 c 1,25,-1
 332 649 l 1,26,-1
 332 226 l 2,0,1
EndSplineSet
EndChar

StartChar: two
Encoding: 50 50 21
Width: 550
GlyphClass: 2
Flags: W
LayerCount: 2
Fore
SplineSet
463 143 m 1,0,-1
 475 143 l 1,1,-1
 475 0 l 1,2,-1
 74 0 l 1,3,-1
 74 13 l 1,4,5
 217 154 217 154 301 284 c 128,-1,6
 385 414 385 414 385 501 c 0,7,8
 385 557 385 557 356 592 c 128,-1,9
 327 627 327 627 273 627 c 0,10,11
 239 627 239 627 214 611 c 128,-1,12
 189 595 189 595 177 576 c 128,-1,13
 165 557 165 557 150.5 541 c 128,-1,14
 136 525 136 525 121 525 c 128,-1,15
 106 525 106 525 96.5 534.5 c 128,-1,16
 87 544 87 544 87 558 c 0,17,18
 87 596 87 596 142 624.5 c 128,-1,19
 197 653 197 653 274 653 c 128,-1,20
 351 653 351 653 405 616 c 128,-1,21
 459 579 459 579 459 497 c 0,22,23
 459 403 459 403 364 284 c 0,24,25
 313 221 313 221 267 171.5 c 128,-1,26
 221 122 221 122 139 40 c 1,27,28
 301 40 301 40 382 61 c 128,-1,29
 463 82 463 82 463 143 c 1,0,-1
EndSplineSet
EndChar

StartChar: three
Encoding: 51 51 22
Width: 550
GlyphClass: 2
Flags: W
LayerCount: 2
Fore
SplineSet
470 189 m 0,0,1
 470 103 470 103 402.5 46.5 c 128,-1,2
 335 -10 335 -10 246 -10 c 0,3,4
 125 -10 125 -10 62 68 c 1,5,-1
 82 87 l 1,6,7
 134 27 134 27 234 27 c 0,8,9
 300 27 300 27 348 67 c 128,-1,10
 396 107 396 107 396 175 c 0,11,12
 396 333 396 333 157 333 c 1,13,-1
 157 352 l 1,14,15
 235 352 235 352 301.5 393.5 c 128,-1,16
 368 435 368 435 368 514 c 0,17,18
 368 564 368 564 342 595.5 c 128,-1,19
 316 627 316 627 266 627 c 0,20,21
 235 627 235 627 211 610.5 c 128,-1,22
 187 594 187 594 175 575 c 128,-1,23
 163 556 163 556 147.5 539.5 c 128,-1,24
 132 523 132 523 116 523 c 128,-1,25
 100 523 100 523 90 533.5 c 128,-1,26
 80 544 80 544 80 558 c 0,27,28
 80 597 80 597 134.5 625 c 128,-1,29
 189 653 189 653 266 653 c 128,-1,30
 343 653 343 653 392.5 620.5 c 128,-1,31
 442 588 442 588 442 520 c 128,-1,32
 442 452 442 452 395.5 410 c 128,-1,33
 349 368 349 368 287 351 c 1,34,-1
 287 347 l 1,35,36
 380 342 380 342 425 295.5 c 128,-1,37
 470 249 470 249 470 189 c 0,0,1
EndSplineSet
EndChar

StartChar: four
Encoding: 52 52 23
Width: 550
GlyphClass: 2
Flags: W
LayerCount: 2
Fore
SplineSet
33 140 m 1,0,-1
 33 171 l 1,1,-1
 371 654 l 1,2,-1
 400 649 l 1,3,-1
 400 170 l 1,4,-1
 524 170 l 1,5,-1
 524 140 l 1,6,-1
 401 140 l 1,7,8
 404 57 404 57 426 34.5 c 128,-1,9
 448 12 448 12 518 12 c 1,10,-1
 520 0 l 1,11,-1
 210 0 l 1,12,-1
 212 12 l 1,13,14
 282 12 282 12 303.5 34 c 128,-1,15
 325 56 325 56 329 140 c 1,16,-1
 33 140 l 1,0,-1
330 226 m 2,17,-1
 330 541 l 1,18,-1
 70 170 l 1,19,-1
 329 170 l 1,20,21
 330 187 330 187 330 226 c 2,17,-1
EndSplineSet
EndChar

StartChar: five
Encoding: 53 53 24
Width: 550
GlyphClass: 2
Flags: W
LayerCount: 2
Fore
SplineSet
416 330.5 m 128,-1,1
 477 284 477 284 477 193.5 c 128,-1,2
 477 103 477 103 409.5 46.5 c 128,-1,3
 342 -10 342 -10 253 -10 c 0,4,5
 132 -10 132 -10 69 68 c 1,6,-1
 89 87 l 1,7,8
 141 27 141 27 241 27 c 0,9,10
 307 27 307 27 355 67 c 128,-1,11
 403 107 403 107 403 183.5 c 128,-1,12
 403 260 403 260 357 299.5 c 128,-1,13
 311 339 311 339 231 339 c 0,14,15
 179 339 179 339 127 326 c 1,16,-1
 107 346 l 1,17,-1
 123 623 l 1,18,19
 317 633 317 633 377 644.5 c 128,-1,20
 437 656 437 656 437 696 c 1,21,-1
 449 696 l 1,22,-1
 449 575 l 1,23,-1
 157 575 l 1,24,-1
 145 362 l 1,25,26
 202 377 202 377 259 377 c 0,27,0
 355 377 355 377 416 330.5 c 128,-1,1
EndSplineSet
EndChar

StartChar: six
Encoding: 54 54 25
Width: 550
GlyphClass: 2
Flags: W
LayerCount: 2
Fore
SplineSet
295 653 m 0,0,1
 369 653 369 653 420.5 625 c 128,-1,2
 472 597 472 597 472 558 c 0,3,4
 472 544 472 544 461 533.5 c 128,-1,5
 450 523 450 523 435 523 c 128,-1,6
 420 523 420 523 405 539.5 c 128,-1,7
 390 556 390 556 379 575 c 128,-1,8
 368 594 368 594 346 610.5 c 128,-1,9
 324 627 324 627 296 627 c 0,10,11
 224 627 224 627 179 538 c 128,-1,12
 134 449 134 449 134 301 c 128,-1,13
 134 153 134 153 177.5 86 c 128,-1,14
 221 19 221 19 285 19 c 128,-1,15
 349 19 349 19 382 66 c 128,-1,16
 415 113 415 113 415 192 c 128,-1,17
 415 271 415 271 381.5 308 c 128,-1,18
 348 345 348 345 296 345 c 128,-1,19
 244 345 244 345 192 327 c 1,20,-1
 183 356 l 1,21,22
 241 378 241 378 305 378 c 0,23,24
 401 378 401 378 446.5 327.5 c 128,-1,25
 492 277 492 277 492 190.5 c 128,-1,26
 492 104 492 104 431 47 c 128,-1,27
 370 -10 370 -10 279 -10 c 128,-1,28
 188 -10 188 -10 125 68 c 128,-1,29
 62 146 62 146 62 305 c 128,-1,30
 62 464 62 464 123.5 558.5 c 128,-1,31
 185 653 185 653 295 653 c 0,0,1
EndSplineSet
EndChar

StartChar: seven
Encoding: 55 55 26
Width: 550
GlyphClass: 2
Flags: W
LayerCount: 2
Fore
SplineSet
279 136 m 0,0,1
 279 119 279 119 285 83.5 c 128,-1,2
 291 48 291 48 291 31.5 c 128,-1,3
 291 15 291 15 277 2.5 c 128,-1,4
 263 -10 263 -10 244 -10 c 128,-1,5
 225 -10 225 -10 211 5 c 128,-1,6
 197 20 197 20 197 47 c 0,7,8
 197 145 197 145 275 312 c 128,-1,9
 353 479 353 479 456 603 c 1,10,11
 256 603 256 603 184 582 c 128,-1,12
 112 561 112 561 112 497 c 1,13,-1
 100 498 l 1,14,-1
 100 643 l 1,15,-1
 511 643 l 1,16,-1
 511 630 l 1,17,18
 404 502 404 502 341.5 365.5 c 128,-1,19
 279 229 279 229 279 136 c 0,0,1
EndSplineSet
EndChar

StartChar: eight
Encoding: 56 56 27
Width: 550
GlyphClass: 2
Flags: W
LayerCount: 2
Fore
SplineSet
483 165 m 0,0,1
 483 86 483 86 425 38 c 128,-1,2
 367 -10 367 -10 274.5 -10 c 128,-1,3
 182 -10 182 -10 124 38 c 128,-1,4
 66 86 66 86 66 165 c 0,5,6
 66 235 66 235 116 276 c 0,7,8
 160 311 160 311 226 334 c 1,9,-1
 226 338 l 1,10,11
 167 357 167 357 127 399.5 c 128,-1,12
 87 442 87 442 87 507.5 c 128,-1,13
 87 573 87 573 140 613 c 128,-1,14
 193 653 193 653 274 653 c 128,-1,15
 355 653 355 653 409 613 c 128,-1,16
 463 573 463 573 463 507.5 c 128,-1,17
 463 442 463 442 426.5 404.5 c 128,-1,18
 390 367 390 367 326 341 c 1,19,-1
 326 337 l 1,20,21
 483 292 483 292 483 165 c 0,0,1
192 591.5 m 128,-1,23
 161 556 161 556 161 497.5 c 128,-1,24
 161 439 161 439 202 400.5 c 128,-1,25
 243 362 243 362 296 354 c 1,26,27
 326 366 326 366 357.5 404 c 128,-1,28
 389 442 389 442 389 500 c 128,-1,29
 389 558 389 558 357 592.5 c 128,-1,30
 325 627 325 627 274 627 c 128,-1,22
 223 627 223 627 192 591.5 c 128,-1,23
371 59.5 m 128,-1,32
 409 99 409 99 409 164.5 c 128,-1,33
 409 230 409 230 360.5 272 c 128,-1,34
 312 314 312 314 249 322 c 1,35,36
 219 310 219 310 192 285 c 1,37,38
 140 234 140 234 140 167 c 128,-1,39
 140 100 140 100 180 60 c 128,-1,40
 220 20 220 20 276.5 20 c 128,-1,31
 333 20 333 20 371 59.5 c 128,-1,32
EndSplineSet
EndChar

StartChar: nine
Encoding: 57 57 28
Width: 550
GlyphClass: 2
Flags: W
LayerCount: 2
Fore
SplineSet
89 87 m 1,0,1
 146 27 146 27 231 27 c 128,-1,2
 316 27 316 27 368 113.5 c 128,-1,3
 420 200 420 200 420 348 c 128,-1,4
 420 496 420 496 378 560 c 128,-1,5
 336 624 336 624 271.5 624 c 128,-1,6
 207 624 207 624 172.5 579 c 128,-1,7
 138 534 138 534 138 458.5 c 128,-1,8
 138 383 138 383 173 347 c 128,-1,9
 208 311 208 311 257.5 311 c 128,-1,10
 307 311 307 311 351 327 c 1,11,-1
 360 298 l 1,12,13
 301 276 301 276 244 276 c 0,14,15
 163 276 163 276 112 323 c 128,-1,16
 61 370 61 370 61 458.5 c 128,-1,17
 61 547 61 547 124 600 c 128,-1,18
 187 653 187 653 279.5 653 c 128,-1,19
 372 653 372 653 432 575.5 c 128,-1,20
 492 498 492 498 492 340 c 128,-1,21
 492 182 492 182 420 86 c 128,-1,22
 348 -10 348 -10 240 -10 c 128,-1,23
 132 -10 132 -10 69 68 c 1,24,-1
 89 87 l 1,0,1
EndSplineSet
EndChar

StartChar: colon
Encoding: 58 58 29
Width: 173
GlyphClass: 2
Flags: W
LayerCount: 2
Fore
SplineSet
49.5 80.5 m 128,-1,1
 65 96 65 96 87 96 c 128,-1,2
 109 96 109 96 124 80.5 c 128,-1,3
 139 65 139 65 139 42.5 c 128,-1,4
 139 20 139 20 123.5 5 c 128,-1,5
 108 -10 108 -10 86.5 -10 c 128,-1,6
 65 -10 65 -10 49.5 5 c 128,-1,7
 34 20 34 20 34 42.5 c 128,-1,0
 34 65 34 65 49.5 80.5 c 128,-1,1
49.5 447.5 m 128,-1,9
 65 463 65 463 87 463 c 128,-1,10
 109 463 109 463 124 447.5 c 128,-1,11
 139 432 139 432 139 409.5 c 128,-1,12
 139 387 139 387 123.5 372 c 128,-1,13
 108 357 108 357 86.5 357 c 128,-1,14
 65 357 65 357 49.5 372 c 128,-1,15
 34 387 34 387 34 409.5 c 128,-1,8
 34 432 34 432 49.5 447.5 c 128,-1,9
EndSplineSet
EndChar

StartChar: semicolon
Encoding: 59 59 30
Width: 173
GlyphClass: 2
Flags: W
LayerCount: 2
Fore
SplineSet
105 -36 m 0,0,1
 105 -17 105 -17 82 -11 c 0,2,3
 34 0 34 0 34 43 c 0,4,5
 34 66 34 66 49.5 81 c 128,-1,6
 65 96 65 96 89.5 96 c 128,-1,7
 114 96 114 96 132.5 75.5 c 128,-1,8
 151 55 151 55 151 12.5 c 128,-1,9
 151 -30 151 -30 126.5 -72 c 128,-1,10
 102 -114 102 -114 56 -144 c 1,11,-1
 41 -125 l 1,12,13
 105 -83 105 -83 105 -36 c 0,0,1
49.5 447.5 m 128,-1,15
 65 463 65 463 87 463 c 128,-1,16
 109 463 109 463 124 447.5 c 128,-1,17
 139 432 139 432 139 409.5 c 128,-1,18
 139 387 139 387 123.5 372 c 128,-1,19
 108 357 108 357 86.5 357 c 128,-1,20
 65 357 65 357 49.5 372 c 128,-1,21
 34 387 34 387 34 409.5 c 128,-1,14
 34 432 34 432 49.5 447.5 c 128,-1,15
EndSplineSet
EndChar

StartChar: less
Encoding: 60 60 31
Width: 550
GlyphClass: 2
Flags: W
LayerCount: 2
Fore
SplineSet
98 295 m 1,0,-1
 98 343 l 1,1,-1
 452 483 l 1,2,-1
 452 435 l 1,3,-1
 152 319 l 1,4,-1
 452 203 l 1,5,-1
 452 155 l 1,6,-1
 98 295 l 1,0,-1
EndSplineSet
EndChar

StartChar: equal
Encoding: 61 61 32
Width: 550
GlyphClass: 2
Flags: W
LayerCount: 2
Fore
SplineSet
98 385 m 1,0,-1
 98 433 l 1,1,-1
 452 433 l 1,2,-1
 452 385 l 1,3,-1
 98 385 l 1,0,-1
98 205 m 1,4,-1
 98 253 l 1,5,-1
 452 253 l 1,6,-1
 452 205 l 1,7,-1
 98 205 l 1,4,-1
EndSplineSet
EndChar

StartChar: greater
Encoding: 62 62 33
Width: 550
GlyphClass: 2
Flags: W
LayerCount: 2
Fore
SplineSet
452 343 m 1,0,-1
 452 295 l 1,1,-1
 98 155 l 1,2,-1
 98 203 l 1,3,-1
 397 319 l 1,4,-1
 98 435 l 1,5,-1
 98 483 l 1,6,-1
 452 343 l 1,0,-1
EndSplineSet
EndChar

StartChar: question
Encoding: 63 63 34
Width: 363
GlyphClass: 2
Flags: W
LayerCount: 2
Fore
SplineSet
74 672.5 m 128,-1,1
 128 709 128 709 197 709 c 128,-1,2
 266 709 266 709 306.5 677 c 128,-1,3
 347 645 347 645 347 582 c 0,4,5
 347 520 347 520 272 436 c 0,6,7
 241 402 241 402 210 370 c 0,8,9
 135 291 135 291 135 250 c 128,-1,10
 135 209 135 209 178 174 c 1,11,-1
 160 155 l 1,12,13
 88 217 88 217 88 280 c 0,14,15
 88 339 88 339 155 408 c 0,16,17
 183 436 183 436 211 464 c 0,18,19
 278 533 278 533 278 594 c 0,20,21
 278 683 278 683 198 683 c 0,22,23
 159 683 159 683 135.5 664 c 128,-1,24
 112 645 112 645 104 622 c 0,25,26
 85 561 85 561 50 561 c 0,27,28
 38 561 38 561 29 571 c 128,-1,29
 20 581 20 581 20 597 c 0,30,0
 20 636 20 636 74 672.5 c 128,-1,1
124.5 80.5 m 128,-1,32
 140 96 140 96 162 96 c 128,-1,33
 184 96 184 96 199 80.5 c 128,-1,34
 214 65 214 65 214 42.5 c 128,-1,35
 214 20 214 20 198.5 5 c 128,-1,36
 183 -10 183 -10 161.5 -10 c 128,-1,37
 140 -10 140 -10 124.5 5 c 128,-1,38
 109 20 109 20 109 42.5 c 128,-1,31
 109 65 109 65 124.5 80.5 c 128,-1,32
EndSplineSet
EndChar

StartChar: at
Encoding: 64 64 35
Width: 793
GlyphClass: 2
Flags: W
LayerCount: 2
Fore
SplineSet
559 108 m 0,0,1
 490 108 490 108 490 179 c 0,2,3
 490 200 490 200 501 233 c 1,4,-1
 496 233 l 1,5,6
 479 183 479 183 444 145.5 c 128,-1,7
 409 108 409 108 354 108 c 128,-1,8
 299 108 299 108 269 142.5 c 128,-1,9
 239 177 239 177 239 236 c 0,10,11
 239 308 239 308 308 388 c 0,12,13
 342 426 342 426 401 451 c 128,-1,14
 460 476 460 476 533 476 c 1,15,-1
 612 471 l 1,16,17
 590 397 590 397 575 316.5 c 128,-1,18
 560 236 560 236 560 198 c 0,19,20
 560 137 560 137 588 137 c 0,21,22
 633 137 633 137 678.5 193.5 c 128,-1,23
 724 250 724 250 724 327 c 0,24,25
 723 456 723 456 641.5 526 c 128,-1,26
 560 596 560 596 435.5 596 c 128,-1,27
 311 596 311 596 233 504 c 128,-1,28
 155 412 155 412 155 276 c 128,-1,29
 155 140 155 140 232.5 51.5 c 128,-1,30
 310 -37 310 -37 433 -37 c 0,31,32
 536 -37 536 -37 622 7 c 1,33,-1
 622 -19 l 1,34,35
 540 -66 540 -66 424 -66 c 0,36,37
 282 -66 282 -66 181 35 c 128,-1,38
 80 136 80 136 80 278 c 128,-1,39
 80 420 80 420 181 521 c 128,-1,40
 282 622 282 622 425.5 622 c 128,-1,41
 569 622 569 622 656 544.5 c 128,-1,42
 743 467 743 467 743 327 c 0,43,44
 743 229 743 229 683.5 168.5 c 128,-1,45
 624 108 624 108 559 108 c 0,0,1
333.5 162 m 128,-1,47
 350 137 350 137 382 137 c 128,-1,48
 414 137 414 137 443 174.5 c 128,-1,49
 472 212 472 212 490 270 c 0,50,51
 520 372 520 372 529 451 c 1,52,53
 474 451 474 451 431 426.5 c 128,-1,54
 388 402 388 402 364 366 c 0,55,56
 317 292 317 292 317 225 c 0,57,46
 317 187 317 187 333.5 162 c 128,-1,47
EndSplineSet
EndChar

StartChar: A
Encoding: 65 65 36
Width: 655
GlyphClass: 2
Flags: W
LayerCount: 2
Fore
SplineSet
496.5 18 m 128,-1,1
 512 24 512 24 512 49 c 128,-1,2
 512 74 512 74 459 219 c 1,3,-1
 154 219 l 1,4,5
 111 92 111 92 111 59.5 c 128,-1,6
 111 27 111 27 127.5 19.5 c 128,-1,7
 144 12 144 12 187 12 c 1,8,-1
 189 0 l 1,9,-1
 -36 0 l 1,10,-1
 -34 12 l 1,11,12
 -5 12 -5 12 11.5 17 c 128,-1,13
 28 22 28 22 47.5 43.5 c 128,-1,14
 67 65 67 65 85 106 c 128,-1,15
 103 147 103 147 128 221 c 2,16,-1
 217 478 l 2,17,18
 264 614 264 614 264 643 c 128,-1,19
 264 672 264 672 250 680.5 c 128,-1,20
 236 689 236 689 196 689 c 1,21,-1
 194 700 l 1,22,-1
 359 700 l 1,23,-1
 536 221 l 2,24,25
 581 102 581 102 596.5 70 c 128,-1,26
 612 38 612 38 626 29 c 0,27,28
 651 12 651 12 689 12 c 1,29,-1
 691 0 l 1,30,-1
 441 0 l 1,31,-1
 443 12 l 1,32,0
 481 12 481 12 496.5 18 c 128,-1,1
303 646 m 1,33,-1
 162 243 l 1,34,-1
 451 243 l 1,35,-1
 303 646 l 1,33,-1
EndSplineSet
EndChar

StartChar: B
Encoding: 66 66 37
Width: 618
GlyphClass: 2
Flags: W
LayerCount: 2
Fore
SplineSet
571 196 m 0,0,1
 571 96 571 96 494.5 48 c 128,-1,2
 418 0 418 0 285 0 c 2,3,-1
 50 0 l 1,4,-1
 52 12 l 1,5,6
 77 12 77 12 91 14 c 128,-1,7
 105 16 105 16 117.5 25 c 128,-1,8
 130 34 130 34 135.5 45.5 c 128,-1,9
 141 57 141 57 145 84 c 0,10,11
 150 119 150 119 150 226 c 2,12,-1
 150 474 l 2,13,14
 150 624 150 624 136 654 c 0,15,16
 130 666 130 666 117.5 675 c 128,-1,17
 105 684 105 684 91 686 c 128,-1,18
 77 688 77 688 52 688 c 1,19,-1
 50 700 l 1,20,-1
 274 700 l 2,21,22
 348 700 348 700 424 674 c 0,23,24
 467 660 467 660 494 625.5 c 128,-1,25
 521 591 521 591 521 542 c 0,26,27
 521 475 521 475 473 437 c 128,-1,28
 425 399 425 399 358 384 c 1,29,30
 436 376 436 376 498 336 c 0,31,32
 531 314 531 314 551 278 c 128,-1,33
 571 242 571 242 571 196 c 0,0,1
434 542 m 0,34,35
 434 677 434 677 220 677 c 1,36,-1
 220 391 l 1,37,-1
 229 391 l 2,38,39
 434 391 434 391 434 542 c 0,34,35
484 196 m 0,40,41
 484 371 484 371 235 371 c 2,42,-1
 220 371 l 1,43,-1
 220 211 l 2,44,45
 220 102 220 102 226.5 68.5 c 128,-1,46
 233 35 233 35 259 23 c 1,47,48
 309 23 309 23 351.5 35 c 128,-1,49
 394 47 394 47 419.5 64 c 128,-1,50
 445 81 445 81 464.5 115 c 128,-1,51
 484 149 484 149 484 196 c 0,40,41
EndSplineSet
EndChar

StartChar: C
Encoding: 67 67 38
Width: 712
GlyphClass: 2
Flags: W
LayerCount: 2
Fore
SplineSet
682 77 m 1,0,1
 567 -10 567 -10 406.5 -10 c 128,-1,2
 246 -10 246 -10 148 93 c 128,-1,3
 50 196 50 196 50 350 c 128,-1,4
 50 504 50 504 144.5 606.5 c 128,-1,5
 239 709 239 709 399 709 c 0,6,7
 473 709 473 709 547 689 c 128,-1,8
 621 669 621 669 659 648 c 1,9,-1
 659 520 l 1,10,-1
 648 522 l 1,11,12
 623 612 623 612 561.5 649 c 128,-1,13
 500 686 500 686 399 686 c 0,14,15
 271 686 271 686 204 593.5 c 128,-1,16
 137 501 137 501 137 352 c 128,-1,17
 137 203 137 203 208 111 c 128,-1,18
 279 19 279 19 407 19 c 0,19,20
 499 19 499 19 560.5 41.5 c 128,-1,21
 622 64 622 64 682 107 c 1,22,-1
 682 77 l 1,0,1
EndSplineSet
EndChar

StartChar: D
Encoding: 68 68 39
Width: 764
GlyphClass: 2
Flags: W
LayerCount: 2
Fore
SplineSet
252 700 m 2,0,1
 424 700 424 700 510 670 c 0,2,3
 549 656 549 656 593 630 c 128,-1,4
 637 604 637 604 664.5 568 c 128,-1,5
 692 532 692 532 710.5 476 c 128,-1,6
 729 420 729 420 729 350.5 c 128,-1,7
 729 281 729 281 710.5 225.5 c 128,-1,8
 692 170 692 170 664.5 134 c 128,-1,9
 637 98 637 98 596.5 71.5 c 128,-1,10
 556 45 556 45 520 32 c 128,-1,11
 484 19 484 19 440 11 c 0,12,13
 381 0 381 0 319 0 c 2,14,-1
 50 0 l 1,15,-1
 52 12 l 1,16,17
 102 12 102 12 125 31 c 0,18,19
 150 52 150 52 150 226 c 2,20,-1
 150 474 l 2,21,22
 150 581 150 581 143.5 620.5 c 128,-1,23
 137 660 137 660 125 670 c 0,24,25
 102 689 102 689 52 689 c 1,26,-1
 50 700 l 1,27,-1
 252 700 l 2,0,1
257 24 m 1,28,29
 269 23 269 23 306.5 23 c 128,-1,30
 344 23 344 23 388.5 31 c 128,-1,31
 433 39 433 39 480.5 61.5 c 128,-1,32
 528 84 528 84 562.5 119 c 128,-1,33
 597 154 597 154 619.5 213.5 c 128,-1,34
 642 273 642 273 642 349.5 c 128,-1,35
 642 426 642 426 620 485 c 128,-1,36
 598 544 598 544 563 579.5 c 128,-1,37
 528 615 528 615 481 638 c 0,38,39
 398 677 398 677 298 677 c 0,40,41
 253 677 253 677 220 671 c 1,42,-1
 220 214 l 2,43,44
 220 106 220 106 226 71 c 128,-1,45
 232 36 232 36 257 24 c 1,28,29
EndSplineSet
EndChar

StartChar: E
Encoding: 69 69 40
Width: 616
GlyphClass: 2
Flags: W
LayerCount: 2
Fore
SplineSet
554 0 m 1,0,-1
 50 0 l 1,1,-1
 52 12 l 1,2,3
 102 12 102 12 125 31 c 0,4,5
 150 52 150 52 150 226 c 2,6,-1
 150 474 l 2,7,8
 150 581 150 581 143.5 620.5 c 128,-1,9
 137 660 137 660 125 670 c 0,10,11
 102 689 102 689 52 689 c 1,12,-1
 50 700 l 1,13,-1
 517 700 l 1,14,-1
 517 556 l 1,15,-1
 505 558 l 1,16,17
 505 625 505 625 434.5 651 c 128,-1,18
 364 677 364 677 219 677 c 1,19,-1
 219 362 l 1,20,21
 315 362 315 362 357 372 c 128,-1,22
 399 382 399 382 411 402.5 c 128,-1,23
 423 423 423 423 423 471 c 1,24,-1
 434 473 l 1,25,-1
 434 230 l 1,26,-1
 423 232 l 1,27,28
 423 281 423 281 411 301 c 128,-1,29
 399 321 399 321 357 330.5 c 128,-1,30
 315 340 315 340 219 340 c 1,31,-1
 219 211 l 2,32,33
 219 105 219 105 226.5 70 c 128,-1,34
 234 35 234 35 260 23 c 1,35,36
 542 23 542 23 542 143 c 1,37,-1
 554 145 l 1,38,-1
 554 0 l 1,0,-1
EndSplineSet
EndChar

StartChar: F
Encoding: 70 70 41
Width: 539
GlyphClass: 2
Flags: W
LayerCount: 2
Fore
SplineSet
517 700 m 1,0,-1
 517 556 l 1,1,-1
 506 558 l 1,2,3
 506 624 506 624 435.5 650.5 c 128,-1,4
 365 677 365 677 221 677 c 1,5,-1
 221 362 l 1,6,7
 279 364 279 364 311.5 368.5 c 128,-1,8
 344 373 344 373 361 387.5 c 128,-1,9
 378 402 378 402 382 419 c 128,-1,10
 386 436 386 436 386 471 c 1,11,-1
 398 473 l 1,12,-1
 398 230 l 1,13,-1
 386 232 l 1,14,15
 386 278 386 278 376.5 298 c 128,-1,16
 367 318 367 318 332.5 328 c 128,-1,17
 298 338 298 338 221 340 c 1,18,-1
 221 226 l 2,19,20
 221 84 221 84 234 60 c 0,21,22
 240 47 240 47 247.5 35.5 c 128,-1,23
 255 24 255 24 270 20 c 0,24,25
 302 12 302 12 348 12 c 1,26,-1
 350 0 l 1,27,-1
 50 0 l 1,28,-1
 52 12 l 1,29,30
 102 12 102 12 125 31 c 0,31,32
 150 52 150 52 150 226 c 2,33,-1
 150 474 l 2,34,35
 150 581 150 581 143.5 620.5 c 128,-1,36
 137 660 137 660 125 670 c 0,37,38
 102 689 102 689 52 689 c 1,39,-1
 50 700 l 1,40,-1
 517 700 l 1,0,-1
EndSplineSet
PairPos2: "'kern' Horizontal Kerning in Latin lookup 0 per glyph data 1" ellipsis dx=0 dy=0 dh=-90 dv=0 dx=0 dy=0 dh=0 dv=0
PairPos2: "'kern' Horizontal Kerning in Latin lookup 0 per glyph data 1" quotedblbase dx=0 dy=0 dh=-90 dv=0 dx=0 dy=0 dh=0 dv=0
PairPos2: "'kern' Horizontal Kerning in Latin lookup 0 per glyph data 1" quotesinglbase dx=0 dy=0 dh=-90 dv=0 dx=0 dy=0 dh=0 dv=0
PairPos2: "'kern' Horizontal Kerning in Latin lookup 0 per glyph data 1" oe dx=0 dy=0 dh=-35 dv=0 dx=0 dy=0 dh=0 dv=0
PairPos2: "'kern' Horizontal Kerning in Latin lookup 0 per glyph data 1" udieresis dx=0 dy=0 dh=-40 dv=0 dx=0 dy=0 dh=0 dv=0
PairPos2: "'kern' Horizontal Kerning in Latin lookup 0 per glyph data 1" ucircumflex dx=0 dy=0 dh=-40 dv=0 dx=0 dy=0 dh=0 dv=0
PairPos2: "'kern' Horizontal Kerning in Latin lookup 0 per glyph data 1" uacute dx=0 dy=0 dh=-40 dv=0 dx=0 dy=0 dh=0 dv=0
PairPos2: "'kern' Horizontal Kerning in Latin lookup 0 per glyph data 1" ugrave dx=0 dy=0 dh=-40 dv=0 dx=0 dy=0 dh=0 dv=0
PairPos2: "'kern' Horizontal Kerning in Latin lookup 0 per glyph data 1" oslash dx=0 dy=0 dh=-35 dv=0 dx=0 dy=0 dh=0 dv=0
PairPos2: "'kern' Horizontal Kerning in Latin lookup 0 per glyph data 1" odieresis dx=0 dy=0 dh=-35 dv=0 dx=0 dy=0 dh=0 dv=0
PairPos2: "'kern' Horizontal Kerning in Latin lookup 0 per glyph data 1" otilde dx=0 dy=0 dh=-35 dv=0 dx=0 dy=0 dh=0 dv=0
PairPos2: "'kern' Horizontal Kerning in Latin lookup 0 per glyph data 1" ocircumflex dx=0 dy=0 dh=-35 dv=0 dx=0 dy=0 dh=0 dv=0
PairPos2: "'kern' Horizontal Kerning in Latin lookup 0 per glyph data 1" oacute dx=0 dy=0 dh=-35 dv=0 dx=0 dy=0 dh=0 dv=0
PairPos2: "'kern' Horizontal Kerning in Latin lookup 0 per glyph data 1" ograve dx=0 dy=0 dh=-35 dv=0 dx=0 dy=0 dh=0 dv=0
PairPos2: "'kern' Horizontal Kerning in Latin lookup 0 per glyph data 1" edieresis dx=0 dy=0 dh=-35 dv=0 dx=0 dy=0 dh=0 dv=0
PairPos2: "'kern' Horizontal Kerning in Latin lookup 0 per glyph data 1" ecircumflex dx=0 dy=0 dh=-35 dv=0 dx=0 dy=0 dh=0 dv=0
PairPos2: "'kern' Horizontal Kerning in Latin lookup 0 per glyph data 1" eacute dx=0 dy=0 dh=-35 dv=0 dx=0 dy=0 dh=0 dv=0
PairPos2: "'kern' Horizontal Kerning in Latin lookup 0 per glyph data 1" egrave dx=0 dy=0 dh=-35 dv=0 dx=0 dy=0 dh=0 dv=0
PairPos2: "'kern' Horizontal Kerning in Latin lookup 0 per glyph data 1" ccedilla dx=0 dy=0 dh=-35 dv=0 dx=0 dy=0 dh=0 dv=0
PairPos2: "'kern' Horizontal Kerning in Latin lookup 0 per glyph data 1" aring dx=0 dy=0 dh=-50 dv=0 dx=0 dy=0 dh=0 dv=0
PairPos2: "'kern' Horizontal Kerning in Latin lookup 0 per glyph data 1" adieresis dx=0 dy=0 dh=-50 dv=0 dx=0 dy=0 dh=0 dv=0
PairPos2: "'kern' Horizontal Kerning in Latin lookup 0 per glyph data 1" atilde dx=0 dy=0 dh=-50 dv=0 dx=0 dy=0 dh=0 dv=0
PairPos2: "'kern' Horizontal Kerning in Latin lookup 0 per glyph data 1" acircumflex dx=0 dy=0 dh=-50 dv=0 dx=0 dy=0 dh=0 dv=0
PairPos2: "'kern' Horizontal Kerning in Latin lookup 0 per glyph data 1" aacute dx=0 dy=0 dh=-50 dv=0 dx=0 dy=0 dh=0 dv=0
PairPos2: "'kern' Horizontal Kerning in Latin lookup 0 per glyph data 1" agrave dx=0 dy=0 dh=-50 dv=0 dx=0 dy=0 dh=0 dv=0
PairPos2: "'kern' Horizontal Kerning in Latin lookup 0 per glyph data 1" AE dx=0 dy=0 dh=-60 dv=0 dx=0 dy=0 dh=0 dv=0
PairPos2: "'kern' Horizontal Kerning in Latin lookup 0 per glyph data 1" Aring dx=0 dy=0 dh=-60 dv=0 dx=0 dy=0 dh=0 dv=0
PairPos2: "'kern' Horizontal Kerning in Latin lookup 0 per glyph data 1" Adieresis dx=0 dy=0 dh=-60 dv=0 dx=0 dy=0 dh=0 dv=0
PairPos2: "'kern' Horizontal Kerning in Latin lookup 0 per glyph data 1" Atilde dx=0 dy=0 dh=-60 dv=0 dx=0 dy=0 dh=0 dv=0
PairPos2: "'kern' Horizontal Kerning in Latin lookup 0 per glyph data 1" Acircumflex dx=0 dy=0 dh=-60 dv=0 dx=0 dy=0 dh=0 dv=0
PairPos2: "'kern' Horizontal Kerning in Latin lookup 0 per glyph data 1" Aacute dx=0 dy=0 dh=-60 dv=0 dx=0 dy=0 dh=0 dv=0
PairPos2: "'kern' Horizontal Kerning in Latin lookup 0 per glyph data 1" Agrave dx=0 dy=0 dh=-60 dv=0 dx=0 dy=0 dh=0 dv=0
PairPos2: "'kern' Horizontal Kerning in Latin lookup 0 per glyph data 1" u dx=0 dy=0 dh=-40 dv=0 dx=0 dy=0 dh=0 dv=0
PairPos2: "'kern' Horizontal Kerning in Latin lookup 0 per glyph data 1" q dx=0 dy=0 dh=-35 dv=0 dx=0 dy=0 dh=0 dv=0
PairPos2: "'kern' Horizontal Kerning in Latin lookup 0 per glyph data 1" o dx=0 dy=0 dh=-35 dv=0 dx=0 dy=0 dh=0 dv=0
PairPos2: "'kern' Horizontal Kerning in Latin lookup 0 per glyph data 1" g dx=0 dy=0 dh=-35 dv=0 dx=0 dy=0 dh=0 dv=0
PairPos2: "'kern' Horizontal Kerning in Latin lookup 0 per glyph data 1" e dx=0 dy=0 dh=-35 dv=0 dx=0 dy=0 dh=0 dv=0
PairPos2: "'kern' Horizontal Kerning in Latin lookup 0 per glyph data 1" d dx=0 dy=0 dh=-35 dv=0 dx=0 dy=0 dh=0 dv=0
PairPos2: "'kern' Horizontal Kerning in Latin lookup 0 per glyph data 1" c dx=0 dy=0 dh=-35 dv=0 dx=0 dy=0 dh=0 dv=0
PairPos2: "'kern' Horizontal Kerning in Latin lookup 0 per glyph data 1" a dx=0 dy=0 dh=-50 dv=0 dx=0 dy=0 dh=0 dv=0
PairPos2: "'kern' Horizontal Kerning in Latin lookup 0 per glyph data 1" J dx=0 dy=0 dh=-40 dv=0 dx=0 dy=0 dh=0 dv=0
PairPos2: "'kern' Horizontal Kerning in Latin lookup 0 per glyph data 1" A dx=0 dy=0 dh=-60 dv=0 dx=0 dy=0 dh=0 dv=0
PairPos2: "'kern' Horizontal Kerning in Latin lookup 0 per glyph data 1" period dx=0 dy=0 dh=-90 dv=0 dx=0 dy=0 dh=0 dv=0
PairPos2: "'kern' Horizontal Kerning in Latin lookup 0 per glyph data 1" comma dx=0 dy=0 dh=-90 dv=0 dx=0 dy=0 dh=0 dv=0
EndChar

StartChar: G
Encoding: 71 71 42
Width: 795
GlyphClass: 2
Flags: W
LayerCount: 2
Fore
SplineSet
669 187 m 2,0,-1
 669 63 l 1,1,2
 619 32 619 32 548.5 11 c 128,-1,3
 478 -10 478 -10 405 -10 c 0,4,5
 246 -10 246 -10 148 93 c 128,-1,6
 50 196 50 196 50 350 c 128,-1,7
 50 504 50 504 144.5 606.5 c 128,-1,8
 239 709 239 709 399 709 c 0,9,10
 469 709 469 709 540 689.5 c 128,-1,11
 611 670 611 670 645 648 c 1,12,-1
 645 520 l 1,13,-1
 634 522 l 1,14,15
 623 602 623 602 556 644 c 128,-1,16
 489 686 489 686 399 686 c 0,17,18
 271 686 271 686 204 594 c 128,-1,19
 137 502 137 502 137 350.5 c 128,-1,20
 137 199 137 199 207 106 c 128,-1,21
 277 13 277 13 410.5 13 c 128,-1,22
 544 13 544 13 599 97 c 1,23,-1
 599 175 l 2,24,25
 599 286 599 286 586.5 311.5 c 128,-1,26
 574 337 574 337 514 337 c 1,27,-1
 512 347 l 1,28,-1
 757 347 l 1,29,-1
 755 337 l 1,30,31
 698 337 698 337 683.5 310 c 128,-1,32
 669 283 669 283 669 187 c 2,0,-1
EndSplineSet
EndChar

StartChar: H
Encoding: 72 72 43
Width: 844
GlyphClass: 2
Flags: W
LayerCount: 2
Fore
SplineSet
695 474 m 2,0,-1
 695 226 l 2,1,2
 695 76 695 76 710 46 c 0,3,4
 715 34 715 34 727 25 c 128,-1,5
 739 16 739 16 753.5 14 c 128,-1,6
 768 12 768 12 792 12 c 1,7,-1
 794 0 l 1,8,-1
 524 0 l 1,9,-1
 526 12 l 1,10,11
 551 12 551 12 565.5 14 c 128,-1,12
 580 16 580 16 592.5 25 c 128,-1,13
 605 34 605 34 610.5 45.5 c 128,-1,14
 616 57 616 57 620 84 c 0,15,16
 625 119 625 119 625 226 c 2,17,-1
 625 336 l 1,18,-1
 220 336 l 1,19,-1
 220 226 l 2,20,21
 220 119 220 119 226.5 80 c 128,-1,22
 233 41 233 41 245 31 c 0,23,24
 268 12 268 12 318 12 c 1,25,-1
 320 0 l 1,26,-1
 50 0 l 1,27,-1
 52 12 l 1,28,29
 77 12 77 12 91 14 c 128,-1,30
 105 16 105 16 117.5 25 c 128,-1,31
 130 34 130 34 135.5 45.5 c 128,-1,32
 141 57 141 57 145 84 c 0,33,34
 150 119 150 119 150 226 c 2,35,-1
 150 474 l 2,36,37
 150 578 150 578 144 619 c 128,-1,38
 138 660 138 660 126 670 c 0,39,40
 102 689 102 689 52 689 c 1,41,-1
 50 700 l 1,42,-1
 320 700 l 1,43,-1
 318 689 l 1,44,45
 268 689 268 689 245 670 c 0,46,47
 220 649 220 649 220 474 c 2,48,-1
 220 362 l 1,49,-1
 625 362 l 1,50,-1
 625 474 l 2,51,52
 625 623 625 623 610 655 c 0,53,54
 605 667 605 667 592.5 676 c 128,-1,55
 580 685 580 685 565.5 687 c 128,-1,56
 551 689 551 689 526 689 c 1,57,-1
 524 700 l 1,58,-1
 794 700 l 1,59,-1
 792 689 l 1,60,61
 768 689 768 689 753.5 687 c 128,-1,62
 739 685 739 685 727 676 c 128,-1,63
 715 667 715 667 709.5 655 c 128,-1,64
 704 643 704 643 700 616 c 0,65,66
 695 572 695 572 695 474 c 2,0,-1
EndSplineSet
EndChar

StartChar: I
Encoding: 73 73 44
Width: 370
GlyphClass: 2
Flags: W
LayerCount: 2
Fore
SplineSet
220 474 m 2,0,-1
 220 226 l 2,1,2
 220 119 220 119 226.5 80 c 128,-1,3
 233 41 233 41 245 31 c 0,4,5
 268 12 268 12 318 12 c 1,6,-1
 320 0 l 1,7,-1
 50 0 l 1,8,-1
 52 12 l 1,9,10
 77 12 77 12 91 14 c 128,-1,11
 105 16 105 16 117.5 25 c 128,-1,12
 130 34 130 34 135.5 45.5 c 128,-1,13
 141 57 141 57 145 84 c 0,14,15
 150 119 150 119 150 226 c 2,16,-1
 150 474 l 2,17,18
 150 578 150 578 144 619 c 128,-1,19
 138 660 138 660 126 670 c 0,20,21
 102 689 102 689 52 689 c 1,22,-1
 50 700 l 1,23,-1
 320 700 l 1,24,-1
 318 689 l 1,25,26
 268 689 268 689 245 670 c 0,27,28
 220 649 220 649 220 474 c 2,0,-1
EndSplineSet
EndChar

StartChar: J
Encoding: 74 74 45
Width: 464
GlyphClass: 2
Flags: W
LayerCount: 2
Fore
SplineSet
152 -10 m 0,0,1
 89 -10 89 -10 44.5 27.5 c 128,-1,2
 0 65 0 65 0 104 c 0,3,4
 0 123 0 123 11 135 c 128,-1,5
 22 147 22 147 43 147 c 128,-1,6
 64 147 64 147 74 126 c 128,-1,7
 84 105 84 105 85 80 c 128,-1,8
 86 55 86 55 102.5 34 c 128,-1,9
 119 13 119 13 156 13 c 0,10,11
 259 13 259 13 259 172 c 2,12,-1
 259 474 l 2,13,14
 259 623 259 623 244 655 c 1,15,16
 232 683 232 683 200 687 c 0,17,18
 186 689 186 689 162 689 c 1,19,-1
 160 700 l 1,20,-1
 429 700 l 1,21,-1
 427 689 l 1,22,23
 377 689 377 689 354 670 c 0,24,25
 329 649 329 649 329 474 c 2,26,-1
 329 219 l 2,27,28
 329 159 329 159 317 115 c 128,-1,29
 305 71 305 71 288.5 47.5 c 128,-1,30
 272 24 272 24 246 10.5 c 128,-1,31
 220 -3 220 -3 199.5 -6.5 c 128,-1,32
 179 -10 179 -10 152 -10 c 0,0,1
EndSplineSet
PairPos2: "'kern' Horizontal Kerning in Latin lookup 0 per glyph data 1" oe dx=0 dy=0 dh=-35 dv=0 dx=0 dy=0 dh=0 dv=0
PairPos2: "'kern' Horizontal Kerning in Latin lookup 0 per glyph data 1" udieresis dx=0 dy=0 dh=-45 dv=0 dx=0 dy=0 dh=0 dv=0
PairPos2: "'kern' Horizontal Kerning in Latin lookup 0 per glyph data 1" ucircumflex dx=0 dy=0 dh=-45 dv=0 dx=0 dy=0 dh=0 dv=0
PairPos2: "'kern' Horizontal Kerning in Latin lookup 0 per glyph data 1" uacute dx=0 dy=0 dh=-45 dv=0 dx=0 dy=0 dh=0 dv=0
PairPos2: "'kern' Horizontal Kerning in Latin lookup 0 per glyph data 1" ugrave dx=0 dy=0 dh=-45 dv=0 dx=0 dy=0 dh=0 dv=0
PairPos2: "'kern' Horizontal Kerning in Latin lookup 0 per glyph data 1" oslash dx=0 dy=0 dh=-35 dv=0 dx=0 dy=0 dh=0 dv=0
PairPos2: "'kern' Horizontal Kerning in Latin lookup 0 per glyph data 1" odieresis dx=0 dy=0 dh=-35 dv=0 dx=0 dy=0 dh=0 dv=0
PairPos2: "'kern' Horizontal Kerning in Latin lookup 0 per glyph data 1" otilde dx=0 dy=0 dh=-35 dv=0 dx=0 dy=0 dh=0 dv=0
PairPos2: "'kern' Horizontal Kerning in Latin lookup 0 per glyph data 1" ocircumflex dx=0 dy=0 dh=-35 dv=0 dx=0 dy=0 dh=0 dv=0
PairPos2: "'kern' Horizontal Kerning in Latin lookup 0 per glyph data 1" oacute dx=0 dy=0 dh=-35 dv=0 dx=0 dy=0 dh=0 dv=0
PairPos2: "'kern' Horizontal Kerning in Latin lookup 0 per glyph data 1" ograve dx=0 dy=0 dh=-35 dv=0 dx=0 dy=0 dh=0 dv=0
PairPos2: "'kern' Horizontal Kerning in Latin lookup 0 per glyph data 1" edieresis dx=0 dy=0 dh=-35 dv=0 dx=0 dy=0 dh=0 dv=0
PairPos2: "'kern' Horizontal Kerning in Latin lookup 0 per glyph data 1" ecircumflex dx=0 dy=0 dh=-35 dv=0 dx=0 dy=0 dh=0 dv=0
PairPos2: "'kern' Horizontal Kerning in Latin lookup 0 per glyph data 1" eacute dx=0 dy=0 dh=-35 dv=0 dx=0 dy=0 dh=0 dv=0
PairPos2: "'kern' Horizontal Kerning in Latin lookup 0 per glyph data 1" egrave dx=0 dy=0 dh=-35 dv=0 dx=0 dy=0 dh=0 dv=0
PairPos2: "'kern' Horizontal Kerning in Latin lookup 0 per glyph data 1" ccedilla dx=0 dy=0 dh=-35 dv=0 dx=0 dy=0 dh=0 dv=0
PairPos2: "'kern' Horizontal Kerning in Latin lookup 0 per glyph data 1" aring dx=0 dy=0 dh=-45 dv=0 dx=0 dy=0 dh=0 dv=0
PairPos2: "'kern' Horizontal Kerning in Latin lookup 0 per glyph data 1" adieresis dx=0 dy=0 dh=-45 dv=0 dx=0 dy=0 dh=0 dv=0
PairPos2: "'kern' Horizontal Kerning in Latin lookup 0 per glyph data 1" atilde dx=0 dy=0 dh=-45 dv=0 dx=0 dy=0 dh=0 dv=0
PairPos2: "'kern' Horizontal Kerning in Latin lookup 0 per glyph data 1" acircumflex dx=0 dy=0 dh=-45 dv=0 dx=0 dy=0 dh=0 dv=0
PairPos2: "'kern' Horizontal Kerning in Latin lookup 0 per glyph data 1" aacute dx=0 dy=0 dh=-45 dv=0 dx=0 dy=0 dh=0 dv=0
PairPos2: "'kern' Horizontal Kerning in Latin lookup 0 per glyph data 1" agrave dx=0 dy=0 dh=-45 dv=0 dx=0 dy=0 dh=0 dv=0
PairPos2: "'kern' Horizontal Kerning in Latin lookup 0 per glyph data 1" AE dx=0 dy=0 dh=-55 dv=0 dx=0 dy=0 dh=0 dv=0
PairPos2: "'kern' Horizontal Kerning in Latin lookup 0 per glyph data 1" Aring dx=0 dy=0 dh=-40 dv=0 dx=0 dy=0 dh=0 dv=0
PairPos2: "'kern' Horizontal Kerning in Latin lookup 0 per glyph data 1" Adieresis dx=0 dy=0 dh=-40 dv=0 dx=0 dy=0 dh=0 dv=0
PairPos2: "'kern' Horizontal Kerning in Latin lookup 0 per glyph data 1" Atilde dx=0 dy=0 dh=-40 dv=0 dx=0 dy=0 dh=0 dv=0
PairPos2: "'kern' Horizontal Kerning in Latin lookup 0 per glyph data 1" Acircumflex dx=0 dy=0 dh=-40 dv=0 dx=0 dy=0 dh=0 dv=0
PairPos2: "'kern' Horizontal Kerning in Latin lookup 0 per glyph data 1" Aacute dx=0 dy=0 dh=-40 dv=0 dx=0 dy=0 dh=0 dv=0
PairPos2: "'kern' Horizontal Kerning in Latin lookup 0 per glyph data 1" Agrave dx=0 dy=0 dh=-40 dv=0 dx=0 dy=0 dh=0 dv=0
PairPos2: "'kern' Horizontal Kerning in Latin lookup 0 per glyph data 1" u dx=0 dy=0 dh=-45 dv=0 dx=0 dy=0 dh=0 dv=0
PairPos2: "'kern' Horizontal Kerning in Latin lookup 0 per glyph data 1" q dx=0 dy=0 dh=-35 dv=0 dx=0 dy=0 dh=0 dv=0
PairPos2: "'kern' Horizontal Kerning in Latin lookup 0 per glyph data 1" o dx=0 dy=0 dh=-35 dv=0 dx=0 dy=0 dh=0 dv=0
PairPos2: "'kern' Horizontal Kerning in Latin lookup 0 per glyph data 1" g dx=0 dy=0 dh=-35 dv=0 dx=0 dy=0 dh=0 dv=0
PairPos2: "'kern' Horizontal Kerning in Latin lookup 0 per glyph data 1" e dx=0 dy=0 dh=-35 dv=0 dx=0 dy=0 dh=0 dv=0
PairPos2: "'kern' Horizontal Kerning in Latin lookup 0 per glyph data 1" d dx=0 dy=0 dh=-35 dv=0 dx=0 dy=0 dh=0 dv=0
PairPos2: "'kern' Horizontal Kerning in Latin lookup 0 per glyph data 1" c dx=0 dy=0 dh=-35 dv=0 dx=0 dy=0 dh=0 dv=0
PairPos2: "'kern' Horizontal Kerning in Latin lookup 0 per glyph data 1" a dx=0 dy=0 dh=-45 dv=0 dx=0 dy=0 dh=0 dv=0
PairPos2: "'kern' Horizontal Kerning in Latin lookup 0 per glyph data 1" A dx=0 dy=0 dh=-40 dv=0 dx=0 dy=0 dh=0 dv=0
EndChar

StartChar: K
Encoding: 75 75 46
Width: 668
GlyphClass: 2
Flags: W
LayerCount: 2
Fore
SplineSet
584 0 m 2,0,1
 533 0 533 0 456 119 c 0,2,3
 423 169 423 169 387.5 219 c 128,-1,4
 352 269 352 269 308 305 c 128,-1,5
 264 341 264 341 220 342 c 1,6,-1
 220 226 l 2,7,8
 220 76 220 76 234 46 c 0,9,10
 240 34 240 34 252 25 c 128,-1,11
 264 16 264 16 278.5 14 c 128,-1,12
 293 12 293 12 317 12 c 1,13,-1
 319 0 l 1,14,-1
 50 0 l 1,15,-1
 52 12 l 1,16,17
 102 12 102 12 125 31 c 0,18,19
 150 52 150 52 150 226 c 2,20,-1
 150 474 l 2,21,22
 150 581 150 581 143.5 620.5 c 128,-1,23
 137 660 137 660 125 670 c 0,24,25
 102 689 102 689 52 689 c 1,26,-1
 50 700 l 1,27,-1
 319 700 l 1,28,-1
 317 689 l 1,29,30
 293 689 293 689 278.5 687 c 128,-1,31
 264 685 264 685 252 676 c 128,-1,32
 240 667 240 667 234.5 655 c 128,-1,33
 229 643 229 643 226 616 c 0,34,35
 220 572 220 572 220 474 c 2,36,-1
 220 360 l 1,37,38
 263 367 263 367 322.5 416.5 c 128,-1,39
 382 466 382 466 427 534.5 c 128,-1,40
 472 603 472 603 472 656 c 0,41,42
 472 673 472 673 461.5 681 c 128,-1,43
 451 689 451 689 423 689 c 1,44,-1
 421 700 l 1,45,-1
 669 700 l 1,46,-1
 667 689 l 1,47,48
 562 689 562 689 510 616 c 0,49,50
 485 580 485 580 462 540.5 c 128,-1,51
 439 501 439 501 392.5 449.5 c 128,-1,52
 346 398 346 398 282 357 c 1,53,54
 379 351 379 351 440 282 c 1,55,56
 477 242 477 242 519.5 175 c 128,-1,57
 562 108 562 108 586 78 c 1,58,59
 642 12 642 12 721 12 c 1,60,-1
 723 0 l 1,61,-1
 584 0 l 2,0,1
EndSplineSet
EndChar

StartChar: L
Encoding: 76 76 47
Width: 554
GlyphClass: 2
Flags: W
LayerCount: 2
Fore
SplineSet
529 0 m 1,0,-1
 51 0 l 1,1,-1
 53 12 l 1,2,3
 77 12 77 12 91.5 14 c 128,-1,4
 106 16 106 16 118 25 c 128,-1,5
 130 34 130 34 135.5 45.5 c 128,-1,6
 141 57 141 57 145 84 c 0,7,8
 150 119 150 119 150 226 c 2,9,-1
 150 474 l 2,10,11
 150 623 150 623 136 655 c 0,12,13
 123 683 123 683 92 687 c 0,14,15
 77 689 77 689 53 689 c 1,16,-1
 51 700 l 1,17,-1
 320 700 l 1,18,-1
 318 689 l 1,19,20
 268 689 268 689 245 670 c 0,21,22
 220 649 220 649 220 474 c 2,23,-1
 220 211 l 2,24,25
 220 103 220 103 227 67.5 c 128,-1,26
 234 32 234 32 260 20 c 1,27,28
 518 20 518 20 518 143 c 1,29,-1
 529 145 l 1,30,-1
 529 0 l 1,0,-1
EndSplineSet
EndChar

StartChar: M
Encoding: 77 77 48
Width: 974
GlyphClass: 2
Flags: W
LayerCount: 2
Fore
SplineSet
824 474 m 2,0,-1
 824 226 l 2,1,2
 824 119 824 119 830.5 80 c 128,-1,3
 837 41 837 41 849 31 c 0,4,5
 872 12 872 12 922 12 c 1,6,-1
 924 0 l 1,7,-1
 656 0 l 1,8,-1
 658 12 l 1,9,10
 707 12 707 12 730 30 c 0,11,12
 749 45 749 45 752 128 c 0,13,14
 754 161 754 161 754 226 c 2,15,-1
 754 649 l 1,16,-1
 474 10 l 1,17,-1
 185 551 l 1,18,-1
 185 228 l 2,19,20
 185 128 185 128 194.5 83.5 c 128,-1,21
 204 39 204 39 225 25.5 c 128,-1,22
 246 12 246 12 295 12 c 1,23,-1
 297 0 l 1,24,-1
 51 0 l 1,25,-1
 53 12 l 1,26,27
 90 12 90 12 108.5 17.5 c 128,-1,28
 127 23 127 23 140 47 c 128,-1,29
 153 71 153 71 156.5 111 c 128,-1,30
 160 151 160 151 160 228 c 2,31,-1
 160 473 l 2,32,33
 160 550 160 550 156.5 590 c 128,-1,34
 153 630 153 630 140 654 c 128,-1,35
 127 678 127 678 108.5 683.5 c 128,-1,36
 90 689 90 689 53 689 c 1,37,-1
 51 700 l 1,38,-1
 185 700 l 1,39,-1
 494 117 l 1,40,-1
 749 700 l 1,41,-1
 924 700 l 1,42,-1
 922 689 l 1,43,44
 872 689 872 689 849 670 c 0,45,46
 824 649 824 649 824 474 c 2,0,-1
EndSplineSet
EndChar

StartChar: N
Encoding: 78 78 49
Width: 827
GlyphClass: 2
Flags: W
LayerCount: 2
Fore
SplineSet
677 475 m 2,0,-1
 677 -5 l 1,1,-1
 646 -5 l 1,2,-1
 175 590 l 1,3,-1
 175 228 l 2,4,5
 175 128 175 128 184 84 c 128,-1,6
 193 40 193 40 214 26 c 128,-1,7
 235 12 235 12 283 12 c 1,8,-1
 285 0 l 1,9,-1
 39 0 l 1,10,-1
 41 12 l 1,11,12
 89 12 89 12 110 26 c 128,-1,13
 131 40 131 40 140.5 84 c 128,-1,14
 150 128 150 128 150 228 c 2,15,-1
 150 475 l 2,16,17
 150 575 150 575 140.5 618.5 c 128,-1,18
 131 662 131 662 110.5 675.5 c 128,-1,19
 90 689 90 689 41 689 c 1,20,-1
 39 700 l 1,21,-1
 175 700 l 1,22,-1
 652 105 l 1,23,-1
 652 475 l 2,24,25
 652 574 652 574 642.5 618 c 128,-1,26
 633 662 633 662 612 675.5 c 128,-1,27
 591 689 591 689 542 689 c 1,28,-1
 540 700 l 1,29,-1
 788 700 l 1,30,-1
 786 689 l 1,31,32
 737 689 737 689 716 675.5 c 128,-1,33
 695 662 695 662 686 618 c 128,-1,34
 677 574 677 574 677 475 c 2,0,-1
EndSplineSet
EndChar

StartChar: O
Encoding: 79 79 50
Width: 772
GlyphClass: 2
Flags: W
LayerCount: 2
Fore
SplineSet
640.5 610.5 m 128,-1,1
 737 512 737 512 737 355.5 c 128,-1,2
 737 199 737 199 643.5 94.5 c 128,-1,3
 550 -10 550 -10 390 -10 c 128,-1,4
 230 -10 230 -10 132.5 95 c 128,-1,5
 35 200 35 200 35 356.5 c 128,-1,6
 35 513 35 513 128.5 611 c 128,-1,7
 222 709 222 709 383 709 c 128,-1,0
 544 709 544 709 640.5 610.5 c 128,-1,1
583.5 105.5 m 128,-1,9
 650 198 650 198 650 349 c 128,-1,10
 650 500 650 500 580 593 c 128,-1,11
 510 686 510 686 382.5 686 c 128,-1,12
 255 686 255 686 188.5 594 c 128,-1,13
 122 502 122 502 122 350.5 c 128,-1,14
 122 199 122 199 192 106 c 128,-1,15
 262 13 262 13 389.5 13 c 128,-1,8
 517 13 517 13 583.5 105.5 c 128,-1,9
EndSplineSet
EndChar

StartChar: P
Encoding: 80 80 51
Width: 597
GlyphClass: 2
Flags: W
LayerCount: 2
Fore
SplineSet
312 700 m 2,0,1
 577 700 577 700 577 498 c 0,2,3
 577 409 577 409 514.5 352 c 128,-1,4
 452 295 452 295 366 295 c 128,-1,5
 280 295 280 295 220 323 c 1,6,-1
 220 226 l 2,7,8
 220 119 220 119 226.5 80 c 128,-1,9
 233 41 233 41 245 31 c 0,10,11
 268 12 268 12 318 12 c 1,12,-1
 320 0 l 1,13,-1
 50 0 l 1,14,-1
 52 12 l 1,15,16
 102 12 102 12 125 31 c 0,17,18
 150 52 150 52 150 226 c 2,19,-1
 150 474 l 2,20,21
 150 581 150 581 143.5 620 c 128,-1,22
 137 659 137 659 125 669 c 0,23,24
 102 688 102 688 52 688 c 1,25,-1
 50 700 l 1,26,-1
 312 700 l 2,0,1
220 677 m 1,27,-1
 220 348 l 1,28,29
 272 320 272 320 342.5 320 c 128,-1,30
 413 320 413 320 456 364.5 c 128,-1,31
 499 409 499 409 499 498 c 0,32,33
 499 609 499 609 427 646 c 0,34,35
 368 677 368 677 285 677 c 2,36,-1
 220 677 l 1,27,-1
EndSplineSet
PairPos2: "'kern' Horizontal Kerning in Latin lookup 0 per glyph data 1" ellipsis dx=0 dy=0 dh=-133 dv=0 dx=0 dy=0 dh=0 dv=0
PairPos2: "'kern' Horizontal Kerning in Latin lookup 0 per glyph data 1" quotedblbase dx=0 dy=0 dh=-133 dv=0 dx=0 dy=0 dh=0 dv=0
PairPos2: "'kern' Horizontal Kerning in Latin lookup 0 per glyph data 1" quotesinglbase dx=0 dy=0 dh=-133 dv=0 dx=0 dy=0 dh=0 dv=0
PairPos2: "'kern' Horizontal Kerning in Latin lookup 0 per glyph data 1" oe dx=0 dy=0 dh=-20 dv=0 dx=0 dy=0 dh=0 dv=0
PairPos2: "'kern' Horizontal Kerning in Latin lookup 0 per glyph data 1" oslash dx=0 dy=0 dh=-20 dv=0 dx=0 dy=0 dh=0 dv=0
PairPos2: "'kern' Horizontal Kerning in Latin lookup 0 per glyph data 1" odieresis dx=0 dy=0 dh=-20 dv=0 dx=0 dy=0 dh=0 dv=0
PairPos2: "'kern' Horizontal Kerning in Latin lookup 0 per glyph data 1" otilde dx=0 dy=0 dh=-20 dv=0 dx=0 dy=0 dh=0 dv=0
PairPos2: "'kern' Horizontal Kerning in Latin lookup 0 per glyph data 1" ocircumflex dx=0 dy=0 dh=-20 dv=0 dx=0 dy=0 dh=0 dv=0
PairPos2: "'kern' Horizontal Kerning in Latin lookup 0 per glyph data 1" oacute dx=0 dy=0 dh=-20 dv=0 dx=0 dy=0 dh=0 dv=0
PairPos2: "'kern' Horizontal Kerning in Latin lookup 0 per glyph data 1" ograve dx=0 dy=0 dh=-20 dv=0 dx=0 dy=0 dh=0 dv=0
PairPos2: "'kern' Horizontal Kerning in Latin lookup 0 per glyph data 1" edieresis dx=0 dy=0 dh=-20 dv=0 dx=0 dy=0 dh=0 dv=0
PairPos2: "'kern' Horizontal Kerning in Latin lookup 0 per glyph data 1" ecircumflex dx=0 dy=0 dh=-20 dv=0 dx=0 dy=0 dh=0 dv=0
PairPos2: "'kern' Horizontal Kerning in Latin lookup 0 per glyph data 1" eacute dx=0 dy=0 dh=-20 dv=0 dx=0 dy=0 dh=0 dv=0
PairPos2: "'kern' Horizontal Kerning in Latin lookup 0 per glyph data 1" egrave dx=0 dy=0 dh=-20 dv=0 dx=0 dy=0 dh=0 dv=0
PairPos2: "'kern' Horizontal Kerning in Latin lookup 0 per glyph data 1" ccedilla dx=0 dy=0 dh=-20 dv=0 dx=0 dy=0 dh=0 dv=0
PairPos2: "'kern' Horizontal Kerning in Latin lookup 0 per glyph data 1" aring dx=0 dy=0 dh=-20 dv=0 dx=0 dy=0 dh=0 dv=0
PairPos2: "'kern' Horizontal Kerning in Latin lookup 0 per glyph data 1" adieresis dx=0 dy=0 dh=-20 dv=0 dx=0 dy=0 dh=0 dv=0
PairPos2: "'kern' Horizontal Kerning in Latin lookup 0 per glyph data 1" atilde dx=0 dy=0 dh=-20 dv=0 dx=0 dy=0 dh=0 dv=0
PairPos2: "'kern' Horizontal Kerning in Latin lookup 0 per glyph data 1" acircumflex dx=0 dy=0 dh=-20 dv=0 dx=0 dy=0 dh=0 dv=0
PairPos2: "'kern' Horizontal Kerning in Latin lookup 0 per glyph data 1" aacute dx=0 dy=0 dh=-20 dv=0 dx=0 dy=0 dh=0 dv=0
PairPos2: "'kern' Horizontal Kerning in Latin lookup 0 per glyph data 1" agrave dx=0 dy=0 dh=-20 dv=0 dx=0 dy=0 dh=0 dv=0
PairPos2: "'kern' Horizontal Kerning in Latin lookup 0 per glyph data 1" AE dx=0 dy=0 dh=-60 dv=0 dx=0 dy=0 dh=0 dv=0
PairPos2: "'kern' Horizontal Kerning in Latin lookup 0 per glyph data 1" Aring dx=0 dy=0 dh=-35 dv=0 dx=0 dy=0 dh=0 dv=0
PairPos2: "'kern' Horizontal Kerning in Latin lookup 0 per glyph data 1" Adieresis dx=0 dy=0 dh=-35 dv=0 dx=0 dy=0 dh=0 dv=0
PairPos2: "'kern' Horizontal Kerning in Latin lookup 0 per glyph data 1" Atilde dx=0 dy=0 dh=-35 dv=0 dx=0 dy=0 dh=0 dv=0
PairPos2: "'kern' Horizontal Kerning in Latin lookup 0 per glyph data 1" Acircumflex dx=0 dy=0 dh=-35 dv=0 dx=0 dy=0 dh=0 dv=0
PairPos2: "'kern' Horizontal Kerning in Latin lookup 0 per glyph data 1" Aacute dx=0 dy=0 dh=-35 dv=0 dx=0 dy=0 dh=0 dv=0
PairPos2: "'kern' Horizontal Kerning in Latin lookup 0 per glyph data 1" Agrave dx=0 dy=0 dh=-35 dv=0 dx=0 dy=0 dh=0 dv=0
PairPos2: "'kern' Horizontal Kerning in Latin lookup 0 per glyph data 1" q dx=0 dy=0 dh=-20 dv=0 dx=0 dy=0 dh=0 dv=0
PairPos2: "'kern' Horizontal Kerning in Latin lookup 0 per glyph data 1" o dx=0 dy=0 dh=-20 dv=0 dx=0 dy=0 dh=0 dv=0
PairPos2: "'kern' Horizontal Kerning in Latin lookup 0 per glyph data 1" g dx=0 dy=0 dh=-20 dv=0 dx=0 dy=0 dh=0 dv=0
PairPos2: "'kern' Horizontal Kerning in Latin lookup 0 per glyph data 1" e dx=0 dy=0 dh=-20 dv=0 dx=0 dy=0 dh=0 dv=0
PairPos2: "'kern' Horizontal Kerning in Latin lookup 0 per glyph data 1" d dx=0 dy=0 dh=-20 dv=0 dx=0 dy=0 dh=0 dv=0
PairPos2: "'kern' Horizontal Kerning in Latin lookup 0 per glyph data 1" c dx=0 dy=0 dh=-20 dv=0 dx=0 dy=0 dh=0 dv=0
PairPos2: "'kern' Horizontal Kerning in Latin lookup 0 per glyph data 1" a dx=0 dy=0 dh=-20 dv=0 dx=0 dy=0 dh=0 dv=0
PairPos2: "'kern' Horizontal Kerning in Latin lookup 0 per glyph data 1" J dx=0 dy=0 dh=-55 dv=0 dx=0 dy=0 dh=0 dv=0
PairPos2: "'kern' Horizontal Kerning in Latin lookup 0 per glyph data 1" A dx=0 dy=0 dh=-35 dv=0 dx=0 dy=0 dh=0 dv=0
PairPos2: "'kern' Horizontal Kerning in Latin lookup 0 per glyph data 1" period dx=0 dy=0 dh=-133 dv=0 dx=0 dy=0 dh=0 dv=0
PairPos2: "'kern' Horizontal Kerning in Latin lookup 0 per glyph data 1" comma dx=0 dy=0 dh=-133 dv=0 dx=0 dy=0 dh=0 dv=0
EndChar

StartChar: Q
Encoding: 81 81 52
Width: 772
GlyphClass: 2
Flags: W
LayerCount: 2
Fore
SplineSet
640.5 610.5 m 128,-1,1
 737 512 737 512 737 363.5 c 128,-1,2
 737 215 737 215 660.5 114.5 c 128,-1,3
 584 14 584 14 450 -5 c 1,4,5
 480 -12 480 -12 557.5 -47 c 128,-1,6
 635 -82 635 -82 699 -82 c 128,-1,7
 763 -82 763 -82 822 -42 c 1,8,-1
 834 -55 l 1,9,10
 800 -92 800 -92 760.5 -113.5 c 128,-1,11
 721 -135 721 -135 667.5 -135 c 128,-1,12
 614 -135 614 -135 555.5 -108 c 128,-1,13
 497 -81 497 -81 436 -54 c 128,-1,14
 375 -27 375 -27 335 -27 c 128,-1,15
 295 -27 295 -27 262 -38 c 1,16,-1
 257 -18 l 1,17,18
 276 -9 276 -9 320 -4 c 1,19,20
 189 19 189 19 112 118.5 c 128,-1,21
 35 218 35 218 35 365.5 c 128,-1,22
 35 513 35 513 128.5 611 c 128,-1,23
 222 709 222 709 383 709 c 128,-1,0
 544 709 544 709 640.5 610.5 c 128,-1,1
583.5 105.5 m 128,-1,25
 650 198 650 198 650 349 c 128,-1,26
 650 500 650 500 580 593 c 128,-1,27
 510 686 510 686 382.5 686 c 128,-1,28
 255 686 255 686 188.5 594 c 128,-1,29
 122 502 122 502 122 350.5 c 128,-1,30
 122 199 122 199 192 106 c 128,-1,31
 262 13 262 13 389.5 13 c 128,-1,24
 517 13 517 13 583.5 105.5 c 128,-1,25
EndSplineSet
EndChar

StartChar: R
Encoding: 82 82 53
Width: 650
GlyphClass: 2
Flags: W
LayerCount: 2
Fore
SplineSet
561 0 m 2,0,1
 536 0 536 0 511.5 25.5 c 128,-1,2
 487 51 487 51 467.5 89 c 128,-1,3
 448 127 448 127 422 171.5 c 128,-1,4
 396 216 396 216 370 255 c 128,-1,5
 344 294 344 294 304 321 c 128,-1,6
 264 348 264 348 219 350 c 1,7,-1
 219 226 l 2,8,9
 219 118 219 118 225.5 79.5 c 128,-1,10
 232 41 232 41 244 31 c 0,11,12
 268 12 268 12 318 12 c 1,13,-1
 320 0 l 1,14,-1
 52 0 l 1,15,-1
 54 12 l 1,16,17
 103 12 103 12 126 30 c 0,18,19
 145 45 145 45 148 128 c 0,20,21
 150 161 150 161 150 226 c 2,22,-1
 150 479 l 2,23,24
 150 590 150 590 144 626 c 128,-1,25
 138 662 138 662 126 671 c 0,26,27
 103 688 103 688 54 688 c 1,28,-1
 52 700 l 1,29,-1
 284 700 l 2,30,31
 536 700 536 700 536 530 c 0,32,33
 536 457 536 457 484.5 407.5 c 128,-1,34
 433 358 433 358 360 350 c 1,35,36
 433 307 433 307 495 192 c 0,37,38
 519 147 519 147 546 106 c 1,39,40
 605 12 605 12 698 12 c 1,41,-1
 700 0 l 1,42,-1
 561 0 l 2,0,1
219 677 m 1,43,-1
 219 370 l 1,44,-1
 282 370 l 2,45,46
 358 370 358 370 408 409 c 128,-1,47
 458 448 458 448 458 525 c 0,48,49
 458 677 458 677 284 677 c 2,50,-1
 219 677 l 1,43,-1
EndSplineSet
EndChar

StartChar: S
Encoding: 83 83 54
Width: 525
GlyphClass: 2
Flags: W
LayerCount: 2
Fore
SplineSet
129.5 64 m 128,-1,1
 177 13 177 13 246 13 c 128,-1,2
 315 13 315 13 359 46.5 c 128,-1,3
 403 80 403 80 403 152 c 0,4,5
 403 217 403 217 334 268 c 0,6,7
 304 290 304 290 267 311.5 c 128,-1,8
 230 333 230 333 193 356 c 128,-1,9
 156 379 156 379 126 404 c 0,10,11
 57 462 57 462 57 539.5 c 128,-1,12
 57 617 57 617 113.5 663 c 128,-1,13
 170 709 170 709 263.5 709 c 128,-1,14
 357 709 357 709 437 668 c 1,15,16
 437 618 437 618 422 496 c 1,17,-1
 407 500 l 1,18,19
 407 594 407 594 361 640.5 c 128,-1,20
 315 687 315 687 255.5 687 c 128,-1,21
 196 687 196 687 160 652.5 c 128,-1,22
 124 618 124 618 124 571 c 128,-1,23
 124 524 124 524 149.5 490.5 c 128,-1,24
 175 457 175 457 213.5 435 c 128,-1,25
 252 413 252 413 297 386.5 c 128,-1,26
 342 360 342 360 380.5 334.5 c 128,-1,27
 419 309 419 309 444.5 268 c 128,-1,28
 470 227 470 227 470 176 c 0,29,30
 470 84 470 84 404.5 37 c 128,-1,31
 339 -10 339 -10 247 -10 c 0,32,33
 196 -10 196 -10 142.5 6 c 128,-1,34
 89 22 89 22 55 53 c 1,35,36
 55 117 55 117 67 215 c 1,37,-1
 82 212 l 1,38,0
 82 115 82 115 129.5 64 c 128,-1,1
EndSplineSet
EndChar

StartChar: T
Encoding: 84 84 55
Width: 606
GlyphClass: 2
Flags: W
LayerCount: 2
Fore
SplineSet
15 700 m 1,0,-1
 591 700 l 1,1,-1
 591 556 l 1,2,-1
 581 558 l 1,3,4
 581 680 581 680 339 680 c 1,5,-1
 339 226 l 2,6,7
 339 78 339 78 356 46 c 0,8,9
 362 34 362 34 377 25 c 128,-1,10
 392 16 392 16 409 14 c 128,-1,11
 426 12 426 12 456 12 c 1,12,-1
 458 0 l 1,13,-1
 150 0 l 1,14,-1
 152 12 l 1,15,16
 182 12 182 12 199.5 13.5 c 128,-1,17
 217 15 217 15 231.5 25 c 128,-1,18
 246 35 246 35 252.5 46 c 128,-1,19
 259 57 259 57 264 85 c 0,20,21
 269 119 269 119 269 226 c 2,22,-1
 269 680 l 1,23,24
 27 680 27 680 27 558 c 1,25,-1
 15 556 l 1,26,-1
 15 700 l 1,0,-1
EndSplineSet
EndChar

StartChar: U
Encoding: 85 85 56
Width: 792
GlyphClass: 2
Flags: W
LayerCount: 2
Fore
SplineSet
662 473 m 2,0,-1
 662 277 l 2,1,2
 662 210 662 210 645.5 158 c 128,-1,3
 629 106 629 106 603 75 c 128,-1,4
 577 44 577 44 541 24 c 0,5,6
 480 -10 480 -10 401 -10 c 0,7,8
 130 -10 130 -10 130 267 c 2,9,-1
 130 474 l 2,10,11
 130 581 130 581 123.5 620 c 128,-1,12
 117 659 117 659 105 669 c 0,13,14
 82 688 82 688 32 688 c 1,15,-1
 30 700 l 1,16,-1
 299 700 l 1,17,-1
 297 688 l 1,18,19
 273 688 273 688 258.5 686 c 128,-1,20
 244 684 244 684 232 675 c 128,-1,21
 220 666 220 666 214.5 654.5 c 128,-1,22
 209 643 209 643 205 616 c 0,23,24
 200 581 200 581 200 474 c 2,25,-1
 200 262 l 2,26,27
 200 134 200 134 257.5 76.5 c 128,-1,28
 315 19 315 19 412 19 c 128,-1,29
 509 19 509 19 573 81.5 c 128,-1,30
 637 144 637 144 637 275 c 2,31,-1
 637 473 l 2,32,33
 637 573 637 573 628 617 c 128,-1,34
 619 661 619 661 598.5 674.5 c 128,-1,35
 578 688 578 688 529 688 c 1,36,-1
 527 700 l 1,37,-1
 773 700 l 1,38,-1
 771 688 l 1,39,40
 722 688 722 688 701.5 674.5 c 128,-1,41
 681 661 681 661 671.5 617 c 128,-1,42
 662 573 662 573 662 473 c 2,0,-1
EndSplineSet
EndChar

StartChar: V
Encoding: 86 86 57
Width: 777
GlyphClass: 2
Flags: W
LayerCount: 2
Fore
SplineSet
206.5 629.5 m 128,-1,1
 209 620 209 620 210.5 614 c 128,-1,2
 212 608 212 608 215 597.5 c 128,-1,3
 218 587 218 587 220.5 579.5 c 128,-1,4
 223 572 223 572 228 558 c 128,-1,5
 233 544 233 544 236.5 535 c 128,-1,6
 240 526 240 526 246.5 508 c 128,-1,7
 253 490 253 490 257 479 c 2,8,-1
 413 54 l 1,9,-1
 561 479 l 2,10,11
 605 606 605 606 605 638 c 128,-1,12
 605 670 605 670 588 679 c 128,-1,13
 571 688 571 688 529 688 c 1,14,-1
 527 700 l 1,15,-1
 772 700 l 1,16,-1
 770 688 l 1,17,18
 732 688 732 688 712.5 683 c 128,-1,19
 693 678 693 678 671.5 656 c 128,-1,20
 650 634 650 634 632 594 c 128,-1,21
 614 554 614 554 588 479 c 2,22,-1
 420 -5 l 1,23,-1
 357 -5 l 1,24,-1
 180 479 l 1,25,26
 124 629 124 629 101 656 c 0,27,28
 92 667 92 667 76.5 676 c 128,-1,29
 61 685 61 685 46.5 686.5 c 128,-1,30
 32 688 32 688 7 688 c 1,31,-1
 5 700 l 1,32,-1
 275 700 l 1,33,-1
 273 688 l 1,34,35
 235 688 235 688 219.5 681 c 128,-1,36
 204 674 204 674 204 656.5 c 128,-1,0
 204 639 204 639 206.5 629.5 c 128,-1,1
EndSplineSet
EndChar

StartChar: W
Encoding: 87 87 58
Width: 1091
GlyphClass: 2
Flags: W
LayerCount: 2
Fore
SplineSet
222 593 m 128,-1,1
 233 559 233 559 236 548 c 0,2,3
 247 515 247 515 259 479 c 2,4,-1
 398 58 l 1,5,-1
 529 468 l 1,6,7
 474 628 474 628 452 656 c 0,8,9
 443 666 443 666 427.5 675.5 c 128,-1,10
 412 685 412 685 398 686.5 c 128,-1,11
 384 688 384 688 359 688 c 1,12,-1
 357 700 l 1,13,-1
 626 700 l 1,14,-1
 624 688 l 1,15,16
 585 688 585 688 570 680.5 c 128,-1,17
 555 673 555 673 555 643.5 c 128,-1,18
 555 614 555 614 601 479 c 2,19,-1
 742 58 l 1,20,-1
 874 479 l 2,21,22
 913 605 913 605 913 650 c 0,23,24
 913 673 913 673 894.5 680.5 c 128,-1,25
 876 688 876 688 837 688 c 1,26,-1
 835 700 l 1,27,-1
 1078 700 l 1,28,-1
 1077 688 l 1,29,30
 1027 688 1027 688 1003 675.5 c 128,-1,31
 979 663 979 663 957 621 c 128,-1,32
 935 579 935 579 903 479 c 2,33,-1
 750 -5 l 1,34,-1
 686 -5 l 1,35,-1
 541 427 l 1,36,-1
 407 -5 l 1,37,-1
 344 -5 l 1,38,-1
 182 479 l 2,39,40
 155 560 155 560 141.5 595.5 c 128,-1,41
 128 631 128 631 108.5 655.5 c 128,-1,42
 89 680 89 680 71 684 c 128,-1,43
 53 688 53 688 16 688 c 1,44,-1
 14 700 l 1,45,-1
 283 700 l 1,46,-1
 281 688 l 1,47,48
 242 688 242 688 226.5 681 c 128,-1,49
 211 674 211 674 211 650.5 c 128,-1,0
 211 627 211 627 222 593 c 128,-1,1
EndSplineSet
EndChar

StartChar: X
Encoding: 88 88 59
Width: 840
GlyphClass: 2
Flags: W
LayerCount: 2
Fore
SplineSet
576 608.5 m 128,-1,1
 599 645 599 645 599 662 c 128,-1,2
 599 679 599 679 585 683.5 c 128,-1,3
 571 688 571 688 536 688 c 1,4,-1
 534 700 l 1,5,-1
 787 700 l 1,6,-1
 785 688 l 1,7,8
 748 688 748 688 725 683 c 128,-1,9
 702 678 702 678 671 657 c 128,-1,10
 640 636 640 636 605.5 594 c 128,-1,11
 571 552 571 552 520 479 c 2,12,-1
 448 376 l 1,13,-1
 554 221 l 2,14,15
 622 121 622 121 658.5 79 c 128,-1,16
 695 37 695 37 723 24.5 c 128,-1,17
 751 12 751 12 800 12 c 1,18,-1
 802 0 l 1,19,-1
 534 0 l 1,20,-1
 536 12 l 1,21,22
 567 12 567 12 577.5 15.5 c 128,-1,23
 588 19 588 19 588 28.5 c 128,-1,24
 588 38 588 38 583.5 48 c 128,-1,25
 579 58 579 58 567.5 74.5 c 128,-1,26
 556 91 556 91 544 108 c 0,27,28
 506 161 506 161 466 221 c 2,29,-1
 403 314 l 1,30,-1
 340 221 l 2,31,32
 247 85 247 85 238 66 c 128,-1,33
 229 47 229 47 229 34.5 c 128,-1,34
 229 22 229 22 243.5 17 c 128,-1,35
 258 12 258 12 292 12 c 1,36,-1
 294 0 l 1,37,-1
 39 0 l 1,38,-1
 41 12 l 1,39,40
 80 12 80 12 103 17 c 128,-1,41
 126 22 126 22 157 43.5 c 128,-1,42
 188 65 188 65 222.5 106 c 128,-1,43
 257 147 257 147 308 221 c 2,44,-1
 388 336 l 1,45,-1
 292 479 l 2,46,47
 241 554 241 554 211 594 c 128,-1,48
 181 634 181 634 152 656 c 128,-1,49
 123 678 123 678 102 683 c 128,-1,50
 81 688 81 688 44 688 c 1,51,-1
 42 700 l 1,52,-1
 311 700 l 1,53,-1
 309 688 l 1,54,55
 276 688 276 688 266 685 c 128,-1,56
 256 682 256 682 256 672.5 c 128,-1,57
 256 663 256 663 260.5 653 c 128,-1,58
 265 643 265 643 276.5 625.5 c 128,-1,59
 288 608 288 608 300 591 c 128,-1,60
 312 574 312 574 335.5 541 c 128,-1,61
 359 508 359 508 379 479 c 2,62,-1
 432 400 l 1,63,-1
 488 479 l 2,64,0
 553 572 553 572 576 608.5 c 128,-1,1
EndSplineSet
EndChar

StartChar: Y
Encoding: 89 89 60
Width: 721
GlyphClass: 2
Flags: W
LayerCount: 2
Fore
SplineSet
410 226 m 2,0,1
 410 78 410 78 427 46 c 0,2,3
 433 34 433 34 448 25 c 128,-1,4
 463 16 463 16 480 14 c 128,-1,5
 497 12 497 12 527 12 c 1,6,-1
 529 0 l 1,7,-1
 221 0 l 1,8,-1
 223 12 l 1,9,10
 253 12 253 12 270.5 13.5 c 128,-1,11
 288 15 288 15 302.5 25 c 128,-1,12
 317 35 317 35 323.5 46 c 128,-1,13
 330 57 330 57 334 85 c 0,14,15
 340 119 340 119 340 226 c 2,16,-1
 340 289 l 1,17,-1
 228 478 l 2,18,19
 181 558 181 558 158 594.5 c 128,-1,20
 135 631 135 631 111 655 c 128,-1,21
 87 679 87 679 71.5 683.5 c 128,-1,22
 56 688 56 688 26 688 c 1,23,-1
 24 700 l 1,24,-1
 273 700 l 1,25,-1
 271 688 l 1,26,27
 238 688 238 688 224.5 683.5 c 128,-1,28
 211 679 211 679 211 663 c 0,29,30
 211 645 211 645 223.5 622 c 128,-1,31
 236 599 236 599 240 591 c 128,-1,32
 244 583 244 583 253 567.5 c 128,-1,33
 262 552 262 552 268 542 c 0,34,35
 295 494 295 494 305 478 c 2,36,-1
 395 323 l 1,37,-1
 472 478 l 1,38,39
 541 620 541 620 541 654 c 0,40,41
 541 676 541 676 526.5 682 c 128,-1,42
 512 688 512 688 474 688 c 1,43,-1
 472 700 l 1,44,-1
 696 700 l 1,45,-1
 694 688 l 1,46,47
 647 688 647 688 615 672 c 0,48,49
 591 660 591 660 547 577 c 0,50,51
 530 545 530 545 497 478 c 2,52,-1
 410 300 l 1,53,-1
 410 226 l 2,0,1
EndSplineSet
EndChar

StartChar: Z
Encoding: 90 90 61
Width: 673
GlyphClass: 2
Flags: W
LayerCount: 2
Fore
SplineSet
93 700 m 1,0,-1
 610 700 l 1,1,-1
 610 672 l 1,2,-1
 136 23 l 1,3,-1
 296 23 l 2,4,5
 447 23 447 23 516 46 c 0,6,7
 556 59 556 59 574 82.5 c 128,-1,8
 592 106 592 106 592 143 c 1,9,-1
 603 145 l 1,10,-1
 603 0 l 1,11,-1
 56 0 l 1,12,-1
 56 32 l 1,13,-1
 520 677 l 1,14,15
 299 677 299 677 224 659 c 0,16,17
 142 639 142 639 118 605 c 0,18,19
 105 585 105 585 105 558 c 1,20,-1
 93 556 l 1,21,-1
 93 700 l 1,0,-1
EndSplineSet
EndChar

StartChar: bracketleft
Encoding: 91 91 62
Width: 247
GlyphClass: 2
Flags: W
LayerCount: 2
Fore
SplineSet
75 -93 m 1,0,-1
 75 732 l 1,1,-1
 222 732 l 1,2,-1
 222 710 l 1,3,-1
 149 710 l 1,4,-1
 149 -71 l 1,5,-1
 222 -71 l 1,6,-1
 222 -93 l 1,7,-1
 75 -93 l 1,0,-1
EndSplineSet
EndChar

StartChar: backslash
Encoding: 92 92 63
Width: 329
GlyphClass: 2
Flags: W
LayerCount: 2
Fore
SplineSet
76 670 m 1,0,-1
 288 -85 l 1,1,-1
 227 -85 l 1,2,-1
 15 670 l 1,3,-1
 76 670 l 1,0,-1
EndSplineSet
EndChar

StartChar: bracketright
Encoding: 93 93 64
Width: 247
GlyphClass: 2
Flags: W
LayerCount: 2
Fore
SplineSet
172 732 m 1,0,-1
 172 -93 l 1,1,-1
 25 -93 l 1,2,-1
 25 -71 l 1,3,-1
 98 -71 l 1,4,-1
 98 710 l 1,5,-1
 25 710 l 1,6,-1
 25 732 l 1,7,-1
 172 732 l 1,0,-1
EndSplineSet
EndChar

StartChar: asciicircum
Encoding: 94 94 65
Width: 550
GlyphClass: 2
Flags: W
LayerCount: 2
Fore
SplineSet
251 700 m 1,0,-1
 299 700 l 1,1,-1
 419 496 l 1,2,-1
 371 496 l 1,3,-1
 275 663 l 1,4,-1
 179 496 l 1,5,-1
 131 496 l 1,6,-1
 251 700 l 1,0,-1
EndSplineSet
EndChar

StartChar: underscore
Encoding: 95 95 66
Width: 482
GlyphClass: 2
Flags: W
LayerCount: 2
Fore
SplineSet
25 -98 m 1,0,-1
 25 -63 l 1,1,-1
 457 -63 l 1,2,-1
 457 -98 l 1,3,-1
 25 -98 l 1,0,-1
EndSplineSet
EndChar

StartChar: grave
Encoding: 96 96 67
Width: 321
GlyphClass: 2
Flags: W
LayerCount: 2
Fore
SplineSet
49 719 m 128,-1,1
 59 729 59 729 76.5 729 c 128,-1,2
 94 729 94 729 117 709 c 2,3,-1
 251 587 l 1,4,-1
 236 564 l 1,5,-1
 74 647 l 2,6,7
 39 666 39 666 39 694 c 0,8,0
 39 709 39 709 49 719 c 128,-1,1
EndSplineSet
EndChar

StartChar: a
Encoding: 97 97 68
Width: 528
GlyphClass: 2
Flags: W
LayerCount: 2
Fore
SplineSet
412 323 m 2,0,-1
 412 222 l 2,1,2
 412 111 412 111 419 76.5 c 128,-1,3
 426 42 426 42 453 42 c 0,4,5
 470 42 470 42 498 56 c 1,6,-1
 503 46 l 1,7,8
 495 40 495 40 482 31.5 c 128,-1,9
 469 23 469 23 429 9 c 128,-1,10
 389 -5 389 -5 352 -5 c 1,11,12
 342 37 342 37 342 129 c 1,13,14
 320 67 320 67 284.5 28.5 c 128,-1,15
 249 -10 249 -10 186 -10 c 128,-1,16
 123 -10 123 -10 86.5 23.5 c 128,-1,17
 50 57 50 57 50 115 c 0,18,19
 50 276 50 276 342 277 c 1,20,-1
 342 313 l 2,21,22
 342 385 342 385 321 423 c 128,-1,23
 300 461 300 461 243 461 c 0,24,25
 211 461 211 461 191 445 c 128,-1,26
 171 429 171 429 164 410 c 0,27,28
 147 358 147 358 113.5 358 c 128,-1,29
 80 358 80 358 80 395.5 c 128,-1,30
 80 433 80 433 130 458 c 128,-1,31
 180 483 180 483 251 483 c 128,-1,32
 322 483 322 483 367 442.5 c 128,-1,33
 412 402 412 402 412 323 c 2,0,-1
145 46.5 m 128,-1,35
 164 21 164 21 205.5 21 c 128,-1,36
 247 21 247 21 281 61.5 c 128,-1,37
 315 102 315 102 327.5 151.5 c 128,-1,38
 340 201 340 201 342 254 c 1,39,40
 231 253 231 253 178.5 213 c 128,-1,41
 126 173 126 173 126 111 c 0,42,34
 126 72 126 72 145 46.5 c 128,-1,35
EndSplineSet
EndChar

StartChar: b
Encoding: 98 98 69
Width: 556
GlyphClass: 2
Flags: W
LayerCount: 2
Fore
SplineSet
329 483 m 0,0,1
 394 483 394 483 438 444 c 0,2,3
 516 375 516 375 516 235 c 0,4,5
 516 128 516 128 448.5 59 c 128,-1,6
 381 -10 381 -10 266 -10 c 0,7,8
 219 -10 219 -10 179 -3 c 128,-1,9
 139 4 139 4 122 10 c 1,10,-1
 106 17 l 1,11,-1
 106 558 l 2,12,13
 106 667 106 667 94 690 c 0,14,15
 90 697 90 697 79 703.5 c 128,-1,16
 68 710 68 710 56 711 c 128,-1,17
 44 712 44 712 22 712 c 1,18,-1
 20 723 l 1,19,20
 92 735 92 735 176 735 c 1,21,-1
 176 352 l 1,22,23
 218 483 218 483 329 483 c 0,0,1
176 49 m 1,24,25
 214 19 214 19 267.5 19 c 128,-1,26
 321 19 321 19 355 40 c 128,-1,27
 389 61 389 61 406.5 94.5 c 128,-1,28
 424 128 424 128 432 163.5 c 128,-1,29
 440 199 440 199 440 235 c 128,-1,30
 440 271 440 271 434.5 305 c 128,-1,31
 429 339 429 339 416.5 374 c 128,-1,32
 404 409 404 409 377 430.5 c 128,-1,33
 350 452 350 452 308 452 c 128,-1,34
 266 452 266 452 233 408 c 128,-1,35
 200 364 200 364 188 316.5 c 128,-1,36
 176 269 176 269 176 233 c 2,37,-1
 176 49 l 1,24,25
EndSplineSet
EndChar

StartChar: c
Encoding: 99 99 70
Width: 450
GlyphClass: 2
Flags: W
LayerCount: 2
Fore
SplineSet
254 -10 m 0,0,1
 166 -10 166 -10 103 55 c 128,-1,2
 40 120 40 120 40 231.5 c 128,-1,3
 40 343 40 343 97.5 413 c 128,-1,4
 155 483 155 483 261 483 c 0,5,6
 327 483 327 483 376 461.5 c 128,-1,7
 425 440 425 440 425 402 c 0,8,9
 425 368 425 368 388 368 c 0,10,11
 369 368 369 368 356.5 383 c 128,-1,12
 344 398 344 398 337.5 415.5 c 128,-1,13
 331 433 331 433 312 448 c 128,-1,14
 293 463 293 463 262 463 c 0,15,16
 190 463 190 463 153 403 c 128,-1,17
 116 343 116 343 116 238.5 c 128,-1,18
 116 134 116 134 160 76.5 c 128,-1,19
 204 19 204 19 269 19 c 0,20,21
 368 19 368 19 410 99 c 1,22,-1
 425 91 l 1,23,24
 374 -10 374 -10 254 -10 c 0,0,1
EndSplineSet
EndChar

StartChar: d
Encoding: 100 100 71
Width: 562
GlyphClass: 2
Flags: W
LayerCount: 2
Fore
SplineSet
323.5 24.5 m 128,-1,1
 285 -10 285 -10 229.5 -10 c 128,-1,2
 174 -10 174 -10 137 12 c 128,-1,3
 100 34 100 34 80 70 c 0,4,5
 40 139 40 139 40 238 c 128,-1,6
 40 337 40 337 108 410 c 128,-1,7
 176 483 176 483 290 483 c 0,8,9
 340 483 340 483 381 471 c 1,10,-1
 381 566 l 2,11,12
 381 641 381 641 376 667.5 c 128,-1,13
 371 694 371 694 360 700 c 0,14,15
 340 712 340 712 297 712 c 1,16,-1
 295 723 l 1,17,18
 367 735 367 735 451 735 c 1,19,-1
 451 222 l 2,20,21
 451 111 451 111 458 76.5 c 128,-1,22
 465 42 465 42 492 42 c 0,23,24
 509 42 509 42 537 56 c 1,25,-1
 542 46 l 1,26,27
 534 40 534 40 521 31.5 c 128,-1,28
 508 23 508 23 468 9 c 128,-1,29
 428 -5 428 -5 391 -5 c 1,30,31
 378 49 378 49 378 111 c 1,32,0
 362 59 362 59 323.5 24.5 c 128,-1,1
177.5 41 m 128,-1,34
 203 21 203 21 239.5 21 c 128,-1,35
 276 21 276 21 305.5 46 c 128,-1,36
 335 71 335 71 350 110 c 1,37,38
 381 185 381 185 381 265 c 2,39,-1
 381 418 l 1,40,41
 338 452 338 452 287 452 c 128,-1,42
 236 452 236 452 202 430 c 128,-1,43
 168 408 168 408 150 372 c 0,44,45
 116 305 116 305 116 229 c 0,46,47
 116 156 116 156 140 94 c 0,48,33
 152 61 152 61 177.5 41 c 128,-1,34
EndSplineSet
EndChar

StartChar: e
Encoding: 101 101 72
Width: 494
GlyphClass: 2
Flags: W
LayerCount: 2
Fore
SplineSet
444 253 m 1,0,-1
 116 253 l 1,1,-1
 116 236 l 2,2,3
 116 130 116 130 161 74.5 c 128,-1,4
 206 19 206 19 273 19 c 0,5,6
 373 19 373 19 417 99 c 1,7,-1
 432 91 l 1,8,9
 380 -10 380 -10 258 -10 c 0,10,11
 168 -10 168 -10 104 55 c 128,-1,12
 40 120 40 120 40 230.5 c 128,-1,13
 40 341 40 341 96.5 412 c 128,-1,14
 153 483 153 483 247.5 483 c 128,-1,15
 342 483 342 483 393 418.5 c 128,-1,16
 444 354 444 354 444 253 c 1,0,-1
250 463 m 0,17,18
 192 463 192 463 158.5 413.5 c 128,-1,19
 125 364 125 364 118 282 c 1,20,-1
 367 282 l 1,21,22
 360 463 360 463 250 463 c 0,17,18
EndSplineSet
EndChar

StartChar: f
Encoding: 102 102 73
Width: 356
GlyphClass: 2
Flags: W
LayerCount: 2
Fore
SplineSet
204 451 m 1,0,-1
 204 226 l 2,1,2
 204 119 204 119 210.5 80 c 128,-1,3
 217 41 217 41 229 31 c 0,4,5
 252 12 252 12 302 12 c 1,6,-1
 304 0 l 1,7,-1
 35 0 l 1,8,-1
 37 12 l 1,9,10
 61 12 61 12 75.5 14 c 128,-1,11
 90 16 90 16 102 25 c 128,-1,12
 114 34 114 34 119.5 45.5 c 128,-1,13
 125 57 125 57 129 84 c 0,14,15
 134 119 134 119 134 226 c 2,16,-1
 134 451 l 1,17,-1
 42 451 l 1,18,-1
 42 473 l 1,19,-1
 134 473 l 1,20,21
 134 662 134 662 206 717 c 0,22,23
 244 745 244 745 297 745 c 128,-1,24
 350 745 350 745 398 717 c 128,-1,25
 446 689 446 689 446 653 c 0,26,27
 446 638 446 638 434.5 627 c 128,-1,28
 423 616 423 616 404 616 c 128,-1,29
 385 616 385 616 371 632 c 128,-1,30
 357 648 357 648 350.5 666.5 c 128,-1,31
 344 685 344 685 328 701 c 128,-1,32
 312 717 312 717 288 717 c 0,33,34
 237 717 237 717 220.5 669.5 c 128,-1,35
 204 622 204 622 204 520 c 2,36,-1
 204 473 l 1,37,-1
 336 473 l 1,38,-1
 336 451 l 1,39,-1
 204 451 l 1,0,-1
EndSplineSet
PairPos2: "'kern' Horizontal Kerning in Latin lookup 0 per glyph data 1" quotedblright dx=0 dy=0 dh=140 dv=0 dx=0 dy=0 dh=0 dv=0
PairPos2: "'kern' Horizontal Kerning in Latin lookup 0 per glyph data 1" quotedblleft dx=0 dy=0 dh=140 dv=0 dx=0 dy=0 dh=0 dv=0
PairPos2: "'kern' Horizontal Kerning in Latin lookup 0 per glyph data 1" quoteright dx=0 dy=0 dh=140 dv=0 dx=0 dy=0 dh=0 dv=0
PairPos2: "'kern' Horizontal Kerning in Latin lookup 0 per glyph data 1" quoteleft dx=0 dy=0 dh=140 dv=0 dx=0 dy=0 dh=0 dv=0
PairPos2: "'kern' Horizontal Kerning in Latin lookup 0 per glyph data 1" odieresis dx=0 dy=0 dh=20 dv=0 dx=0 dy=0 dh=0 dv=0
PairPos2: "'kern' Horizontal Kerning in Latin lookup 0 per glyph data 1" registered dx=0 dy=0 dh=70 dv=0 dx=0 dy=0 dh=0 dv=0
PairPos2: "'kern' Horizontal Kerning in Latin lookup 0 per glyph data 1" copyright dx=0 dy=0 dh=70 dv=0 dx=0 dy=0 dh=0 dv=0
PairPos2: "'kern' Horizontal Kerning in Latin lookup 0 per glyph data 1" braceright dx=0 dy=0 dh=120 dv=0 dx=0 dy=0 dh=0 dv=0
PairPos2: "'kern' Horizontal Kerning in Latin lookup 0 per glyph data 1" bracketright dx=0 dy=0 dh=120 dv=0 dx=0 dy=0 dh=0 dv=0
PairPos2: "'kern' Horizontal Kerning in Latin lookup 0 per glyph data 1" question dx=0 dy=0 dh=100 dv=0 dx=0 dy=0 dh=0 dv=0
PairPos2: "'kern' Horizontal Kerning in Latin lookup 0 per glyph data 1" asterisk dx=0 dy=0 dh=100 dv=0 dx=0 dy=0 dh=0 dv=0
PairPos2: "'kern' Horizontal Kerning in Latin lookup 0 per glyph data 1" parenright dx=0 dy=0 dh=120 dv=0 dx=0 dy=0 dh=0 dv=0
PairPos2: "'kern' Horizontal Kerning in Latin lookup 0 per glyph data 1" quotesingle dx=0 dy=0 dh=140 dv=0 dx=0 dy=0 dh=0 dv=0
PairPos2: "'kern' Horizontal Kerning in Latin lookup 0 per glyph data 1" quotedbl dx=0 dy=0 dh=140 dv=0 dx=0 dy=0 dh=0 dv=0
PairPos2: "'kern' Horizontal Kerning in Latin lookup 0 per glyph data 1" exclam dx=0 dy=0 dh=100 dv=0 dx=0 dy=0 dh=0 dv=0
EndChar

StartChar: g
Encoding: 103 103 74
Width: 498
GlyphClass: 2
Flags: W
LayerCount: 2
Fore
SplineSet
394 494 m 1,0,-1
 388 545 l 1,1,2
 388 564 388 564 399.5 575 c 128,-1,3
 411 586 411 586 426 586 c 128,-1,4
 441 586 441 586 452.5 575 c 128,-1,5
 464 564 464 564 464 545 c 0,6,7
 464 489 464 489 381 424 c 1,8,9
 425 375 425 375 425 306.5 c 128,-1,10
 425 238 425 238 371 186 c 128,-1,11
 317 134 317 134 239 134 c 0,12,13
 184 134 184 134 141 160 c 1,14,15
 99 122 99 122 99 79 c 0,16,17
 99 50 99 50 120.5 32.5 c 128,-1,18
 142 15 142 15 186.5 15 c 128,-1,19
 231 15 231 15 261 14 c 128,-1,20
 291 13 291 13 332 10 c 128,-1,21
 373 7 373 7 395.5 -1 c 128,-1,22
 418 -9 418 -9 441 -22 c 0,23,24
 483 -46 483 -46 483 -105 c 0,25,26
 483 -177 483 -177 408.5 -230.5 c 128,-1,27
 334 -284 334 -284 216 -284 c 0,28,29
 126 -284 126 -284 70 -250.5 c 128,-1,30
 14 -217 14 -217 14 -162 c 0,31,32
 14 -123 14 -123 40 -87.5 c 128,-1,33
 66 -52 66 -52 107 -39 c 1,34,35
 49 -16 49 -16 49 51 c 0,36,37
 49 83 49 83 70 116.5 c 128,-1,38
 91 150 91 150 124 171 c 1,39,40
 53 225 53 225 53 305.5 c 128,-1,41
 53 386 53 386 107 434.5 c 128,-1,42
 161 483 161 483 238.5 483 c 128,-1,43
 316 483 316 483 369 436 c 1,44,45
 394 461 394 461 394 494 c 1,0,-1
84 -152 m 0,46,47
 84 -202 84 -202 123.5 -232 c 128,-1,48
 163 -262 163 -262 232.5 -262 c 128,-1,49
 302 -262 302 -262 357.5 -223 c 128,-1,50
 413 -184 413 -184 413 -130.5 c 128,-1,51
 413 -77 413 -77 357.5 -61 c 128,-1,52
 302 -45 302 -45 136 -45 c 1,53,54
 117 -56 117 -56 100.5 -86.5 c 128,-1,55
 84 -117 84 -117 84 -152 c 0,46,47
239 160 m 128,-1,57
 294 160 294 160 323 202.5 c 128,-1,58
 352 245 352 245 352 311.5 c 128,-1,59
 352 378 352 378 323 418 c 128,-1,60
 294 458 294 458 239 458 c 128,-1,61
 184 458 184 458 155 418 c 128,-1,62
 126 378 126 378 126 311.5 c 128,-1,63
 126 245 126 245 155 202.5 c 128,-1,56
 184 160 184 160 239 160 c 128,-1,57
EndSplineSet
EndChar

StartChar: h
Encoding: 104 104 75
Width: 625
GlyphClass: 2
Flags: W
LayerCount: 2
Fore
SplineSet
196 736 m 1,0,-1
 196 304 l 1,1,2
 205 376 205 376 246 429.5 c 128,-1,3
 287 483 287 483 355 483 c 0,4,5
 508 483 508 483 508 323 c 2,6,-1
 508 165 l 2,7,8
 508 61 508 61 521.5 36.5 c 128,-1,9
 535 12 535 12 593 12 c 1,10,-1
 595 0 l 1,11,-1
 352 0 l 1,12,-1
 354 12 l 1,13,14
 414 12 414 12 426 37 c 128,-1,15
 438 62 438 62 438 174 c 2,16,-1
 438 313 l 2,17,18
 438 382 438 382 416.5 417 c 128,-1,19
 395 452 395 452 348.5 452 c 128,-1,20
 302 452 302 452 271 420.5 c 128,-1,21
 240 389 240 389 225 341 c 0,22,23
 196 248 196 248 196 154 c 128,-1,24
 196 60 196 60 208.5 36 c 128,-1,25
 221 12 221 12 280 12 c 1,26,-1
 282 0 l 1,27,-1
 38 0 l 1,28,-1
 40 12 l 1,29,30
 100 12 100 12 113 36.5 c 128,-1,31
 126 61 126 61 126 167 c 2,32,-1
 126 500 l 2,33,34
 126 650 126 650 112 680 c 0,35,36
 106 692 106 692 93.5 701 c 128,-1,37
 81 710 81 710 66.5 712 c 128,-1,38
 52 714 52 714 27 714 c 1,39,-1
 25 725 l 1,40,41
 112 736 112 736 196 736 c 1,0,-1
EndSplineSet
EndChar

StartChar: i
Encoding: 105 105 76
Width: 317
GlyphClass: 2
Flags: W
LayerCount: 2
Fore
SplineSet
106 643 m 128,-1,1
 106 666 106 666 123 683 c 128,-1,2
 140 700 140 700 163 700 c 128,-1,3
 186 700 186 700 203 683 c 128,-1,4
 220 666 220 666 220 643 c 128,-1,5
 220 620 220 620 203 603 c 128,-1,6
 186 586 186 586 163 586 c 128,-1,7
 140 586 140 586 123 603 c 128,-1,0
 106 620 106 620 106 643 c 128,-1,1
201 483 m 1,8,-1
 201 165 l 2,9,10
 201 60 201 60 213.5 36 c 128,-1,11
 226 12 226 12 285 12 c 1,12,-1
 287 0 l 1,13,-1
 43 0 l 1,14,-1
 45 12 l 1,15,16
 105 12 105 12 118 36.5 c 128,-1,17
 131 61 131 61 131 167 c 2,18,-1
 131 237 l 2,19,20
 131 353 131 353 124.5 390.5 c 128,-1,21
 118 428 118 428 106 439 c 0,22,23
 82 461 82 461 32 461 c 1,24,-1
 30 472 l 1,25,26
 117 483 117 483 201 483 c 1,8,-1
EndSplineSet
EndChar

StartChar: j
Encoding: 106 106 77
Width: 283
GlyphClass: 2
Flags: W
LayerCount: 2
Fore
SplineSet
96 643 m 128,-1,1
 96 666 96 666 113 683 c 128,-1,2
 130 700 130 700 153 700 c 128,-1,3
 176 700 176 700 193 683 c 128,-1,4
 210 666 210 666 210 643 c 128,-1,5
 210 620 210 620 193 603 c 128,-1,6
 176 586 176 586 153 586 c 128,-1,7
 130 586 130 586 113 603 c 128,-1,0
 96 620 96 620 96 643 c 128,-1,1
191 483 m 1,8,-1
 191 32 l 2,9,10
 191 -106 191 -106 132 -195 c 128,-1,11
 73 -284 73 -284 -35 -284 c 0,12,13
 -64 -284 -64 -284 -83 -272.5 c 128,-1,14
 -102 -261 -102 -261 -102 -240.5 c 128,-1,15
 -102 -220 -102 -220 -88.5 -208.5 c 128,-1,16
 -75 -197 -75 -197 -59.5 -197 c 128,-1,17
 -44 -197 -44 -197 -16 -212.5 c 128,-1,18
 12 -228 12 -228 37 -228 c 0,19,20
 86 -228 86 -228 103.5 -181.5 c 128,-1,21
 121 -135 121 -135 121 -30 c 2,22,-1
 121 247 l 2,23,24
 121 397 121 397 106 428 c 0,25,26
 101 439 101 439 88.5 448 c 128,-1,27
 76 457 76 457 61.5 459 c 128,-1,28
 47 461 47 461 22 461 c 1,29,-1
 20 472 l 1,30,31
 107 483 107 483 191 483 c 1,8,-1
EndSplineSet
EndChar

StartChar: k
Encoding: 107 107 78
Width: 522
GlyphClass: 2
Flags: W
LayerCount: 2
Fore
SplineSet
452 0 m 2,0,1
 396 0 396 0 338 85 c 0,2,3
 314 121 314 121 290 157 c 0,4,5
 231 245 231 245 183 252 c 1,6,-1
 183 165 l 2,7,8
 183 61 183 61 196 36.5 c 128,-1,9
 209 12 209 12 267 12 c 1,10,-1
 269 0 l 1,11,-1
 25 0 l 1,12,-1
 27 12 l 1,13,14
 87 12 87 12 100 37.5 c 128,-1,15
 113 63 113 63 113 174 c 2,16,-1
 113 557 l 2,17,18
 113 635 113 635 108 664.5 c 128,-1,19
 103 694 103 694 92 700 c 0,20,21
 70 712 70 712 27 712 c 1,22,-1
 25 724 l 1,23,24
 100 735 100 735 183 735 c 1,25,-1
 183 269 l 1,26,27
 242 273 242 273 294 329.5 c 128,-1,28
 346 386 346 386 346 431 c 0,29,30
 346 448 346 448 337 455 c 128,-1,31
 328 462 328 462 307 462 c 1,32,-1
 305 473 l 1,33,-1
 518 473 l 1,34,-1
 516 462 l 1,35,36
 451 462 451 462 421 432 c 128,-1,37
 391 402 391 402 358 366 c 128,-1,38
 325 330 325 330 310 314 c 0,39,40
 270 273 270 273 227 262 c 1,41,42
 272 256 272 256 309 228 c 128,-1,43
 346 200 346 200 371 164.5 c 128,-1,44
 396 129 396 129 420 94 c 0,45,46
 478 12 478 12 550 12 c 1,47,-1
 552 0 l 1,48,-1
 452 0 l 2,0,1
EndSplineSet
EndChar

StartChar: l
Encoding: 108 108 79
Width: 300
GlyphClass: 2
Flags: W
LayerCount: 2
Fore
SplineSet
183 736 m 1,0,-1
 183 174 l 2,1,2
 183 63 183 63 196 37.5 c 128,-1,3
 209 12 209 12 268 12 c 1,4,-1
 270 0 l 1,5,-1
 25 0 l 1,6,-1
 27 12 l 1,7,8
 87 12 87 12 100 37 c 128,-1,9
 113 62 113 62 113 174 c 2,10,-1
 113 556 l 2,11,12
 113 667 113 667 101 690 c 0,13,14
 97 697 97 697 86 704 c 128,-1,15
 75 711 75 711 62.5 712 c 128,-1,16
 50 713 50 713 27 713 c 1,17,-1
 25 724 l 1,18,19
 100 736 100 736 183 736 c 1,0,-1
EndSplineSet
EndChar

StartChar: m
Encoding: 109 109 80
Width: 902
GlyphClass: 2
Flags: W
LayerCount: 2
Fore
SplineSet
539.5 429.5 m 128,-1,1
 577 483 577 483 644 483 c 128,-1,2
 711 483 711 483 748 442 c 128,-1,3
 785 401 785 401 785 323 c 2,4,-1
 785 165 l 2,5,6
 785 61 785 61 798.5 36.5 c 128,-1,7
 812 12 812 12 870 12 c 1,8,-1
 872 0 l 1,9,-1
 636 0 l 1,10,-1
 638 12 l 1,11,12
 693 12 693 12 704 37 c 128,-1,13
 715 62 715 62 715 174 c 2,14,-1
 715 313 l 2,15,16
 715 382 715 382 695.5 417 c 128,-1,17
 676 452 676 452 633 452 c 128,-1,18
 590 452 590 452 562 420.5 c 128,-1,19
 534 389 534 389 520 341 c 0,20,21
 493 248 493 248 493 154 c 128,-1,22
 493 60 493 60 505.5 36 c 128,-1,23
 518 12 518 12 577 12 c 1,24,-1
 579 0 l 1,25,-1
 344 0 l 1,26,-1
 346 12 l 1,27,28
 401 12 401 12 412 37 c 128,-1,29
 423 62 423 62 423 174 c 2,30,-1
 423 313 l 2,31,32
 423 382 423 382 403.5 417 c 128,-1,33
 384 452 384 452 341 452 c 128,-1,34
 298 452 298 452 270 420.5 c 128,-1,35
 242 389 242 389 228 341 c 0,36,37
 201 248 201 248 201 154 c 128,-1,38
 201 60 201 60 213.5 36 c 128,-1,39
 226 12 226 12 285 12 c 1,40,-1
 287 0 l 1,41,-1
 43 0 l 1,42,-1
 45 12 l 1,43,44
 105 12 105 12 118 36.5 c 128,-1,45
 131 61 131 61 131 167 c 2,46,-1
 131 247 l 2,47,48
 131 397 131 397 116 428 c 0,49,50
 111 439 111 439 98.5 448 c 128,-1,51
 86 457 86 457 71.5 459 c 128,-1,52
 57 461 57 461 32 461 c 1,53,-1
 30 472 l 1,54,55
 117 483 117 483 201 483 c 1,56,-1
 201 304 l 1,57,58
 210 376 210 376 247.5 429.5 c 128,-1,59
 285 483 285 483 352 483 c 0,60,61
 493 483 493 483 493 304 c 1,62,0
 502 376 502 376 539.5 429.5 c 128,-1,1
EndSplineSet
EndChar

StartChar: n
Encoding: 110 110 81
Width: 630
GlyphClass: 2
Flags: W
LayerCount: 2
Fore
SplineSet
201 483 m 1,0,-1
 201 304 l 1,1,2
 210 376 210 376 251 429.5 c 128,-1,3
 292 483 292 483 360 483 c 0,4,5
 513 483 513 483 513 323 c 2,6,-1
 513 165 l 2,7,8
 513 61 513 61 526.5 36.5 c 128,-1,9
 540 12 540 12 598 12 c 1,10,-1
 600 0 l 1,11,-1
 357 0 l 1,12,-1
 359 12 l 1,13,14
 419 12 419 12 431 37 c 128,-1,15
 443 62 443 62 443 174 c 2,16,-1
 443 313 l 2,17,18
 443 382 443 382 421.5 417 c 128,-1,19
 400 452 400 452 353.5 452 c 128,-1,20
 307 452 307 452 276 420.5 c 128,-1,21
 245 389 245 389 230 341 c 0,22,23
 201 248 201 248 201 154 c 128,-1,24
 201 60 201 60 213.5 36 c 128,-1,25
 226 12 226 12 285 12 c 1,26,-1
 287 0 l 1,27,-1
 43 0 l 1,28,-1
 45 12 l 1,29,30
 105 12 105 12 118 36.5 c 128,-1,31
 131 61 131 61 131 167 c 2,32,-1
 131 247 l 2,33,34
 131 397 131 397 116 428 c 0,35,36
 111 439 111 439 98.5 448 c 128,-1,37
 86 457 86 457 71.5 459 c 128,-1,38
 57 461 57 461 32 461 c 1,39,-1
 30 472 l 1,40,41
 117 483 117 483 201 483 c 1,0,-1
EndSplineSet
EndChar

StartChar: o
Encoding: 111 111 82
Width: 532
GlyphClass: 2
Flags: W
LayerCount: 2
Fore
SplineSet
100 412 m 128,-1,1
 160 483 160 483 263 483 c 128,-1,2
 366 483 366 483 429 412 c 128,-1,3
 492 341 492 341 492 236 c 128,-1,4
 492 131 492 131 431.5 60.5 c 128,-1,5
 371 -10 371 -10 268 -10 c 128,-1,6
 165 -10 165 -10 102.5 61 c 128,-1,7
 40 132 40 132 40 236.5 c 128,-1,0
 40 341 40 341 100 412 c 128,-1,1
268 10 m 128,-1,9
 341 10 341 10 378.5 73 c 128,-1,10
 416 136 416 136 416 235.5 c 128,-1,11
 416 335 416 335 376 399 c 128,-1,12
 336 463 336 463 263.5 463 c 128,-1,13
 191 463 191 463 153.5 399.5 c 128,-1,14
 116 336 116 336 116 237 c 128,-1,15
 116 138 116 138 155.5 74 c 128,-1,8
 195 10 195 10 268 10 c 128,-1,9
EndSplineSet
EndChar

StartChar: p
Encoding: 112 112 83
Width: 560
GlyphClass: 2
Flags: W
LayerCount: 2
Fore
SplineSet
234.5 445 m 128,-1,1
 272 483 272 483 335.5 483 c 128,-1,2
 399 483 399 483 442 444 c 0,3,4
 520 375 520 375 520 235 c 0,5,6
 520 130 520 130 456 60 c 128,-1,7
 392 -10 392 -10 294 -10 c 0,8,9
 223 -10 223 -10 180 17 c 1,10,-1
 180 -101 l 2,11,12
 180 -161 180 -161 181.5 -188 c 128,-1,13
 183 -215 183 -215 192.5 -234.5 c 128,-1,14
 202 -254 202 -254 217.5 -258 c 128,-1,15
 233 -262 233 -262 265 -262 c 1,16,-1
 267 -274 l 1,17,-1
 25 -274 l 1,18,-1
 27 -262 l 1,19,20
 85 -262 85 -262 97.5 -236.5 c 128,-1,21
 110 -211 110 -211 110 -101 c 2,22,-1
 110 321 l 2,23,24
 110 375 110 375 108.5 398 c 128,-1,25
 107 421 107 421 97.5 438 c 128,-1,26
 88 455 88 455 73.5 457.5 c 128,-1,27
 59 460 59 460 27 460 c 1,28,-1
 25 471 l 1,29,30
 96 483 96 483 180 483 c 1,31,-1
 180 352 l 1,32,0
 197 407 197 407 234.5 445 c 128,-1,1
281 19 m 0,33,34
 373 19 373 19 410 88 c 0,35,36
 444 151 444 151 444 235 c 0,37,38
 444 310 444 310 422 374 c 0,39,40
 409 409 409 409 382 430.5 c 128,-1,41
 355 452 355 452 317.5 452 c 128,-1,42
 280 452 280 452 251 425.5 c 128,-1,43
 222 399 222 399 208 360 c 0,44,45
 180 282 180 282 180 228 c 2,46,-1
 180 72 l 1,47,48
 211 19 211 19 281 19 c 0,33,34
EndSplineSet
EndChar

StartChar: q
Encoding: 113 113 84
Width: 545
GlyphClass: 2
Flags: W
LayerCount: 2
Fore
SplineSet
290 483 m 0,0,1
 359 483 359 483 418 458 c 1,2,-1
 448 478 l 1,3,-1
 448 -109 l 2,4,5
 448 -214 448 -214 460.5 -238 c 128,-1,6
 473 -262 473 -262 533 -262 c 1,7,-1
 535 -274 l 1,8,-1
 291 -274 l 1,9,-1
 293 -262 l 1,10,11
 352 -262 352 -262 365 -238 c 128,-1,12
 378 -214 378 -214 378 -109 c 2,13,-1
 378 111 l 1,14,15
 362 59 362 59 323.5 24.5 c 128,-1,16
 285 -10 285 -10 229.5 -10 c 128,-1,17
 174 -10 174 -10 137 12 c 128,-1,18
 100 34 100 34 80 70 c 0,19,20
 40 139 40 139 40 238 c 128,-1,21
 40 337 40 337 108 410 c 128,-1,22
 176 483 176 483 290 483 c 0,0,1
177.5 41 m 128,-1,24
 203 21 203 21 239.5 21 c 128,-1,25
 276 21 276 21 305.5 46 c 128,-1,26
 335 71 335 71 350 110 c 1,27,28
 381 185 381 185 381 265 c 2,29,-1
 381 418 l 1,30,31
 338 452 338 452 287 452 c 128,-1,32
 236 452 236 452 202 430 c 128,-1,33
 168 408 168 408 150 372 c 0,34,35
 116 305 116 305 116 229 c 0,36,37
 116 156 116 156 140 94 c 0,38,23
 152 61 152 61 177.5 41 c 128,-1,24
EndSplineSet
EndChar

StartChar: r
Encoding: 114 114 85
Width: 411
GlyphClass: 2
Flags: W
LayerCount: 2
Fore
SplineSet
348 488 m 0,0,1
 373 488 373 488 392 477 c 128,-1,2
 411 466 411 466 411 447 c 128,-1,3
 411 428 411 428 399 417 c 128,-1,4
 387 406 387 406 372 406 c 128,-1,5
 357 406 357 406 334.5 419 c 128,-1,6
 312 432 312 432 287 432 c 0,7,8
 248 432 248 432 223.5 360 c 128,-1,9
 199 288 199 288 199 193 c 0,10,11
 199 65 199 65 212 38 c 0,12,13
 216 29 216 29 227 21.5 c 128,-1,14
 238 14 238 14 250 13 c 128,-1,15
 262 12 262 12 284 12 c 1,16,-1
 286 0 l 1,17,-1
 43 0 l 1,18,-1
 45 12 l 1,19,20
 77 12 77 12 91.5 15.5 c 128,-1,21
 106 19 106 19 116 40 c 128,-1,22
 126 61 126 61 127.5 92.5 c 128,-1,23
 129 124 129 124 129 193 c 2,24,-1
 129 251 l 2,25,26
 129 390 129 390 121.5 409 c 128,-1,27
 114 428 114 428 108 439 c 128,-1,28
 102 450 102 450 90 454 c 0,29,30
 68 460 68 460 32 460 c 1,31,-1
 30 471 l 1,32,33
 115 483 115 483 199 483 c 1,34,-1
 199 336 l 1,35,36
 210 407 210 407 248.5 447.5 c 128,-1,37
 287 488 287 488 348 488 c 0,0,1
EndSplineSet
EndChar

StartChar: s
Encoding: 115 115 86
Width: 411
GlyphClass: 2
Flags: W
LayerCount: 2
Fore
SplineSet
107 51.5 m 128,-1,1
 142 19 142 19 190.5 19 c 128,-1,2
 239 19 239 19 269 41 c 128,-1,3
 299 63 299 63 299 100.5 c 128,-1,4
 299 138 299 138 273.5 162 c 128,-1,5
 248 186 248 186 212 201 c 128,-1,6
 176 216 176 216 139.5 232 c 128,-1,7
 103 248 103 248 77.5 279 c 128,-1,8
 52 310 52 310 52 362 c 128,-1,9
 52 414 52 414 98.5 448.5 c 128,-1,10
 145 483 145 483 206 483 c 0,11,12
 293 483 293 483 342 455 c 1,13,14
 342 409 342 409 330 327 c 1,15,-1
 318 330 l 1,16,17
 318 396 318 396 288 426 c 128,-1,18
 258 456 258 456 215.5 456 c 128,-1,19
 173 456 173 456 147.5 434 c 128,-1,20
 122 412 122 412 122 374.5 c 128,-1,21
 122 337 122 337 147.5 314.5 c 128,-1,22
 173 292 173 292 209 277 c 128,-1,23
 245 262 245 262 281.5 245.5 c 128,-1,24
 318 229 318 229 343.5 198.5 c 128,-1,25
 369 168 369 168 369 124 c 0,26,27
 369 60 369 60 319 25 c 128,-1,28
 269 -10 269 -10 187.5 -10 c 128,-1,29
 106 -10 106 -10 50 33 c 1,30,31
 50 83 50 83 60 151 c 1,32,-1
 72 149 l 1,33,0
 72 84 72 84 107 51.5 c 128,-1,1
EndSplineSet
EndChar

StartChar: t
Encoding: 116 116 87
Width: 319
GlyphClass: 2
Flags: W
LayerCount: 2
Fore
SplineSet
176 473 m 1,0,-1
 299 473 l 1,1,-1
 299 451 l 1,2,-1
 176 451 l 1,3,-1
 176 70 l 2,4,5
 176 49 176 49 186 36.5 c 128,-1,6
 196 24 196 24 212 24 c 0,7,8
 248 24 248 24 297 45 c 1,9,-1
 299 34 l 1,10,11
 229 -10 229 -10 175 -10 c 0,12,13
 140 -10 140 -10 123 7 c 128,-1,14
 106 24 106 24 106 66 c 2,15,-1
 106 451 l 1,16,-1
 46 451 l 1,17,-1
 46 473 l 1,18,19
 100 473 100 473 121.5 503.5 c 128,-1,20
 143 534 143 534 154 594 c 1,21,-1
 176 596 l 1,22,-1
 176 473 l 1,0,-1
EndSplineSet
EndChar

StartChar: u
Encoding: 117 117 88
Width: 619
GlyphClass: 2
Flags: W
LayerCount: 2
Fore
SplineSet
425.5 188 m 128,-1,1
 433 228 433 228 433 274 c 128,-1,2
 433 320 433 320 431 351 c 128,-1,3
 429 382 429 382 424 406.5 c 128,-1,4
 419 431 419 431 407 442 c 0,5,6
 385 461 385 461 334 461 c 1,7,-1
 332 472 l 1,8,9
 419 483 419 483 503 483 c 1,10,-1
 503 222 l 2,11,12
 503 111 503 111 510 76.5 c 128,-1,13
 517 42 517 42 544 42 c 0,14,15
 561 42 561 42 589 56 c 1,16,-1
 594 46 l 1,17,18
 586 40 586 40 573 31.5 c 128,-1,19
 560 23 560 23 520 9 c 128,-1,20
 480 -5 480 -5 443 -5 c 1,21,22
 433 53 433 53 433 129 c 1,23,24
 387 -10 387 -10 274 -10 c 0,25,26
 121 -10 121 -10 121 150 c 2,27,-1
 121 247 l 2,28,29
 121 397 121 397 106 428 c 0,30,31
 101 439 101 439 88.5 448 c 128,-1,32
 76 457 76 457 61.5 459 c 128,-1,33
 47 461 47 461 22 461 c 1,34,-1
 20 472 l 1,35,36
 107 483 107 483 191 483 c 1,37,-1
 191 160 l 2,38,39
 191 91 191 91 212.5 56 c 128,-1,40
 234 21 234 21 279.5 21 c 128,-1,41
 325 21 325 21 355.5 46 c 128,-1,42
 386 71 386 71 402 109.5 c 128,-1,0
 418 148 418 148 425.5 188 c 128,-1,1
EndSplineSet
EndChar

StartChar: v
Encoding: 118 118 89
Width: 500
GlyphClass: 2
Flags: W
LayerCount: 2
Fore
SplineSet
159 416 m 0,0,1
 159 370 159 370 206 252 c 2,2,-1
 283 58 l 1,3,-1
 361 298 l 2,4,5
 384 370 384 370 384 407 c 0,6,7
 384 461 384 461 314 461 c 1,8,-1
 312 473 l 1,9,-1
 500 473 l 1,10,-1
 498 461 l 1,11,12
 457 461 457 461 440.5 434.5 c 128,-1,13
 424 408 424 408 379 271 c 2,14,-1
 289 -3 l 1,15,-1
 230 -3 l 1,16,-1
 100 329 l 2,17,18
 67 413 67 413 40.5 437 c 128,-1,19
 14 461 14 461 -23 461 c 1,20,-1
 -25 473 l 1,21,-1
 223 473 l 1,22,-1
 221 461 l 1,23,24
 186 461 186 461 172.5 450 c 128,-1,25
 159 439 159 439 159 416 c 0,0,1
EndSplineSet
EndChar

StartChar: w
Encoding: 119 119 90
Width: 800
GlyphClass: 2
Flags: W
LayerCount: 2
Fore
SplineSet
159 416 m 0,0,1
 159 370 159 370 206 252 c 2,2,-1
 283 58 l 1,3,-1
 386 395 l 1,4,5
 362 461 362 461 304 461 c 1,6,-1
 302 473 l 1,7,-1
 533 473 l 1,8,-1
 531 461 l 1,9,10
 496 461 496 461 482.5 450 c 128,-1,11
 469 439 469 439 469 412 c 128,-1,12
 469 385 469 385 516 252 c 1,13,-1
 583 58 l 1,14,-1
 661 298 l 2,15,16
 684 370 684 370 684 407 c 0,17,18
 684 461 684 461 614 461 c 1,19,-1
 612 473 l 1,20,-1
 800 473 l 1,21,-1
 798 461 l 1,22,23
 757 461 757 461 740.5 434.5 c 128,-1,24
 724 408 724 408 679 271 c 2,25,-1
 589 -3 l 1,26,-1
 530 -3 l 1,27,-1
 399 358 l 1,28,-1
 289 -3 l 1,29,-1
 230 -3 l 1,30,-1
 100 329 l 2,31,32
 67 413 67 413 40.5 437 c 128,-1,33
 14 461 14 461 -23 461 c 1,34,-1
 -25 473 l 1,35,-1
 223 473 l 1,36,-1
 221 461 l 1,37,38
 186 461 186 461 172.5 450 c 128,-1,39
 159 439 159 439 159 416 c 0,0,1
EndSplineSet
EndChar

StartChar: x
Encoding: 120 120 91
Width: 498
GlyphClass: 2
Flags: W
LayerCount: 2
Fore
SplineSet
362 435 m 0,0,1
 362 461 362 461 311 461 c 1,2,-1
 309 473 l 1,3,-1
 493 473 l 1,4,-1
 491 461 l 1,5,6
 465 461 465 461 432 450 c 0,7,8
 412 443 412 443 353 356 c 0,9,10
 329 321 329 321 312 298 c 2,11,-1
 277 250 l 1,12,-1
 342 143 l 2,13,14
 392 60 392 60 422 36 c 128,-1,15
 452 12 452 12 496 12 c 1,16,-1
 498 0 l 1,17,-1
 262 0 l 1,18,-1
 264 12 l 1,19,20
 293 12 293 12 304 16 c 128,-1,21
 315 20 315 20 315 37.5 c 128,-1,22
 315 55 315 55 264 138 c 2,23,-1
 228 196 l 1,24,-1
 204 162 l 1,25,26
 136 69 136 69 136 38 c 0,27,28
 136 12 136 12 183 12 c 1,29,-1
 185 0 l 1,30,-1
 0 0 l 1,31,-1
 2 12 l 1,32,33
 49 12 49 12 70 28 c 1,34,35
 80 37 80 37 86.5 42 c 128,-1,36
 93 47 93 47 106.5 64.5 c 128,-1,37
 120 82 120 82 127 92 c 128,-1,38
 134 102 134 102 153.5 130 c 128,-1,39
 173 158 173 158 186 175 c 2,40,-1
 216 217 l 1,41,-1
 154 320 l 2,42,43
 100 408 100 408 72.5 434.5 c 128,-1,44
 45 461 45 461 8 461 c 1,45,-1
 6 473 l 1,46,-1
 222 473 l 1,47,-1
 220 461 l 1,48,49
 193 461 193 461 182 456.5 c 128,-1,50
 171 452 171 452 171 441.5 c 128,-1,51
 171 431 171 431 232 325 c 1,52,-1
 265 270 l 1,53,-1
 294 311 l 1,54,55
 362 404 362 404 362 435 c 0,0,1
EndSplineSet
EndChar

StartChar: y
Encoding: 121 121 92
Width: 500
GlyphClass: 2
Flags: W
LayerCount: 2
Fore
SplineSet
97 -210 m 0,0,1
 147 -210 147 -210 180.5 -171.5 c 128,-1,2
 214 -133 214 -133 249 -47 c 1,3,-1
 100 329 l 2,4,5
 67 413 67 413 40.5 437 c 128,-1,6
 14 461 14 461 -23 461 c 1,7,-1
 -25 473 l 1,8,-1
 223 473 l 1,9,-1
 221 461 l 1,10,11
 186 461 186 461 172.5 450 c 128,-1,12
 159 439 159 439 159 416 c 0,13,14
 159 370 159 370 206 252 c 2,15,-1
 283 58 l 1,16,-1
 361 298 l 2,17,18
 384 370 384 370 384 407 c 0,19,20
 384 461 384 461 314 461 c 1,21,-1
 312 473 l 1,22,-1
 500 473 l 1,23,-1
 498 461 l 1,24,25
 457 461 457 461 440.5 434.5 c 128,-1,26
 424 408 424 408 379 271 c 2,27,-1
 289 -3 l 2,28,29
 245 -138 245 -138 186 -211 c 128,-1,30
 127 -284 127 -284 63 -284 c 0,31,32
 34 -284 34 -284 15 -272.5 c 128,-1,33
 -4 -261 -4 -261 -4 -240.5 c 128,-1,34
 -4 -220 -4 -220 8.5 -208.5 c 128,-1,35
 21 -197 21 -197 35.5 -197 c 128,-1,36
 50 -197 50 -197 68 -203.5 c 128,-1,37
 86 -210 86 -210 97 -210 c 0,0,1
EndSplineSet
EndChar

StartChar: z
Encoding: 122 122 93
Width: 456
GlyphClass: 2
Flags: W
LayerCount: 2
Fore
SplineSet
231 22 m 2,0,1
 319 22 319 22 348 41.5 c 128,-1,2
 377 61 377 61 377 125 c 1,3,-1
 389 128 l 1,4,5
 401 46 401 46 401 0 c 1,6,-1
 40 0 l 1,7,-1
 40 14 l 1,8,-1
 321 451 l 1,9,-1
 230 451 l 2,10,11
 142 451 142 451 113 431.5 c 128,-1,12
 84 412 84 412 84 348 c 1,13,-1
 72 345 l 1,14,15
 60 427 60 427 60 473 c 1,16,-1
 416 473 l 1,17,-1
 416 462 l 1,18,-1
 128 22 l 1,19,-1
 231 22 l 2,0,1
EndSplineSet
EndChar

StartChar: braceleft
Encoding: 123 123 94
Width: 330
GlyphClass: 2
Flags: W
LayerCount: 2
Fore
SplineSet
105 370.5 m 128,-1,1
 117 407 117 407 117 489.5 c 128,-1,2
 117 572 117 572 124 607 c 128,-1,3
 131 642 131 642 149 674 c 0,4,5
 186 740 186 740 295 740 c 1,6,-1
 295 713 l 1,7,8
 243 713 243 713 217.5 666 c 128,-1,9
 192 619 192 619 192 544 c 0,10,11
 192 426 192 426 175 376 c 128,-1,12
 158 326 158 326 109 319 c 1,13,14
 158 312 158 312 175 262 c 128,-1,15
 192 212 192 212 192 94 c 0,16,17
 192 19 192 19 217.5 -28 c 128,-1,18
 243 -75 243 -75 295 -75 c 1,19,-1
 295 -102 l 1,20,21
 186 -102 186 -102 149 -36 c 0,22,23
 117 21 117 21 117 126 c 128,-1,24
 117 231 117 231 105 267.5 c 128,-1,25
 93 304 93 304 55 306 c 1,26,-1
 55 332 l 1,27,0
 93 334 93 334 105 370.5 c 128,-1,1
EndSplineSet
EndChar

StartChar: bar
Encoding: 124 124 95
Width: 211
GlyphClass: 2
Flags: W
LayerCount: 2
Fore
SplineSet
136 720 m 1,0,-1
 136 -194 l 1,1,-1
 75 -194 l 1,2,-1
 75 720 l 1,3,-1
 136 720 l 1,0,-1
EndSplineSet
EndChar

StartChar: braceright
Encoding: 125 125 96
Width: 330
GlyphClass: 2
Flags: W
LayerCount: 2
Fore
SplineSet
225 267.5 m 128,-1,1
 213 231 213 231 213 148.5 c 128,-1,2
 213 66 213 66 206 31 c 128,-1,3
 199 -4 199 -4 181 -36 c 0,4,5
 144 -102 144 -102 35 -102 c 1,6,-1
 35 -75 l 1,7,8
 87 -75 87 -75 112.5 -28 c 128,-1,9
 138 19 138 19 138 94 c 0,10,11
 138 212 138 212 155 262 c 128,-1,12
 172 312 172 312 221 319 c 1,13,14
 172 326 172 326 155 376 c 128,-1,15
 138 426 138 426 138 544 c 0,16,17
 138 619 138 619 112.5 666 c 128,-1,18
 87 713 87 713 35 713 c 1,19,-1
 35 740 l 1,20,21
 144 740 144 740 181 674 c 0,22,23
 213 617 213 617 213 512 c 128,-1,24
 213 407 213 407 225 370.5 c 128,-1,25
 237 334 237 334 275 332 c 1,26,-1
 275 306 l 1,27,0
 237 304 237 304 225 267.5 c 128,-1,1
EndSplineSet
EndChar

StartChar: asciitilde
Encoding: 126 126 97
Width: 550
GlyphClass: 2
Flags: W
LayerCount: 2
Fore
SplineSet
363 329 m 0,0,1
 333 329 333 329 273 295 c 128,-1,2
 213 261 213 261 169.5 261 c 128,-1,3
 126 261 126 261 98 295 c 1,4,-1
 98 343 l 1,5,6
 127 309 127 309 179 309 c 0,7,8
 208 309 208 309 267 343 c 128,-1,9
 326 377 326 377 369.5 377 c 128,-1,10
 413 377 413 377 452 343 c 1,11,-1
 452 295 l 1,12,13
 413 329 413 329 363 329 c 0,0,1
EndSplineSet
EndChar

StartChar: exclamdown
Encoding: 161 161 99
Width: 244
GlyphClass: 2
Flags: W
LayerCount: 2
Fore
SplineSet
156 -222 m 128,-1,1
 145 -236 145 -236 122.5 -236 c 128,-1,2
 100 -236 100 -236 89 -222 c 128,-1,3
 78 -208 78 -208 78 -188 c 0,4,5
 78 -126 78 -126 94 48.5 c 128,-1,6
 110 223 110 223 110 298 c 1,7,-1
 135 298 l 1,8,9
 135 223 135 223 151 48.5 c 128,-1,10
 167 -126 167 -126 167 -188 c 0,11,0
 167 -208 167 -208 156 -222 c 128,-1,1
160 392.5 m 128,-1,13
 145 377 145 377 123 377 c 128,-1,14
 101 377 101 377 85.5 392.5 c 128,-1,15
 70 408 70 408 70 430.5 c 128,-1,16
 70 453 70 453 85.5 468 c 128,-1,17
 101 483 101 483 122.5 483 c 128,-1,18
 144 483 144 483 159.5 468 c 128,-1,19
 175 453 175 453 175 430.5 c 128,-1,12
 175 408 175 408 160 392.5 c 128,-1,13
EndSplineSet
EndChar

StartChar: cent
Encoding: 162 162 100
Width: 550
GlyphClass: 2
Flags: W
LayerCount: 2
Fore
SplineSet
138.5 157 m 128,-1,1
 90 220 90 220 90 323 c 128,-1,2
 90 426 90 426 145 495.5 c 128,-1,3
 200 565 200 565 302 568 c 1,4,-1
 315 713 l 1,5,-1
 351 713 l 1,6,-1
 338 567 l 1,7,8
 396 562 396 562 435.5 541 c 128,-1,9
 475 520 475 520 475 486.5 c 128,-1,10
 475 453 475 453 438 453 c 0,11,12
 407 453 407 453 391 494 c 0,13,14
 385 509 385 509 371 524.5 c 128,-1,15
 357 540 357 540 336 545 c 1,16,-1
 299 105 l 1,17,18
 305 104 305 104 319 104 c 0,19,20
 418 104 418 104 460 184 c 1,21,-1
 475 176 l 1,22,23
 424 75 424 75 296 75 c 1,24,-1
 284 -70 l 1,25,-1
 248 -70 l 1,26,-1
 261 79 l 1,27,0
 187 94 187 94 138.5 157 c 128,-1,1
166 333 m 0,28,29
 166 160 166 160 264 116 c 1,30,-1
 301 547 l 1,31,32
 234 542 234 542 200 483 c 128,-1,33
 166 424 166 424 166 333 c 0,28,29
EndSplineSet
EndChar

StartChar: sterling
Encoding: 163 163 101
Width: 550
GlyphClass: 2
Flags: W
LayerCount: 2
Fore
SplineSet
226 299 m 1,0,-1
 229 219 l 1,1,2
 229 150 229 150 218 89 c 1,3,4
 319 54 319 54 387.5 54 c 128,-1,5
 456 54 456 54 527 103 c 1,6,-1
 537 88 l 1,7,8
 529 77 529 77 508 58.5 c 128,-1,9
 487 40 487 40 468 28 c 0,10,11
 420 -5 420 -5 368.5 -5 c 128,-1,12
 317 -5 317 -5 205 50 c 1,13,14
 183 -10 183 -10 122 -10 c 0,15,16
 92 -10 92 -10 75.5 6.5 c 128,-1,17
 59 23 59 23 59 50.5 c 128,-1,18
 59 78 59 78 78.5 95 c 128,-1,19
 98 112 98 112 121 112 c 128,-1,20
 144 112 144 112 167 105 c 1,21,22
 169 133 169 133 169 156.5 c 128,-1,23
 169 180 169 180 156 299 c 1,24,-1
 79 299 l 1,25,-1
 79 337 l 1,26,-1
 153 337 l 1,27,28
 149 376 149 376 149 417 c 128,-1,29
 149 458 149 458 153.5 486 c 128,-1,30
 158 514 158 514 171 545 c 128,-1,31
 184 576 184 576 204.5 599.5 c 128,-1,32
 225 623 225 623 260 638 c 128,-1,33
 295 653 295 653 340 653 c 0,34,35
 409 653 409 653 449.5 618 c 128,-1,36
 490 583 490 583 490 543.5 c 128,-1,37
 490 504 490 504 456 504 c 0,38,39
 419 504 419 504 412 566 c 0,40,41
 410 589 410 589 393 608 c 128,-1,42
 376 627 376 627 342 627 c 0,43,44
 283 627 283 627 251.5 571 c 128,-1,45
 220 515 220 515 220 429 c 0,46,47
 220 382 220 382 223 337 c 1,48,-1
 389 337 l 1,49,-1
 389 299 l 1,50,-1
 226 299 l 1,0,-1
93 22 m 128,-1,52
 102 13 102 13 118 13 c 128,-1,53
 134 13 134 13 146.5 28.5 c 128,-1,54
 159 44 159 44 163 69 c 1,55,56
 138 80 138 80 120 80 c 128,-1,57
 102 80 102 80 93 69.5 c 128,-1,58
 84 59 84 59 84 45 c 128,-1,51
 84 31 84 31 93 22 c 128,-1,52
EndSplineSet
EndChar

StartChar: currency
Encoding: 164 164 102
Width: 550
GlyphClass: 2
Flags: W
LayerCount: 2
Fore
SplineSet
157 235 m 1,0,1
 131 272 131 272 131 319 c 128,-1,2
 131 366 131 366 156 404 c 1,3,-1
 90 470 l 1,4,-1
 124 504 l 1,5,-1
 189 438 l 1,6,7
 226 464 226 464 274.5 464 c 128,-1,8
 323 464 323 464 360 438 c 1,9,-1
 426 504 l 1,10,-1
 460 470 l 1,11,-1
 394 404 l 1,12,13
 418 368 418 368 418 320 c 128,-1,14
 418 272 418 272 392 235 c 1,15,-1
 460 168 l 1,16,-1
 426 134 l 1,17,-1
 358 201 l 1,18,19
 323 177 323 177 273.5 177 c 128,-1,20
 224 177 224 177 191 201 c 1,21,-1
 124 134 l 1,22,-1
 90 168 l 1,23,-1
 157 235 l 1,0,1
346.5 391 m 128,-1,25
 319 420 319 420 274.5 420 c 128,-1,26
 230 420 230 420 202.5 391 c 128,-1,27
 175 362 175 362 175 320 c 128,-1,28
 175 278 175 278 202.5 249.5 c 128,-1,29
 230 221 230 221 274.5 221 c 128,-1,30
 319 221 319 221 346.5 249.5 c 128,-1,31
 374 278 374 278 374 320 c 128,-1,24
 374 362 374 362 346.5 391 c 128,-1,25
EndSplineSet
EndChar

StartChar: yen
Encoding: 165 165 103
Width: 550
GlyphClass: 2
Flags: W
LayerCount: 2
Fore
SplineSet
85 369 m 1,0,-1
 85 407 l 1,1,-1
 173 407 l 1,2,3
 97 552 97 552 65 591.5 c 128,-1,4
 33 631 33 631 -6 631 c 1,5,-1
 -8 643 l 1,6,-1
 221 643 l 1,7,-1
 219 631 l 1,8,9
 186 631 186 631 172.5 626.5 c 128,-1,10
 159 622 159 622 159 602 c 0,11,12
 159 581 159 581 249 401 c 2,13,-1
 302 295 l 1,14,-1
 342 401 l 2,15,16
 406 570 406 570 406 594.5 c 128,-1,17
 406 619 406 619 392.5 625 c 128,-1,18
 379 631 379 631 342 631 c 1,19,-1
 340 643 l 1,20,-1
 544 643 l 1,21,-1
 542 631 l 1,22,23
 490 631 490 631 460.5 592.5 c 128,-1,24
 431 554 431 554 370 407 c 1,25,-1
 475 407 l 1,26,-1
 475 369 l 1,27,-1
 355 369 l 1,28,-1
 315 267 l 1,29,-1
 475 267 l 1,30,-1
 475 229 l 1,31,-1
 315 229 l 1,32,-1
 315 142 l 2,33,34
 315 114 315 114 322 59 c 0,35,36
 324 48 324 48 332.5 36.5 c 128,-1,37
 341 25 341 25 346 21.5 c 128,-1,38
 351 18 351 18 367.5 15 c 128,-1,39
 384 12 384 12 395 12 c 2,40,-1
 432 12 l 1,41,-1
 434 0 l 1,42,-1
 126 0 l 1,43,-1
 128 12 l 1,44,45
 162 12 162 12 176 12.5 c 128,-1,46
 190 13 190 13 207 20 c 128,-1,47
 224 27 224 27 228.5 35.5 c 128,-1,48
 233 44 233 44 238.5 70 c 128,-1,49
 244 96 244 96 244.5 123.5 c 128,-1,50
 245 151 245 151 245 206 c 2,51,-1
 245 229 l 1,52,-1
 85 229 l 1,53,-1
 85 267 l 1,54,-1
 245 267 l 1,55,-1
 192 369 l 1,56,-1
 85 369 l 1,0,-1
EndSplineSet
EndChar

StartChar: brokenbar
Encoding: 166 166 104
Width: 211
GlyphClass: 2
Flags: W
LayerCount: 2
Fore
SplineSet
136 147 m 1,0,-1
 136 -194 l 1,1,-1
 75 -194 l 1,2,-1
 75 147 l 1,3,-1
 136 147 l 1,0,-1
136 720 m 1,4,-1
 136 379 l 1,5,-1
 75 379 l 1,6,-1
 75 720 l 1,7,-1
 136 720 l 1,4,-1
EndSplineSet
EndChar

StartChar: section
Encoding: 167 167 105
Width: 550
GlyphClass: 2
Flags: W
LayerCount: 2
Fore
SplineSet
263 -258 m 0,0,1
 406 -258 406 -258 406 -136 c 0,2,3
 406 -95 406 -95 373 -60.5 c 128,-1,4
 340 -26 340 -26 293 0.5 c 128,-1,5
 246 27 246 27 199.5 55.5 c 128,-1,6
 153 84 153 84 120 127.5 c 128,-1,7
 87 171 87 171 87 226.5 c 128,-1,8
 87 282 87 282 124 321.5 c 128,-1,9
 161 361 161 361 221 373 c 1,10,11
 157 413 157 413 122 454.5 c 128,-1,12
 87 496 87 496 87 560 c 128,-1,13
 87 624 87 624 139 666.5 c 128,-1,14
 191 709 191 709 266.5 709 c 128,-1,15
 342 709 342 709 393.5 681 c 128,-1,16
 445 653 445 653 445 614 c 0,17,18
 445 600 445 600 434 589.5 c 128,-1,19
 423 579 423 579 408 579 c 128,-1,20
 393 579 393 579 378 595.5 c 128,-1,21
 363 612 363 612 352 631 c 128,-1,22
 341 650 341 650 319 666.5 c 128,-1,23
 297 683 297 683 269 683 c 0,24,25
 215 683 215 683 182 654 c 128,-1,26
 149 625 149 625 149 579 c 128,-1,27
 149 533 149 533 182 499.5 c 128,-1,28
 215 466 215 466 261.5 441 c 128,-1,29
 308 416 308 416 355 388.5 c 128,-1,30
 402 361 402 361 435 318 c 128,-1,31
 468 275 468 275 468 216 c 128,-1,32
 468 157 468 157 436 117 c 128,-1,33
 404 77 404 77 351 59 c 1,34,35
 406 25 406 25 437 -15 c 128,-1,36
 468 -55 468 -55 468 -113 c 0,37,38
 468 -198 468 -198 407.5 -241.5 c 128,-1,39
 347 -285 347 -285 267.5 -285 c 128,-1,40
 188 -285 188 -285 136.5 -257 c 128,-1,41
 85 -229 85 -229 85 -190 c 0,42,43
 85 -176 85 -176 96 -165.5 c 128,-1,44
 107 -155 107 -155 122 -155 c 128,-1,45
 137 -155 137 -155 152 -171 c 128,-1,46
 167 -187 167 -187 178 -206.5 c 128,-1,47
 189 -226 189 -226 211.5 -242 c 128,-1,48
 234 -258 234 -258 263 -258 c 0,0,1
406 195 m 0,49,50
 406 246 406 246 358 285 c 0,51,52
 333 306 333 306 314.5 317.5 c 128,-1,53
 296 329 296 329 258 351 c 1,54,55
 208 348 208 348 178.5 319.5 c 128,-1,56
 149 291 149 291 149 253.5 c 128,-1,57
 149 216 149 216 161.5 192.5 c 128,-1,58
 174 169 174 169 204.5 146.5 c 128,-1,59
 235 124 235 124 254 113 c 128,-1,60
 273 102 273 102 318 79 c 1,61,62
 406 100 406 100 406 195 c 0,49,50
EndSplineSet
EndChar

StartChar: dieresis
Encoding: 168 168 106
Width: 413
GlyphClass: 2
Flags: W
LayerCount: 2
Fore
SplineSet
49 643 m 128,-1,1
 49 665 49 665 65 681 c 128,-1,2
 81 697 81 697 103 697 c 128,-1,3
 125 697 125 697 141 681 c 128,-1,4
 157 665 157 665 157 643 c 128,-1,5
 157 621 157 621 141 605 c 128,-1,6
 125 589 125 589 103 589 c 128,-1,7
 81 589 81 589 65 605 c 128,-1,0
 49 621 49 621 49 643 c 128,-1,1
256 643 m 128,-1,9
 256 665 256 665 272 681 c 128,-1,10
 288 697 288 697 310 697 c 128,-1,11
 332 697 332 697 348 681 c 128,-1,12
 364 665 364 665 364 643 c 128,-1,13
 364 621 364 621 348 605 c 128,-1,14
 332 589 332 589 310 589 c 128,-1,15
 288 589 288 589 272 605 c 128,-1,8
 256 621 256 621 256 643 c 128,-1,9
EndSplineSet
EndChar

StartChar: copyright
Encoding: 169 169 107
Width: 815
GlyphClass: 2
Flags: W
LayerCount: 2
Fore
SplineSet
154.5 600 m 128,-1,1
 259 705 259 705 407.5 705 c 128,-1,2
 556 705 556 705 660.5 600.5 c 128,-1,3
 765 496 765 496 765 347.5 c 128,-1,4
 765 199 765 199 660.5 94.5 c 128,-1,5
 556 -10 556 -10 407.5 -10 c 128,-1,6
 259 -10 259 -10 154.5 94.5 c 128,-1,7
 50 199 50 199 50 347 c 128,-1,0
 50 495 50 495 154.5 600 c 128,-1,1
181 121.5 m 128,-1,9
 275 27 275 27 407.5 27 c 128,-1,10
 540 27 540 27 634 121.5 c 128,-1,11
 728 216 728 216 728 348 c 128,-1,12
 728 480 728 480 634 574 c 128,-1,13
 540 668 540 668 407.5 668 c 128,-1,14
 275 668 275 668 181 574 c 128,-1,15
 87 480 87 480 87 348 c 128,-1,8
 87 216 87 216 181 121.5 c 128,-1,9
578 183 m 1,16,17
 509 127 509 127 418.5 127 c 128,-1,18
 328 127 328 127 264.5 185.5 c 128,-1,19
 201 244 201 244 201 342 c 128,-1,20
 201 440 201 440 258.5 502.5 c 128,-1,21
 316 565 316 565 414 565 c 0,22,23
 460 565 460 565 502 553.5 c 128,-1,24
 544 542 544 542 565 526 c 1,25,-1
 565 427 l 1,26,-1
 557 428 l 1,27,28
 547 488 547 488 508.5 516.5 c 128,-1,29
 470 545 470 545 414 545 c 0,30,31
 344 545 344 545 306.5 489 c 128,-1,32
 269 433 269 433 269 344 c 128,-1,33
 269 255 269 255 313.5 203 c 128,-1,34
 358 151 358 151 429.5 151 c 128,-1,35
 501 151 501 151 568 201 c 1,36,-1
 578 183 l 1,16,17
EndSplineSet
EndChar

StartChar: ordfeminine
Encoding: 170 170 108
Width: 377
GlyphClass: 2
Flags: W
LayerCount: 2
Fore
SplineSet
180 709 m 0,0,1
 287 709 287 709 287 604 c 2,2,-1
 287 539 l 2,3,4
 287 469 287 469 290.5 447 c 128,-1,5
 294 425 294 425 306 425 c 128,-1,6
 318 425 318 425 339 434 c 1,7,-1
 345 425 l 1,8,9
 300 391 300 391 237 391 c 1,10,11
 232 408 232 408 230 447 c 1,12,-1
 224 447 l 1,13,14
 193 387 193 387 133 387 c 0,15,16
 91 387 91 387 66 409 c 128,-1,17
 41 431 41 431 41 470 c 0,18,19
 41 572 41 572 229 576 c 1,20,-1
 229 597 l 2,21,22
 229 643 229 643 216.5 667 c 128,-1,23
 204 691 204 691 168 691 c 0,24,25
 151 691 151 691 139.5 681 c 128,-1,26
 128 671 128 671 124 658 c 0,27,28
 112 626 112 626 88 626 c 0,29,30
 60 626 60 626 60 655 c 0,31,32
 60 681 60 681 96 695 c 128,-1,33
 132 709 132 709 180 709 c 0,0,1
143 412 m 0,34,35
 186 412 186 412 207.5 455 c 128,-1,36
 229 498 229 498 229 558 c 1,37,38
 162 557 162 557 132 531.5 c 128,-1,39
 102 506 102 506 102 467 c 0,40,41
 102 443 102 443 112.5 427.5 c 128,-1,42
 123 412 123 412 143 412 c 0,34,35
45 297 m 1,43,-1
 45 337 l 1,44,-1
 324 337 l 1,45,-1
 324 297 l 1,46,-1
 45 297 l 1,43,-1
EndSplineSet
EndChar

StartChar: guillemotleft
Encoding: 171 171 109
Width: 459
GlyphClass: 2
Flags: W
LayerCount: 2
Fore
SplineSet
30 293 m 128,-1,1
 30 300 30 300 34 306.5 c 128,-1,2
 38 313 38 313 49.5 326 c 128,-1,3
 61 339 61 339 76 356 c 0,4,5
 125 409 125 409 181 483 c 1,6,-1
 209 462 l 1,7,-1
 117 293 l 1,8,-1
 209 124 l 1,9,-1
 181 103 l 1,10,11
 125 177 125 177 93 212 c 128,-1,12
 61 247 61 247 49.5 260 c 128,-1,13
 38 273 38 273 34 279.5 c 128,-1,0
 30 286 30 286 30 293 c 128,-1,1
200 293 m 128,-1,15
 200 300 200 300 204 306.5 c 128,-1,16
 208 313 208 313 219.5 326 c 128,-1,17
 231 339 231 339 246 356 c 0,18,19
 295 409 295 409 351 483 c 1,20,-1
 379 462 l 1,21,-1
 287 293 l 1,22,-1
 379 124 l 1,23,-1
 351 103 l 1,24,25
 295 177 295 177 263 212 c 128,-1,26
 231 247 231 247 219.5 260 c 128,-1,27
 208 273 208 273 204 279.5 c 128,-1,14
 200 286 200 286 200 293 c 128,-1,15
EndSplineSet
EndChar

StartChar: logicalnot
Encoding: 172 172 110
Width: 550
GlyphClass: 2
Flags: W
LayerCount: 2
Fore
SplineSet
98 295 m 1,0,-1
 98 343 l 1,1,-1
 452 343 l 1,2,-1
 452 142 l 1,3,-1
 404 142 l 1,4,-1
 404 295 l 1,5,-1
 98 295 l 1,0,-1
EndSplineSet
EndChar

StartChar: registered
Encoding: 174 174 111
Width: 815
GlyphClass: 2
Flags: W
LayerCount: 2
Fore
SplineSet
408 705 m 128,-1,1
 556 705 556 705 660.5 600.5 c 128,-1,2
 765 496 765 496 765 347.5 c 128,-1,3
 765 199 765 199 660.5 94.5 c 128,-1,4
 556 -10 556 -10 408 -10 c 128,-1,5
 260 -10 260 -10 155 94.5 c 128,-1,6
 50 199 50 199 50 347 c 128,-1,7
 50 495 50 495 155 600 c 128,-1,0
 260 705 260 705 408 705 c 128,-1,1
181.5 121.5 m 128,-1,9
 276 27 276 27 408.5 27 c 128,-1,10
 541 27 541 27 635.5 121 c 128,-1,11
 730 215 730 215 730 347.5 c 128,-1,12
 730 480 730 480 636 574 c 128,-1,13
 542 668 542 668 408.5 668 c 128,-1,14
 275 668 275 668 181 574 c 128,-1,15
 87 480 87 480 87 348 c 128,-1,8
 87 216 87 216 181.5 121.5 c 128,-1,9
559 133 m 2,16,17
 519 133 519 133 476 228 c 0,18,19
 459 265 459 265 430.5 298 c 128,-1,20
 402 331 402 331 367 337 c 1,21,-1
 367 264 l 2,22,23
 367 184 367 184 377 163.5 c 128,-1,24
 387 143 387 143 426 143 c 1,25,-1
 427 133 l 1,26,-1
 252 133 l 1,27,-1
 253 143 l 1,28,29
 292 143 292 143 301 163 c 128,-1,30
 310 183 310 183 310 264 c 2,31,-1
 310 432 l 2,32,33
 310 512 310 512 301 531 c 128,-1,34
 292 550 292 550 253 550 c 1,35,-1
 252 560 l 1,36,-1
 397 560 l 2,37,38
 554 560 554 560 554 452 c 0,39,40
 554 411 554 411 528 381.5 c 128,-1,41
 502 352 502 352 464 342 c 1,42,43
 504 309 504 309 545 221 c 0,44,45
 559 191 559 191 580.5 167.5 c 128,-1,46
 602 144 602 144 627 143 c 1,47,-1
 629 133 l 1,48,-1
 559 133 l 2,16,17
367 543 m 1,49,-1
 367 353 l 1,50,-1
 396 353 l 2,51,52
 436 353 436 353 463 377 c 128,-1,53
 490 401 490 401 490 451 c 0,54,55
 490 543 490 543 397 543 c 2,56,-1
 367 543 l 1,49,-1
EndSplineSet
EndChar

StartChar: macron
Encoding: 175 175 112
Width: 411
GlyphClass: 2
Flags: W
LayerCount: 2
Fore
SplineSet
75 609 m 1,0,-1
 75 672 l 1,1,-1
 336 672 l 1,2,-1
 336 609 l 1,3,-1
 75 609 l 1,0,-1
EndSplineSet
EndChar

StartChar: degree
Encoding: 176 176 113
Width: 399
GlyphClass: 2
Flags: W
LayerCount: 2
Fore
SplineSet
98.5 701.5 m 128,-1,1
 137 742 137 742 199.5 742 c 128,-1,2
 262 742 262 742 300.5 701.5 c 128,-1,3
 339 661 339 661 339 602 c 128,-1,4
 339 543 339 543 300.5 503 c 128,-1,5
 262 463 262 463 199.5 463 c 128,-1,6
 137 463 137 463 98.5 503.5 c 128,-1,7
 60 544 60 544 60 602.5 c 128,-1,0
 60 661 60 661 98.5 701.5 c 128,-1,1
271.5 673 m 128,-1,9
 244 702 244 702 199.5 702 c 128,-1,10
 155 702 155 702 127.5 673 c 128,-1,11
 100 644 100 644 100 602 c 128,-1,12
 100 560 100 560 127.5 531.5 c 128,-1,13
 155 503 155 503 199.5 503 c 128,-1,14
 244 503 244 503 271.5 531.5 c 128,-1,15
 299 560 299 560 299 602 c 128,-1,8
 299 644 299 644 271.5 673 c 128,-1,9
EndSplineSet
EndChar

StartChar: plusminus
Encoding: 177 177 114
Width: 550
GlyphClass: 2
Flags: W
LayerCount: 2
Fore
SplineSet
98 295 m 1,0,-1
 98 343 l 1,1,-1
 251 343 l 1,2,-1
 251 496 l 1,3,-1
 299 496 l 1,4,-1
 299 343 l 1,5,-1
 452 343 l 1,6,-1
 452 295 l 1,7,-1
 299 295 l 1,8,-1
 299 142 l 1,9,-1
 251 142 l 1,10,-1
 251 295 l 1,11,-1
 98 295 l 1,0,-1
98 0 m 1,12,-1
 98 48 l 1,13,-1
 452 48 l 1,14,-1
 452 0 l 1,15,-1
 98 0 l 1,12,-1
EndSplineSet
EndChar

StartChar: twosuperior
Encoding: 178 178 115
Width: 390
GlyphClass: 2
Flags: W
LayerCount: 2
Fore
SplineSet
277 683.5 m 128,-1,1
 311 661 311 661 311 609 c 128,-1,2
 311 557 311 557 265.5 496.5 c 128,-1,3
 220 436 220 436 126 343 c 1,4,5
 212 344 212 344 255 357 c 128,-1,6
 298 370 298 370 298 404 c 1,7,-1
 321 404 l 1,8,-1
 321 311 l 1,9,-1
 67 311 l 1,10,-1
 67 324 l 1,11,12
 152 409 152 409 201.5 485 c 128,-1,13
 251 561 251 561 251 613 c 0,14,15
 251 645 251 645 236.5 664 c 128,-1,16
 222 683 222 683 194 683 c 128,-1,17
 166 683 166 683 144.5 651.5 c 128,-1,18
 123 620 123 620 107 620 c 128,-1,19
 91 620 91 620 82.5 627.5 c 128,-1,20
 74 635 74 635 74 646 c 0,21,22
 74 672 74 672 108 689 c 128,-1,23
 142 706 142 706 192.5 706 c 128,-1,0
 243 706 243 706 277 683.5 c 128,-1,1
EndSplineSet
EndChar

StartChar: threesuperior
Encoding: 179 179 116
Width: 390
GlyphClass: 2
Flags: W
LayerCount: 2
Fore
SplineSet
301 619 m 0,0,1
 301 584 301 584 276.5 560 c 128,-1,2
 252 536 252 536 216 524 c 1,3,4
 267 518 267 518 292.5 489.5 c 128,-1,5
 318 461 318 461 318 427 c 0,6,7
 318 375 318 375 275 340 c 128,-1,8
 232 305 232 305 177 305 c 0,9,10
 100 305 100 305 60 356 c 1,11,-1
 81 374 l 1,12,13
 116 335 116 335 169 335 c 0,14,15
 206 335 206 335 232 358 c 128,-1,16
 258 381 258 381 258 419 c 0,17,18
 258 509 258 509 116 509 c 1,19,-1
 116 528 l 1,20,21
 162 528 162 528 201.5 551.5 c 128,-1,22
 241 575 241 575 241 619 c 0,23,24
 241 683 241 683 189 683 c 0,25,26
 172 683 172 683 159 673 c 128,-1,27
 146 663 146 663 140 651.5 c 128,-1,28
 134 640 134 640 123.5 630 c 128,-1,29
 113 620 113 620 100 620 c 128,-1,30
 87 620 87 620 78 627.5 c 128,-1,31
 69 635 69 635 69 646 c 0,32,33
 69 672 69 672 104 689 c 128,-1,34
 139 706 139 706 189 706 c 0,35,36
 301 706 301 706 301 619 c 0,0,1
EndSplineSet
EndChar

StartChar: acute
Encoding: 180 180 117
Width: 321
GlyphClass: 2
Flags: W
LayerCount: 2
Fore
SplineSet
184 709 m 2,0,1
 207 729 207 729 224.5 729 c 128,-1,2
 242 729 242 729 252 719 c 128,-1,3
 262 709 262 709 262 694 c 0,4,5
 262 666 262 666 227 647 c 2,6,-1
 65 564 l 1,7,-1
 50 587 l 1,8,-1
 184 709 l 2,0,1
EndSplineSet
EndChar

StartChar: mu
Encoding: 181 181 118
Width: 619
GlyphClass: 2
Flags: W
LayerCount: 2
Fore
SplineSet
425.5 188 m 128,-1,1
 433 228 433 228 433 275 c 128,-1,2
 433 322 433 322 431.5 354 c 128,-1,3
 430 386 430 386 426.5 410 c 128,-1,4
 423 434 423 434 414 444 c 0,5,6
 399 461 399 461 364 461 c 1,7,-1
 362 472 l 1,8,9
 389 479 389 479 503 483 c 1,10,-1
 503 222 l 2,11,12
 503 42 503 42 524 9 c 1,13,14
 484 -5 484 -5 443 -5 c 1,15,16
 433 53 433 53 433 129 c 1,17,18
 387 -10 387 -10 274 -10 c 0,19,20
 224 -10 224 -10 191 17 c 1,21,-1
 191 -52 l 2,22,23
 191 -232 191 -232 212 -265 c 1,24,25
 172 -279 172 -279 131 -279 c 1,26,27
 121 -221 121 -221 121 -145 c 2,28,-1
 121 247 l 2,29,30
 121 422 121 422 103 442 c 0,31,32
 87 461 87 461 52 461 c 1,33,-1
 50 472 l 1,34,35
 77 479 77 479 191 483 c 1,36,-1
 191 130 l 2,37,38
 191 74 191 74 212 47.5 c 128,-1,39
 233 21 233 21 279 21 c 128,-1,40
 325 21 325 21 355.5 46 c 128,-1,41
 386 71 386 71 402 109.5 c 128,-1,0
 418 148 418 148 425.5 188 c 128,-1,1
EndSplineSet
EndChar

StartChar: paragraph
Encoding: 182 182 119
Width: 633
GlyphClass: 2
Flags: W
LayerCount: 2
Fore
SplineSet
576 590 m 1,0,-1
 576 545 l 1,1,-1
 489 545 l 1,2,-1
 489 -194 l 1,3,-1
 438 -194 l 1,4,-1
 438 545 l 1,5,-1
 329 545 l 1,6,-1
 329 -194 l 1,7,-1
 278 -194 l 1,8,-1
 278 172 l 1,9,10
 192 172 192 172 130.5 233.5 c 128,-1,11
 69 295 69 295 69 381 c 128,-1,12
 69 467 69 467 130.5 528.5 c 128,-1,13
 192 590 192 590 278 590 c 2,14,-1
 576 590 l 1,0,-1
EndSplineSet
EndChar

StartChar: periodcentered
Encoding: 183 183 120
Width: 173
GlyphClass: 2
Flags: W
LayerCount: 2
Fore
SplineSet
49.5 330.5 m 128,-1,1
 65 346 65 346 87 346 c 128,-1,2
 109 346 109 346 124 330.5 c 128,-1,3
 139 315 139 315 139 292.5 c 128,-1,4
 139 270 139 270 123.5 255 c 128,-1,5
 108 240 108 240 86.5 240 c 128,-1,6
 65 240 65 240 49.5 255 c 128,-1,7
 34 270 34 270 34 292.5 c 128,-1,0
 34 315 34 315 49.5 330.5 c 128,-1,1
EndSplineSet
EndChar

StartChar: cedilla
Encoding: 184 184 121
Width: 450
GlyphClass: 2
Flags: W
LayerCount: 2
Fore
SplineSet
312.5 -88.5 m 128,-1,1
 345 -112 345 -112 345 -158.5 c 128,-1,2
 345 -205 345 -205 310 -231.5 c 128,-1,3
 275 -258 275 -258 223.5 -258 c 128,-1,4
 172 -258 172 -258 139 -219 c 1,5,-1
 157 -199 l 1,6,7
 182 -224 182 -224 215.5 -224 c 128,-1,8
 249 -224 249 -224 267 -205.5 c 128,-1,9
 285 -187 285 -187 285 -161 c 0,10,11
 285 -94 285 -94 190 -83 c 1,12,-1
 220 0 l 1,13,-1
 252 0 l 1,14,-1
 229 -65 l 1,15,0
 280 -65 280 -65 312.5 -88.5 c 128,-1,1
EndSplineSet
EndChar

StartChar: onesuperior
Encoding: 185 185 122
Width: 390
GlyphClass: 2
Flags: W
LayerCount: 2
Fore
SplineSet
236 449 m 2,0,1
 236 365 236 365 247 345.5 c 128,-1,2
 258 326 258 326 306 326 c 1,3,-1
 307 311 l 1,4,-1
 107 311 l 1,5,-1
 108 326 l 1,6,7
 157 326 157 326 167.5 345.5 c 128,-1,8
 178 365 178 365 178 449 c 2,9,-1
 178 606 l 2,10,11
 178 642 178 642 160 642 c 0,12,13
 146 642 146 642 87 617 c 1,14,-1
 79 638 l 1,15,16
 181 683 181 683 222 708 c 1,17,-1
 236 702 l 1,18,-1
 236 449 l 2,0,1
EndSplineSet
EndChar

StartChar: ordmasculine
Encoding: 186 186 123
Width: 406
GlyphClass: 2
Flags: W
LayerCount: 2
Fore
SplineSet
91 663 m 128,-1,1
 131 709 131 709 200 709 c 128,-1,2
 269 709 269 709 311.5 662.5 c 128,-1,3
 354 616 354 616 354 548 c 128,-1,4
 354 480 354 480 313 433.5 c 128,-1,5
 272 387 272 387 203 387 c 128,-1,6
 134 387 134 387 92.5 433.5 c 128,-1,7
 51 480 51 480 51 548.5 c 128,-1,0
 51 617 51 617 91 663 c 128,-1,1
135.5 444.5 m 128,-1,9
 160 404 160 404 203.5 404 c 128,-1,10
 247 404 247 404 270 444 c 128,-1,11
 293 484 293 484 293 547.5 c 128,-1,12
 293 611 293 611 269 651.5 c 128,-1,13
 245 692 245 692 200.5 692 c 128,-1,14
 156 692 156 692 133.5 652 c 128,-1,15
 111 612 111 612 111 548.5 c 128,-1,8
 111 485 111 485 135.5 444.5 c 128,-1,9
64 297 m 1,16,-1
 64 337 l 1,17,-1
 343 337 l 1,18,-1
 343 297 l 1,19,-1
 64 297 l 1,16,-1
EndSplineSet
EndChar

StartChar: guillemotright
Encoding: 187 187 124
Width: 459
GlyphClass: 2
Flags: W
LayerCount: 2
Fore
SplineSet
429 293 m 128,-1,1
 429 286 429 286 425 279.5 c 128,-1,2
 421 273 421 273 409.5 260 c 128,-1,3
 398 247 398 247 383 230 c 0,4,5
 334 177 334 177 278 103 c 1,6,-1
 250 124 l 1,7,-1
 342 293 l 1,8,-1
 250 462 l 1,9,-1
 278 483 l 1,10,11
 334 409 334 409 366 374 c 128,-1,12
 398 339 398 339 409.5 326 c 128,-1,13
 421 313 421 313 425 306.5 c 128,-1,0
 429 300 429 300 429 293 c 128,-1,1
259 293 m 128,-1,15
 259 286 259 286 255 279.5 c 128,-1,16
 251 273 251 273 239.5 260 c 128,-1,17
 228 247 228 247 213 230 c 0,18,19
 164 177 164 177 108 103 c 1,20,-1
 80 124 l 1,21,-1
 172 293 l 1,22,-1
 80 462 l 1,23,-1
 108 483 l 1,24,25
 164 409 164 409 196 374 c 128,-1,26
 228 339 228 339 239.5 326 c 128,-1,27
 251 313 251 313 255 306.5 c 128,-1,14
 259 300 259 300 259 293 c 128,-1,15
EndSplineSet
EndChar

StartChar: onequarter
Encoding: 188 188 125
Width: 877
GlyphClass: 2
Flags: W
LayerCount: 2
Fore
SplineSet
256 -40 m 1,0,-1
 558 683 l 1,1,-1
 609 683 l 1,2,-1
 307 -40 l 1,3,-1
 256 -40 l 1,0,-1
225 394 m 2,4,5
 225 310 225 310 236 290.5 c 128,-1,6
 247 271 247 271 295 271 c 1,7,-1
 296 256 l 1,8,-1
 96 256 l 1,9,-1
 97 271 l 1,10,11
 146 271 146 271 156.5 290.5 c 128,-1,12
 167 310 167 310 167 394 c 2,13,-1
 167 551 l 2,14,15
 167 587 167 587 149 587 c 0,16,17
 135 587 135 587 76 562 c 1,18,-1
 68 583 l 1,19,20
 170 628 170 628 211 653 c 1,21,-1
 225 647 l 1,22,-1
 225 394 l 2,4,5
667 109 m 1,23,-1
 667 303 l 1,24,-1
 531 109 l 1,25,-1
 667 109 l 1,23,-1
491 83 m 1,26,-1
 491 107 l 1,27,-1
 694 396 l 1,28,-1
 724 392 l 1,29,-1
 724 109 l 1,30,-1
 797 109 l 1,31,-1
 797 83 l 1,32,-1
 725 83 l 1,33,34
 726 39 726 39 739.5 27 c 128,-1,35
 753 15 753 15 794 15 c 1,36,-1
 795 0 l 1,37,-1
 596 0 l 1,38,-1
 597 15 l 1,39,40
 639 15 639 15 651.5 26.5 c 128,-1,41
 664 38 664 38 666 83 c 1,42,-1
 491 83 l 1,26,-1
EndSplineSet
EndChar

StartChar: onehalf
Encoding: 189 189 126
Width: 877
GlyphClass: 2
Flags: W
LayerCount: 2
Fore
SplineSet
236 -40 m 1,0,-1
 538 683 l 1,1,-1
 589 683 l 1,2,-1
 287 -40 l 1,3,-1
 236 -40 l 1,0,-1
225 394 m 2,4,5
 225 310 225 310 236 290.5 c 128,-1,6
 247 271 247 271 295 271 c 1,7,-1
 296 256 l 1,8,-1
 96 256 l 1,9,-1
 97 271 l 1,10,11
 146 271 146 271 156.5 290.5 c 128,-1,12
 167 310 167 310 167 394 c 2,13,-1
 167 551 l 2,14,15
 167 587 167 587 149 587 c 0,16,17
 135 587 135 587 76 562 c 1,18,-1
 68 583 l 1,19,20
 170 628 170 628 211 653 c 1,21,-1
 225 647 l 1,22,-1
 225 394 l 2,4,5
725 372.5 m 128,-1,24
 759 350 759 350 759 298 c 128,-1,25
 759 246 759 246 713.5 185.5 c 128,-1,26
 668 125 668 125 574 32 c 1,27,28
 660 33 660 33 703 46 c 128,-1,29
 746 59 746 59 746 93 c 1,30,-1
 769 93 l 1,31,-1
 769 0 l 1,32,-1
 515 0 l 1,33,-1
 515 13 l 1,34,35
 600 98 600 98 649.5 174 c 128,-1,36
 699 250 699 250 699 302 c 0,37,38
 699 334 699 334 684.5 353 c 128,-1,39
 670 372 670 372 647 372 c 128,-1,40
 624 372 624 372 611 362 c 128,-1,41
 598 352 598 352 592 340.5 c 128,-1,42
 586 329 586 329 575.5 319 c 128,-1,43
 565 309 565 309 552 309 c 128,-1,44
 539 309 539 309 530.5 316.5 c 128,-1,45
 522 324 522 324 522 335 c 0,46,47
 522 361 522 361 556 378 c 128,-1,48
 590 395 590 395 640.5 395 c 128,-1,23
 691 395 691 395 725 372.5 c 128,-1,24
EndSplineSet
EndChar

StartChar: threequarters
Encoding: 190 190 127
Width: 877
GlyphClass: 2
Flags: W
LayerCount: 2
Fore
SplineSet
266 -40 m 1,0,-1
 568 683 l 1,1,-1
 619 683 l 1,2,-1
 317 -40 l 1,3,-1
 266 -40 l 1,0,-1
300 564 m 0,4,5
 300 529 300 529 275.5 505 c 128,-1,6
 251 481 251 481 215 469 c 1,7,8
 266 463 266 463 291.5 434.5 c 128,-1,9
 317 406 317 406 317 372 c 0,10,11
 317 320 317 320 274 285 c 128,-1,12
 231 250 231 250 176 250 c 0,13,14
 99 250 99 250 59 301 c 1,15,-1
 80 319 l 1,16,17
 115 280 115 280 168 280 c 0,18,19
 205 280 205 280 231 303 c 128,-1,20
 257 326 257 326 257 364 c 0,21,22
 257 454 257 454 115 454 c 1,23,-1
 115 473 l 1,24,25
 161 473 161 473 200.5 496.5 c 128,-1,26
 240 520 240 520 240 564 c 0,27,28
 240 628 240 628 188 628 c 0,29,30
 166 628 166 628 152 612 c 128,-1,31
 138 596 138 596 126.5 580.5 c 128,-1,32
 115 565 115 565 100.5 565 c 128,-1,33
 86 565 86 565 77 572.5 c 128,-1,34
 68 580 68 580 68 591 c 0,35,36
 68 617 68 617 103 634 c 128,-1,37
 138 651 138 651 188 651 c 0,38,39
 300 651 300 651 300 564 c 0,4,5
667 109 m 1,40,-1
 667 303 l 1,41,-1
 531 109 l 1,42,-1
 667 109 l 1,40,-1
491 83 m 1,43,-1
 491 107 l 1,44,-1
 694 396 l 1,45,-1
 724 392 l 1,46,-1
 724 109 l 1,47,-1
 797 109 l 1,48,-1
 797 83 l 1,49,-1
 725 83 l 1,50,51
 726 39 726 39 739.5 27 c 128,-1,52
 753 15 753 15 794 15 c 1,53,-1
 795 0 l 1,54,-1
 596 0 l 1,55,-1
 597 15 l 1,56,57
 639 15 639 15 651.5 26.5 c 128,-1,58
 664 38 664 38 666 83 c 1,59,-1
 491 83 l 1,43,-1
EndSplineSet
EndChar

StartChar: questiondown
Encoding: 191 191 128
Width: 363
GlyphClass: 2
Flags: W
LayerCount: 2
Fore
SplineSet
289 -199.5 m 128,-1,1
 235 -236 235 -236 166 -236 c 128,-1,2
 97 -236 97 -236 56.5 -204 c 128,-1,3
 16 -172 16 -172 16 -109 c 0,4,5
 16 -47 16 -47 91 36 c 0,6,7
 122 71 122 71 153 104 c 0,8,9
 228 182 228 182 228 223 c 128,-1,10
 228 264 228 264 185 299 c 1,11,-1
 203 318 l 1,12,13
 275 256 275 256 275 193 c 0,14,15
 275 134 275 134 208 66 c 0,16,17
 180 37 180 37 152 8 c 0,18,19
 85 -60 85 -60 85 -121 c 0,20,21
 85 -210 85 -210 165 -210 c 0,22,23
 204 -210 204 -210 227.5 -191 c 128,-1,24
 251 -172 251 -172 258 -149 c 0,25,26
 278 -88 278 -88 313 -88 c 0,27,28
 325 -88 325 -88 334 -98 c 128,-1,29
 343 -108 343 -108 343 -124 c 0,30,0
 343 -163 343 -163 289 -199.5 c 128,-1,1
238.5 392.5 m 128,-1,32
 223 377 223 377 201 377 c 128,-1,33
 179 377 179 377 164 392.5 c 128,-1,34
 149 408 149 408 149 430.5 c 128,-1,35
 149 453 149 453 164.5 468 c 128,-1,36
 180 483 180 483 201.5 483 c 128,-1,37
 223 483 223 483 238.5 468 c 128,-1,38
 254 453 254 453 254 430.5 c 128,-1,31
 254 408 254 408 238.5 392.5 c 128,-1,32
EndSplineSet
EndChar

StartChar: Agrave
Encoding: 192 192 129
Width: 655
GlyphClass: 2
Flags: W
LayerCount: 2
Fore
SplineSet
496.5 18 m 128,-1,1
 512 24 512 24 512 49 c 128,-1,2
 512 74 512 74 459 219 c 1,3,-1
 154 219 l 1,4,5
 111 92 111 92 111 59.5 c 128,-1,6
 111 27 111 27 127.5 19.5 c 128,-1,7
 144 12 144 12 187 12 c 1,8,-1
 189 0 l 1,9,-1
 -36 0 l 1,10,-1
 -34 12 l 1,11,12
 -5 12 -5 12 11.5 17 c 128,-1,13
 28 22 28 22 47.5 43.5 c 128,-1,14
 67 65 67 65 85 106 c 128,-1,15
 103 147 103 147 128 221 c 2,16,-1
 217 478 l 2,17,18
 264 614 264 614 264 643 c 128,-1,19
 264 672 264 672 250 680.5 c 128,-1,20
 236 689 236 689 196 689 c 1,21,-1
 194 700 l 1,22,-1
 359 700 l 1,23,-1
 536 221 l 2,24,25
 581 102 581 102 596.5 70 c 128,-1,26
 612 38 612 38 626 29 c 0,27,28
 651 12 651 12 689 12 c 1,29,-1
 691 0 l 1,30,-1
 441 0 l 1,31,-1
 443 12 l 1,32,0
 481 12 481 12 496.5 18 c 128,-1,1
303 646 m 1,33,-1
 162 243 l 1,34,-1
 451 243 l 1,35,-1
 303 646 l 1,33,-1
197.5 859.5 m 128,-1,37
 209 869 209 869 224.5 869 c 128,-1,38
 240 869 240 869 260 856 c 2,39,-1
 423 757 l 1,40,-1
 412 732 l 1,41,-1
 229 788 l 2,42,43
 186 801 186 801 186 834 c 0,44,36
 186 850 186 850 197.5 859.5 c 128,-1,37
EndSplineSet
EndChar

StartChar: Aacute
Encoding: 193 193 130
Width: 655
GlyphClass: 2
Flags: W
LayerCount: 2
Fore
SplineSet
496.5 18 m 128,-1,1
 512 24 512 24 512 49 c 128,-1,2
 512 74 512 74 459 219 c 1,3,-1
 154 219 l 1,4,5
 111 92 111 92 111 59.5 c 128,-1,6
 111 27 111 27 127.5 19.5 c 128,-1,7
 144 12 144 12 187 12 c 1,8,-1
 189 0 l 1,9,-1
 -36 0 l 1,10,-1
 -34 12 l 1,11,12
 -5 12 -5 12 11.5 17 c 128,-1,13
 28 22 28 22 47.5 43.5 c 128,-1,14
 67 65 67 65 85 106 c 128,-1,15
 103 147 103 147 128 221 c 2,16,-1
 217 478 l 2,17,18
 264 614 264 614 264 643 c 128,-1,19
 264 672 264 672 250 680.5 c 128,-1,20
 236 689 236 689 196 689 c 1,21,-1
 194 700 l 1,22,-1
 359 700 l 1,23,-1
 536 221 l 2,24,25
 581 102 581 102 596.5 70 c 128,-1,26
 612 38 612 38 626 29 c 0,27,28
 651 12 651 12 689 12 c 1,29,-1
 691 0 l 1,30,-1
 441 0 l 1,31,-1
 443 12 l 1,32,0
 481 12 481 12 496.5 18 c 128,-1,1
303 646 m 1,33,-1
 162 243 l 1,34,-1
 451 243 l 1,35,-1
 303 646 l 1,33,-1
348 856 m 2,36,37
 368 869 368 869 383.5 869 c 128,-1,38
 399 869 399 869 410.5 859.5 c 128,-1,39
 422 850 422 850 422 834 c 0,40,41
 422 801 422 801 379 788 c 2,42,-1
 196 732 l 1,43,-1
 185 757 l 1,44,-1
 348 856 l 2,36,37
EndSplineSet
EndChar

StartChar: Acircumflex
Encoding: 194 194 131
Width: 655
GlyphClass: 2
Flags: W
LayerCount: 2
Fore
SplineSet
496.5 18 m 128,-1,1
 512 24 512 24 512 49 c 128,-1,2
 512 74 512 74 459 219 c 1,3,-1
 154 219 l 1,4,5
 111 92 111 92 111 59.5 c 128,-1,6
 111 27 111 27 127.5 19.5 c 128,-1,7
 144 12 144 12 187 12 c 1,8,-1
 189 0 l 1,9,-1
 -36 0 l 1,10,-1
 -34 12 l 1,11,12
 -5 12 -5 12 11.5 17 c 128,-1,13
 28 22 28 22 47.5 43.5 c 128,-1,14
 67 65 67 65 85 106 c 128,-1,15
 103 147 103 147 128 221 c 2,16,-1
 217 478 l 2,17,18
 264 614 264 614 264 643 c 128,-1,19
 264 672 264 672 250 680.5 c 128,-1,20
 236 689 236 689 196 689 c 1,21,-1
 194 700 l 1,22,-1
 359 700 l 1,23,-1
 536 221 l 2,24,25
 581 102 581 102 596.5 70 c 128,-1,26
 612 38 612 38 626 29 c 0,27,28
 651 12 651 12 689 12 c 1,29,-1
 691 0 l 1,30,-1
 441 0 l 1,31,-1
 443 12 l 1,32,0
 481 12 481 12 496.5 18 c 128,-1,1
303 646 m 1,33,-1
 162 243 l 1,34,-1
 451 243 l 1,35,-1
 303 646 l 1,33,-1
327 883 m 128,-1,37
 342 883 342 883 353 875.5 c 128,-1,38
 364 868 364 868 385 845 c 2,39,-1
 465 754 l 1,40,-1
 445 732 l 1,41,-1
 327 809 l 1,42,-1
 209 732 l 1,43,-1
 189 754 l 1,44,-1
 269 845 l 2,45,46
 290 868 290 868 301 875.5 c 128,-1,36
 312 883 312 883 327 883 c 128,-1,37
EndSplineSet
EndChar

StartChar: Atilde
Encoding: 195 195 132
Width: 655
GlyphClass: 2
Flags: W
LayerCount: 2
Fore
SplineSet
496.5 18 m 128,-1,1
 512 24 512 24 512 49 c 128,-1,2
 512 74 512 74 459 219 c 1,3,-1
 154 219 l 1,4,5
 111 92 111 92 111 59.5 c 128,-1,6
 111 27 111 27 127.5 19.5 c 128,-1,7
 144 12 144 12 187 12 c 1,8,-1
 189 0 l 1,9,-1
 -36 0 l 1,10,-1
 -34 12 l 1,11,12
 -5 12 -5 12 11.5 17 c 128,-1,13
 28 22 28 22 47.5 43.5 c 128,-1,14
 67 65 67 65 85 106 c 128,-1,15
 103 147 103 147 128 221 c 2,16,-1
 217 478 l 2,17,18
 264 614 264 614 264 643 c 128,-1,19
 264 672 264 672 250 680.5 c 128,-1,20
 236 689 236 689 196 689 c 1,21,-1
 194 700 l 1,22,-1
 359 700 l 1,23,-1
 536 221 l 2,24,25
 581 102 581 102 596.5 70 c 128,-1,26
 612 38 612 38 626 29 c 0,27,28
 651 12 651 12 689 12 c 1,29,-1
 691 0 l 1,30,-1
 441 0 l 1,31,-1
 443 12 l 1,32,0
 481 12 481 12 496.5 18 c 128,-1,1
303 646 m 1,33,-1
 162 243 l 1,34,-1
 451 243 l 1,35,-1
 303 646 l 1,33,-1
396 746 m 0,36,37
 368 746 368 746 324.5 767 c 128,-1,38
 281 788 281 788 258 788 c 0,39,40
 219 788 219 788 201 743 c 1,41,-1
 177 752 l 1,42,43
 199 855 199 855 259 855 c 0,44,45
 287 855 287 855 330.5 834 c 128,-1,46
 374 813 374 813 397 813 c 0,47,48
 436 813 436 813 454 858 c 1,49,-1
 478 849 l 1,50,51
 456 746 456 746 396 746 c 0,36,37
EndSplineSet
EndChar

StartChar: Adieresis
Encoding: 196 196 133
Width: 655
GlyphClass: 2
Flags: W
LayerCount: 2
Fore
SplineSet
496.5 18 m 128,-1,1
 512 24 512 24 512 49 c 128,-1,2
 512 74 512 74 459 219 c 1,3,-1
 154 219 l 1,4,5
 111 92 111 92 111 59.5 c 128,-1,6
 111 27 111 27 127.5 19.5 c 128,-1,7
 144 12 144 12 187 12 c 1,8,-1
 189 0 l 1,9,-1
 -36 0 l 1,10,-1
 -34 12 l 1,11,12
 -5 12 -5 12 11.5 17 c 128,-1,13
 28 22 28 22 47.5 43.5 c 128,-1,14
 67 65 67 65 85 106 c 128,-1,15
 103 147 103 147 128 221 c 2,16,-1
 217 478 l 2,17,18
 264 614 264 614 264 643 c 128,-1,19
 264 672 264 672 250 680.5 c 128,-1,20
 236 689 236 689 196 689 c 1,21,-1
 194 700 l 1,22,-1
 359 700 l 1,23,-1
 536 221 l 2,24,25
 581 102 581 102 596.5 70 c 128,-1,26
 612 38 612 38 626 29 c 0,27,28
 651 12 651 12 689 12 c 1,29,-1
 691 0 l 1,30,-1
 441 0 l 1,31,-1
 443 12 l 1,32,0
 481 12 481 12 496.5 18 c 128,-1,1
303 646 m 1,33,-1
 162 243 l 1,34,-1
 451 243 l 1,35,-1
 303 646 l 1,33,-1
146 793 m 128,-1,37
 146 815 146 815 162 831 c 128,-1,38
 178 847 178 847 200 847 c 128,-1,39
 222 847 222 847 238 831 c 128,-1,40
 254 815 254 815 254 793 c 128,-1,41
 254 771 254 771 238 755 c 128,-1,42
 222 739 222 739 200 739 c 128,-1,43
 178 739 178 739 162 755 c 128,-1,36
 146 771 146 771 146 793 c 128,-1,37
353 793 m 128,-1,45
 353 815 353 815 369 831 c 128,-1,46
 385 847 385 847 407 847 c 128,-1,47
 429 847 429 847 445 831 c 128,-1,48
 461 815 461 815 461 793 c 128,-1,49
 461 771 461 771 445 755 c 128,-1,50
 429 739 429 739 407 739 c 128,-1,51
 385 739 385 739 369 755 c 128,-1,44
 353 771 353 771 353 793 c 128,-1,45
EndSplineSet
EndChar

StartChar: Aring
Encoding: 197 197 134
Width: 655
GlyphClass: 2
Flags: W
LayerCount: 2
Fore
SplineSet
231.5 863.5 m 128,-1,1
 259 892 259 892 303.5 892 c 128,-1,2
 348 892 348 892 375 863.5 c 128,-1,3
 402 835 402 835 402 798 c 128,-1,4
 402 761 402 761 385 735.5 c 128,-1,5
 368 710 368 710 339 700 c 1,6,-1
 359 700 l 1,7,-1
 536 221 l 2,8,9
 581 102 581 102 596.5 70 c 128,-1,10
 612 38 612 38 626 29 c 0,11,12
 651 12 651 12 689 12 c 1,13,-1
 691 0 l 1,14,-1
 441 0 l 1,15,-1
 443 12 l 1,16,17
 481 12 481 12 496.5 18 c 128,-1,18
 512 24 512 24 512 49 c 128,-1,19
 512 74 512 74 459 219 c 1,20,-1
 154 219 l 1,21,22
 111 92 111 92 111 59.5 c 128,-1,23
 111 27 111 27 127.5 19.5 c 128,-1,24
 144 12 144 12 187 12 c 1,25,-1
 189 0 l 1,26,-1
 -36 0 l 1,27,-1
 -34 12 l 1,28,29
 -5 12 -5 12 11.5 17 c 128,-1,30
 28 22 28 22 47.5 43.5 c 128,-1,31
 67 65 67 65 85 106 c 128,-1,32
 103 147 103 147 128 221 c 2,33,-1
 217 478 l 2,34,35
 264 614 264 614 264 643 c 128,-1,36
 264 672 264 672 250 680.5 c 128,-1,37
 236 689 236 689 196 689 c 1,38,-1
 194 700 l 1,39,-1
 267 700 l 1,40,41
 238 710 238 710 221 735.5 c 128,-1,42
 204 761 204 761 204 798 c 128,-1,0
 204 835 204 835 231.5 863.5 c 128,-1,1
303 646 m 1,43,-1
 162 243 l 1,44,-1
 451 243 l 1,45,-1
 303 646 l 1,43,-1
303 732 m 128,-1,47
 324 732 324 732 335.5 749 c 128,-1,48
 347 766 347 766 347 792 c 128,-1,49
 347 818 347 818 335 835.5 c 128,-1,50
 323 853 323 853 302.5 853 c 128,-1,51
 282 853 282 853 270 835.5 c 128,-1,52
 258 818 258 818 258 792 c 128,-1,53
 258 766 258 766 270 749 c 128,-1,46
 282 732 282 732 303 732 c 128,-1,47
EndSplineSet
EndChar

StartChar: AE
Encoding: 198 198 135
Width: 923
GlyphClass: 2
Flags: W
LayerCount: 2
Fore
SplineSet
861 0 m 1,0,-1
 357 0 l 1,1,-1
 359 12 l 1,2,3
 409 12 409 12 432 31 c 0,4,5
 457 52 457 52 457 226 c 2,6,-1
 457 340 l 1,7,-1
 213 340 l 1,8,-1
 161 219 l 2,9,10
 153 201 153 201 141.5 174.5 c 128,-1,11
 130 148 130 148 123.5 134 c 128,-1,12
 117 120 117 120 110 103 c 0,13,14
 98 70 98 70 98 48.5 c 128,-1,15
 98 27 98 27 114.5 19.5 c 128,-1,16
 131 12 131 12 174 12 c 1,17,-1
 176 0 l 1,18,-1
 -50 0 l 1,19,-1
 -48 12 l 1,20,21
 -10 12 -10 12 14 24 c 1,22,23
 61 50 61 50 134 221 c 2,24,-1
 244 478 l 2,25,26
 291 589 291 589 291 649 c 0,27,28
 291 672 291 672 277 680.5 c 128,-1,29
 263 689 263 689 223 689 c 1,30,-1
 221 700 l 1,31,-1
 824 700 l 1,32,-1
 824 556 l 1,33,-1
 812 558 l 1,34,35
 812 625 812 625 741.5 651 c 128,-1,36
 671 677 671 677 526 677 c 1,37,-1
 526 362 l 1,38,39
 622 362 622 362 664 372 c 128,-1,40
 706 382 706 382 718 402.5 c 128,-1,41
 730 423 730 423 730 471 c 1,42,-1
 741 473 l 1,43,-1
 741 230 l 1,44,-1
 730 232 l 1,45,46
 730 281 730 281 718 301 c 128,-1,47
 706 321 706 321 664 330.5 c 128,-1,48
 622 340 622 340 526 340 c 1,49,-1
 526 211 l 2,50,51
 526 105 526 105 533.5 70 c 128,-1,52
 541 35 541 35 567 23 c 1,53,54
 849 23 849 23 849 143 c 1,55,-1
 861 145 l 1,56,-1
 861 0 l 1,0,-1
457 362 m 1,57,-1
 457 464 l 2,58,59
 457 614 457 614 442 646 c 0,60,61
 428 674 428 674 398 680 c 0,62,63
 383 682 383 682 359 682 c 1,64,-1
 222 362 l 1,65,-1
 457 362 l 1,57,-1
EndSplineSet
EndChar

StartChar: Ccedilla
Encoding: 199 199 136
Width: 712
GlyphClass: 2
Flags: W
LayerCount: 2
Fore
SplineSet
407 -10 m 1,0,-1
 382 -9 l 1,1,-1
 363 -65 l 1,2,3
 414 -65 414 -65 446.5 -88.5 c 128,-1,4
 479 -112 479 -112 479 -158.5 c 128,-1,5
 479 -205 479 -205 444 -231.5 c 128,-1,6
 409 -258 409 -258 357.5 -258 c 128,-1,7
 306 -258 306 -258 273 -219 c 1,8,-1
 291 -199 l 1,9,10
 316 -224 316 -224 349.5 -224 c 128,-1,11
 383 -224 383 -224 401 -205.5 c 128,-1,12
 419 -187 419 -187 419 -161 c 0,13,14
 419 -94 419 -94 324 -83 c 1,15,-1
 351 -6 l 1,16,17
 214 12 214 12 132 111 c 128,-1,18
 50 210 50 210 50 357 c 128,-1,19
 50 504 50 504 144.5 606.5 c 128,-1,20
 239 709 239 709 399 709 c 0,21,22
 473 709 473 709 547 689 c 128,-1,23
 621 669 621 669 659 648 c 1,24,-1
 659 520 l 1,25,-1
 648 522 l 1,26,27
 623 612 623 612 561.5 649 c 128,-1,28
 500 686 500 686 399 686 c 0,29,30
 271 686 271 686 204 593.5 c 128,-1,31
 137 501 137 501 137 352 c 128,-1,32
 137 203 137 203 208 111 c 128,-1,33
 279 19 279 19 407 19 c 0,34,35
 499 19 499 19 560.5 41.5 c 128,-1,36
 622 64 622 64 682 107 c 1,37,-1
 682 77 l 1,38,39
 567 -10 567 -10 407 -10 c 1,0,-1
EndSplineSet
EndChar

StartChar: Egrave
Encoding: 200 200 137
Width: 616
GlyphClass: 2
Flags: W
LayerCount: 2
Fore
SplineSet
554 0 m 1,0,-1
 50 0 l 1,1,-1
 52 12 l 1,2,3
 102 12 102 12 125 31 c 0,4,5
 150 52 150 52 150 226 c 2,6,-1
 150 474 l 2,7,8
 150 581 150 581 143.5 620.5 c 128,-1,9
 137 660 137 660 125 670 c 0,10,11
 102 689 102 689 52 689 c 1,12,-1
 50 700 l 1,13,-1
 517 700 l 1,14,-1
 517 556 l 1,15,-1
 505 558 l 1,16,17
 505 625 505 625 434.5 651 c 128,-1,18
 364 677 364 677 219 677 c 1,19,-1
 219 362 l 1,20,21
 315 362 315 362 357 372 c 128,-1,22
 399 382 399 382 411 402.5 c 128,-1,23
 423 423 423 423 423 471 c 1,24,-1
 434 473 l 1,25,-1
 434 230 l 1,26,-1
 423 232 l 1,27,28
 423 281 423 281 411 301 c 128,-1,29
 399 321 399 321 357 330.5 c 128,-1,30
 315 340 315 340 219 340 c 1,31,-1
 219 211 l 2,32,33
 219 105 219 105 226.5 70 c 128,-1,34
 234 35 234 35 260 23 c 1,35,36
 542 23 542 23 542 143 c 1,37,-1
 554 145 l 1,38,-1
 554 0 l 1,0,-1
200.5 859.5 m 128,-1,40
 212 869 212 869 227.5 869 c 128,-1,41
 243 869 243 869 263 856 c 2,42,-1
 426 757 l 1,43,-1
 415 732 l 1,44,-1
 232 788 l 2,45,46
 189 801 189 801 189 834 c 0,47,39
 189 850 189 850 200.5 859.5 c 128,-1,40
EndSplineSet
EndChar

StartChar: Eacute
Encoding: 201 201 138
Width: 616
GlyphClass: 2
Flags: W
LayerCount: 2
Fore
SplineSet
554 0 m 1,0,-1
 50 0 l 1,1,-1
 52 12 l 1,2,3
 102 12 102 12 125 31 c 0,4,5
 150 52 150 52 150 226 c 2,6,-1
 150 474 l 2,7,8
 150 581 150 581 143.5 620.5 c 128,-1,9
 137 660 137 660 125 670 c 0,10,11
 102 689 102 689 52 689 c 1,12,-1
 50 700 l 1,13,-1
 517 700 l 1,14,-1
 517 556 l 1,15,-1
 505 558 l 1,16,17
 505 625 505 625 434.5 651 c 128,-1,18
 364 677 364 677 219 677 c 1,19,-1
 219 362 l 1,20,21
 315 362 315 362 357 372 c 128,-1,22
 399 382 399 382 411 402.5 c 128,-1,23
 423 423 423 423 423 471 c 1,24,-1
 434 473 l 1,25,-1
 434 230 l 1,26,-1
 423 232 l 1,27,28
 423 281 423 281 411 301 c 128,-1,29
 399 321 399 321 357 330.5 c 128,-1,30
 315 340 315 340 219 340 c 1,31,-1
 219 211 l 2,32,33
 219 105 219 105 226.5 70 c 128,-1,34
 234 35 234 35 260 23 c 1,35,36
 542 23 542 23 542 143 c 1,37,-1
 554 145 l 1,38,-1
 554 0 l 1,0,-1
372 856 m 2,39,40
 392 869 392 869 407.5 869 c 128,-1,41
 423 869 423 869 434.5 859.5 c 128,-1,42
 446 850 446 850 446 834 c 0,43,44
 446 801 446 801 403 788 c 2,45,-1
 220 732 l 1,46,-1
 209 757 l 1,47,-1
 372 856 l 2,39,40
EndSplineSet
EndChar

StartChar: Ecircumflex
Encoding: 202 202 139
Width: 616
GlyphClass: 2
Flags: W
LayerCount: 2
Fore
SplineSet
554 0 m 1,0,-1
 50 0 l 1,1,-1
 52 12 l 1,2,3
 102 12 102 12 125 31 c 0,4,5
 150 52 150 52 150 226 c 2,6,-1
 150 474 l 2,7,8
 150 581 150 581 143.5 620.5 c 128,-1,9
 137 660 137 660 125 670 c 0,10,11
 102 689 102 689 52 689 c 1,12,-1
 50 700 l 1,13,-1
 517 700 l 1,14,-1
 517 556 l 1,15,-1
 505 558 l 1,16,17
 505 625 505 625 434.5 651 c 128,-1,18
 364 677 364 677 219 677 c 1,19,-1
 219 362 l 1,20,21
 315 362 315 362 357 372 c 128,-1,22
 399 382 399 382 411 402.5 c 128,-1,23
 423 423 423 423 423 471 c 1,24,-1
 434 473 l 1,25,-1
 434 230 l 1,26,-1
 423 232 l 1,27,28
 423 281 423 281 411 301 c 128,-1,29
 399 321 399 321 357 330.5 c 128,-1,30
 315 340 315 340 219 340 c 1,31,-1
 219 211 l 2,32,33
 219 105 219 105 226.5 70 c 128,-1,34
 234 35 234 35 260 23 c 1,35,36
 542 23 542 23 542 143 c 1,37,-1
 554 145 l 1,38,-1
 554 0 l 1,0,-1
308 883 m 128,-1,40
 323 883 323 883 334 875.5 c 128,-1,41
 345 868 345 868 366 845 c 2,42,-1
 446 754 l 1,43,-1
 426 732 l 1,44,-1
 308 809 l 1,45,-1
 190 732 l 1,46,-1
 170 754 l 1,47,-1
 250 845 l 2,48,49
 271 868 271 868 282 875.5 c 128,-1,39
 293 883 293 883 308 883 c 128,-1,40
EndSplineSet
EndChar

StartChar: Edieresis
Encoding: 203 203 140
Width: 616
GlyphClass: 2
Flags: W
LayerCount: 2
Fore
SplineSet
554 0 m 1,0,-1
 50 0 l 1,1,-1
 52 12 l 1,2,3
 102 12 102 12 125 31 c 0,4,5
 150 52 150 52 150 226 c 2,6,-1
 150 474 l 2,7,8
 150 581 150 581 143.5 620.5 c 128,-1,9
 137 660 137 660 125 670 c 0,10,11
 102 689 102 689 52 689 c 1,12,-1
 50 700 l 1,13,-1
 517 700 l 1,14,-1
 517 556 l 1,15,-1
 505 558 l 1,16,17
 505 625 505 625 434.5 651 c 128,-1,18
 364 677 364 677 219 677 c 1,19,-1
 219 362 l 1,20,21
 315 362 315 362 357 372 c 128,-1,22
 399 382 399 382 411 402.5 c 128,-1,23
 423 423 423 423 423 471 c 1,24,-1
 434 473 l 1,25,-1
 434 230 l 1,26,-1
 423 232 l 1,27,28
 423 281 423 281 411 301 c 128,-1,29
 399 321 399 321 357 330.5 c 128,-1,30
 315 340 315 340 219 340 c 1,31,-1
 219 211 l 2,32,33
 219 105 219 105 226.5 70 c 128,-1,34
 234 35 234 35 260 23 c 1,35,36
 542 23 542 23 542 143 c 1,37,-1
 554 145 l 1,38,-1
 554 0 l 1,0,-1
150 793 m 128,-1,40
 150 815 150 815 166 831 c 128,-1,41
 182 847 182 847 204 847 c 128,-1,42
 226 847 226 847 242 831 c 128,-1,43
 258 815 258 815 258 793 c 128,-1,44
 258 771 258 771 242 755 c 128,-1,45
 226 739 226 739 204 739 c 128,-1,46
 182 739 182 739 166 755 c 128,-1,39
 150 771 150 771 150 793 c 128,-1,40
357 793 m 128,-1,48
 357 815 357 815 373 831 c 128,-1,49
 389 847 389 847 411 847 c 128,-1,50
 433 847 433 847 449 831 c 128,-1,51
 465 815 465 815 465 793 c 128,-1,52
 465 771 465 771 449 755 c 128,-1,53
 433 739 433 739 411 739 c 128,-1,54
 389 739 389 739 373 755 c 128,-1,47
 357 771 357 771 357 793 c 128,-1,48
EndSplineSet
EndChar

StartChar: Igrave
Encoding: 204 204 141
Width: 370
GlyphClass: 2
Flags: W
LayerCount: 2
Fore
SplineSet
220 474 m 2,0,-1
 220 226 l 2,1,2
 220 119 220 119 226.5 80 c 128,-1,3
 233 41 233 41 245 31 c 0,4,5
 268 12 268 12 318 12 c 1,6,-1
 320 0 l 1,7,-1
 50 0 l 1,8,-1
 52 12 l 1,9,10
 77 12 77 12 91 14 c 128,-1,11
 105 16 105 16 117.5 25 c 128,-1,12
 130 34 130 34 135.5 45.5 c 128,-1,13
 141 57 141 57 145 84 c 0,14,15
 150 119 150 119 150 226 c 2,16,-1
 150 474 l 2,17,18
 150 578 150 578 144 619 c 128,-1,19
 138 660 138 660 126 670 c 0,20,21
 102 689 102 689 52 689 c 1,22,-1
 50 700 l 1,23,-1
 320 700 l 1,24,-1
 318 689 l 1,25,26
 268 689 268 689 245 670 c 0,27,28
 220 649 220 649 220 474 c 2,0,-1
77.5 859.5 m 128,-1,30
 89 869 89 869 104.5 869 c 128,-1,31
 120 869 120 869 140 856 c 2,32,-1
 303 757 l 1,33,-1
 292 732 l 1,34,-1
 109 788 l 2,35,36
 66 801 66 801 66 834 c 0,37,29
 66 850 66 850 77.5 859.5 c 128,-1,30
EndSplineSet
EndChar

StartChar: Iacute
Encoding: 205 205 142
Width: 370
GlyphClass: 2
Flags: W
LayerCount: 2
Fore
SplineSet
220 474 m 2,0,-1
 220 226 l 2,1,2
 220 119 220 119 226.5 80 c 128,-1,3
 233 41 233 41 245 31 c 0,4,5
 268 12 268 12 318 12 c 1,6,-1
 320 0 l 1,7,-1
 50 0 l 1,8,-1
 52 12 l 1,9,10
 77 12 77 12 91 14 c 128,-1,11
 105 16 105 16 117.5 25 c 128,-1,12
 130 34 130 34 135.5 45.5 c 128,-1,13
 141 57 141 57 145 84 c 0,14,15
 150 119 150 119 150 226 c 2,16,-1
 150 474 l 2,17,18
 150 578 150 578 144 619 c 128,-1,19
 138 660 138 660 126 670 c 0,20,21
 102 689 102 689 52 689 c 1,22,-1
 50 700 l 1,23,-1
 320 700 l 1,24,-1
 318 689 l 1,25,26
 268 689 268 689 245 670 c 0,27,28
 220 649 220 649 220 474 c 2,0,-1
229 856 m 2,29,30
 249 869 249 869 264.5 869 c 128,-1,31
 280 869 280 869 291.5 859.5 c 128,-1,32
 303 850 303 850 303 834 c 0,33,34
 303 801 303 801 260 788 c 2,35,-1
 77 732 l 1,36,-1
 66 757 l 1,37,-1
 229 856 l 2,29,30
EndSplineSet
EndChar

StartChar: Icircumflex
Encoding: 206 206 143
Width: 370
GlyphClass: 2
Flags: W
LayerCount: 2
Fore
SplineSet
220 474 m 2,0,-1
 220 226 l 2,1,2
 220 119 220 119 226.5 80 c 128,-1,3
 233 41 233 41 245 31 c 0,4,5
 268 12 268 12 318 12 c 1,6,-1
 320 0 l 1,7,-1
 50 0 l 1,8,-1
 52 12 l 1,9,10
 77 12 77 12 91 14 c 128,-1,11
 105 16 105 16 117.5 25 c 128,-1,12
 130 34 130 34 135.5 45.5 c 128,-1,13
 141 57 141 57 145 84 c 0,14,15
 150 119 150 119 150 226 c 2,16,-1
 150 474 l 2,17,18
 150 578 150 578 144 619 c 128,-1,19
 138 660 138 660 126 670 c 0,20,21
 102 689 102 689 52 689 c 1,22,-1
 50 700 l 1,23,-1
 320 700 l 1,24,-1
 318 689 l 1,25,26
 268 689 268 689 245 670 c 0,27,28
 220 649 220 649 220 474 c 2,0,-1
185 883 m 128,-1,30
 200 883 200 883 211 875.5 c 128,-1,31
 222 868 222 868 243 845 c 2,32,-1
 323 754 l 1,33,-1
 303 732 l 1,34,-1
 185 809 l 1,35,-1
 67 732 l 1,36,-1
 47 754 l 1,37,-1
 127 845 l 2,38,39
 148 868 148 868 159 875.5 c 128,-1,29
 170 883 170 883 185 883 c 128,-1,30
EndSplineSet
EndChar

StartChar: Idieresis
Encoding: 207 207 144
Width: 370
GlyphClass: 2
Flags: W
LayerCount: 2
Fore
SplineSet
220 474 m 2,0,-1
 220 226 l 2,1,2
 220 119 220 119 226.5 80 c 128,-1,3
 233 41 233 41 245 31 c 0,4,5
 268 12 268 12 318 12 c 1,6,-1
 320 0 l 1,7,-1
 50 0 l 1,8,-1
 52 12 l 1,9,10
 77 12 77 12 91 14 c 128,-1,11
 105 16 105 16 117.5 25 c 128,-1,12
 130 34 130 34 135.5 45.5 c 128,-1,13
 141 57 141 57 145 84 c 0,14,15
 150 119 150 119 150 226 c 2,16,-1
 150 474 l 2,17,18
 150 578 150 578 144 619 c 128,-1,19
 138 660 138 660 126 670 c 0,20,21
 102 689 102 689 52 689 c 1,22,-1
 50 700 l 1,23,-1
 320 700 l 1,24,-1
 318 689 l 1,25,26
 268 689 268 689 245 670 c 0,27,28
 220 649 220 649 220 474 c 2,0,-1
28 793 m 128,-1,30
 28 815 28 815 44 831 c 128,-1,31
 60 847 60 847 82 847 c 128,-1,32
 104 847 104 847 120 831 c 128,-1,33
 136 815 136 815 136 793 c 128,-1,34
 136 771 136 771 120 755 c 128,-1,35
 104 739 104 739 82 739 c 128,-1,36
 60 739 60 739 44 755 c 128,-1,29
 28 771 28 771 28 793 c 128,-1,30
235 793 m 128,-1,38
 235 815 235 815 251 831 c 128,-1,39
 267 847 267 847 289 847 c 128,-1,40
 311 847 311 847 327 831 c 128,-1,41
 343 815 343 815 343 793 c 128,-1,42
 343 771 343 771 327 755 c 128,-1,43
 311 739 311 739 289 739 c 128,-1,44
 267 739 267 739 251 755 c 128,-1,37
 235 771 235 771 235 793 c 128,-1,38
EndSplineSet
EndChar

StartChar: Eth
Encoding: 208 208 145
Width: 764
GlyphClass: 2
Flags: W
LayerCount: 2
Fore
SplineSet
50 326 m 1,0,-1
 50 376 l 1,1,-1
 150 376 l 1,2,-1
 150 474 l 2,3,4
 150 581 150 581 143.5 620.5 c 128,-1,5
 137 660 137 660 125 670 c 0,6,7
 102 689 102 689 52 689 c 1,8,-1
 50 700 l 1,9,-1
 252 700 l 2,10,11
 424 700 424 700 510 670 c 0,12,13
 549 656 549 656 593 630 c 128,-1,14
 637 604 637 604 664.5 568 c 128,-1,15
 692 532 692 532 710.5 476 c 128,-1,16
 729 420 729 420 729 350.5 c 128,-1,17
 729 281 729 281 710.5 225.5 c 128,-1,18
 692 170 692 170 664.5 134 c 128,-1,19
 637 98 637 98 596.5 71.5 c 128,-1,20
 556 45 556 45 520 32 c 128,-1,21
 484 19 484 19 440 11 c 0,22,23
 381 0 381 0 319 0 c 2,24,-1
 50 0 l 1,25,-1
 52 12 l 1,26,27
 102 12 102 12 125 31 c 0,28,29
 150 52 150 52 150 226 c 2,30,-1
 150 326 l 1,31,-1
 50 326 l 1,0,-1
257 24 m 1,32,33
 269 23 269 23 306.5 23 c 128,-1,34
 344 23 344 23 388.5 31 c 128,-1,35
 433 39 433 39 480.5 61.5 c 128,-1,36
 528 84 528 84 562.5 119 c 128,-1,37
 597 154 597 154 619.5 213.5 c 128,-1,38
 642 273 642 273 642 349.5 c 128,-1,39
 642 426 642 426 620 485 c 128,-1,40
 598 544 598 544 563 579.5 c 128,-1,41
 528 615 528 615 481 638 c 0,42,43
 398 677 398 677 298 677 c 0,44,45
 253 677 253 677 220 671 c 1,46,-1
 220 376 l 1,47,-1
 390 376 l 1,48,-1
 390 326 l 1,49,-1
 220 326 l 1,50,-1
 220 214 l 2,51,52
 220 106 220 106 226 71 c 128,-1,53
 232 36 232 36 257 24 c 1,32,33
EndSplineSet
EndChar

StartChar: Ntilde
Encoding: 209 209 146
Width: 827
GlyphClass: 2
Flags: W
LayerCount: 2
Fore
SplineSet
677 475 m 2,0,-1
 677 -5 l 1,1,-1
 646 -5 l 1,2,-1
 175 590 l 1,3,-1
 175 228 l 2,4,5
 175 128 175 128 184 84 c 128,-1,6
 193 40 193 40 214 26 c 128,-1,7
 235 12 235 12 283 12 c 1,8,-1
 285 0 l 1,9,-1
 39 0 l 1,10,-1
 41 12 l 1,11,12
 89 12 89 12 110 26 c 128,-1,13
 131 40 131 40 140.5 84 c 128,-1,14
 150 128 150 128 150 228 c 2,15,-1
 150 475 l 2,16,17
 150 575 150 575 140.5 618.5 c 128,-1,18
 131 662 131 662 110.5 675.5 c 128,-1,19
 90 689 90 689 41 689 c 1,20,-1
 39 700 l 1,21,-1
 175 700 l 1,22,-1
 652 105 l 1,23,-1
 652 475 l 2,24,25
 652 574 652 574 642.5 618 c 128,-1,26
 633 662 633 662 612 675.5 c 128,-1,27
 591 689 591 689 542 689 c 1,28,-1
 540 700 l 1,29,-1
 788 700 l 1,30,-1
 786 689 l 1,31,32
 737 689 737 689 716 675.5 c 128,-1,33
 695 662 695 662 686 618 c 128,-1,34
 677 574 677 574 677 475 c 2,0,-1
482 746 m 0,35,36
 454 746 454 746 410.5 767 c 128,-1,37
 367 788 367 788 344 788 c 0,38,39
 305 788 305 788 287 743 c 1,40,-1
 263 752 l 1,41,42
 285 855 285 855 345 855 c 0,43,44
 373 855 373 855 416.5 834 c 128,-1,45
 460 813 460 813 483 813 c 0,46,47
 522 813 522 813 540 858 c 1,48,-1
 564 849 l 1,49,50
 542 746 542 746 482 746 c 0,35,36
EndSplineSet
EndChar

StartChar: Ograve
Encoding: 210 210 147
Width: 772
GlyphClass: 2
Flags: W
LayerCount: 2
Fore
SplineSet
640.5 610.5 m 128,-1,1
 737 512 737 512 737 355.5 c 128,-1,2
 737 199 737 199 643.5 94.5 c 128,-1,3
 550 -10 550 -10 390 -10 c 128,-1,4
 230 -10 230 -10 132.5 95 c 128,-1,5
 35 200 35 200 35 356.5 c 128,-1,6
 35 513 35 513 128.5 611 c 128,-1,7
 222 709 222 709 383 709 c 128,-1,0
 544 709 544 709 640.5 610.5 c 128,-1,1
583.5 105.5 m 128,-1,9
 650 198 650 198 650 349 c 128,-1,10
 650 500 650 500 580 593 c 128,-1,11
 510 686 510 686 382.5 686 c 128,-1,12
 255 686 255 686 188.5 594 c 128,-1,13
 122 502 122 502 122 350.5 c 128,-1,14
 122 199 122 199 192 106 c 128,-1,15
 262 13 262 13 389.5 13 c 128,-1,8
 517 13 517 13 583.5 105.5 c 128,-1,9
278.5 859.5 m 128,-1,17
 290 869 290 869 305.5 869 c 128,-1,18
 321 869 321 869 341 856 c 2,19,-1
 504 757 l 1,20,-1
 493 732 l 1,21,-1
 310 788 l 2,22,23
 267 801 267 801 267 834 c 0,24,16
 267 850 267 850 278.5 859.5 c 128,-1,17
EndSplineSet
EndChar

StartChar: Oacute
Encoding: 211 211 148
Width: 772
GlyphClass: 2
Flags: W
LayerCount: 2
Fore
SplineSet
640.5 610.5 m 128,-1,1
 737 512 737 512 737 355.5 c 128,-1,2
 737 199 737 199 643.5 94.5 c 128,-1,3
 550 -10 550 -10 390 -10 c 128,-1,4
 230 -10 230 -10 132.5 95 c 128,-1,5
 35 200 35 200 35 356.5 c 128,-1,6
 35 513 35 513 128.5 611 c 128,-1,7
 222 709 222 709 383 709 c 128,-1,0
 544 709 544 709 640.5 610.5 c 128,-1,1
583.5 105.5 m 128,-1,9
 650 198 650 198 650 349 c 128,-1,10
 650 500 650 500 580 593 c 128,-1,11
 510 686 510 686 382.5 686 c 128,-1,12
 255 686 255 686 188.5 594 c 128,-1,13
 122 502 122 502 122 350.5 c 128,-1,14
 122 199 122 199 192 106 c 128,-1,15
 262 13 262 13 389.5 13 c 128,-1,8
 517 13 517 13 583.5 105.5 c 128,-1,9
430 856 m 2,16,17
 450 869 450 869 465.5 869 c 128,-1,18
 481 869 481 869 492.5 859.5 c 128,-1,19
 504 850 504 850 504 834 c 0,20,21
 504 801 504 801 461 788 c 2,22,-1
 278 732 l 1,23,-1
 267 757 l 1,24,-1
 430 856 l 2,16,17
EndSplineSet
EndChar

StartChar: Ocircumflex
Encoding: 212 212 149
Width: 772
GlyphClass: 2
Flags: W
LayerCount: 2
Fore
SplineSet
640.5 610.5 m 128,-1,1
 737 512 737 512 737 355.5 c 128,-1,2
 737 199 737 199 643.5 94.5 c 128,-1,3
 550 -10 550 -10 390 -10 c 128,-1,4
 230 -10 230 -10 132.5 95 c 128,-1,5
 35 200 35 200 35 356.5 c 128,-1,6
 35 513 35 513 128.5 611 c 128,-1,7
 222 709 222 709 383 709 c 128,-1,0
 544 709 544 709 640.5 610.5 c 128,-1,1
583.5 105.5 m 128,-1,9
 650 198 650 198 650 349 c 128,-1,10
 650 500 650 500 580 593 c 128,-1,11
 510 686 510 686 382.5 686 c 128,-1,12
 255 686 255 686 188.5 594 c 128,-1,13
 122 502 122 502 122 350.5 c 128,-1,14
 122 199 122 199 192 106 c 128,-1,15
 262 13 262 13 389.5 13 c 128,-1,8
 517 13 517 13 583.5 105.5 c 128,-1,9
386 883 m 128,-1,17
 401 883 401 883 412 875.5 c 128,-1,18
 423 868 423 868 444 845 c 2,19,-1
 524 754 l 1,20,-1
 504 732 l 1,21,-1
 386 809 l 1,22,-1
 268 732 l 1,23,-1
 248 754 l 1,24,-1
 328 845 l 2,25,26
 349 868 349 868 360 875.5 c 128,-1,16
 371 883 371 883 386 883 c 128,-1,17
EndSplineSet
EndChar

StartChar: Otilde
Encoding: 213 213 150
Width: 772
GlyphClass: 2
Flags: W
LayerCount: 2
Fore
SplineSet
640.5 610.5 m 128,-1,1
 737 512 737 512 737 355.5 c 128,-1,2
 737 199 737 199 643.5 94.5 c 128,-1,3
 550 -10 550 -10 390 -10 c 128,-1,4
 230 -10 230 -10 132.5 95 c 128,-1,5
 35 200 35 200 35 356.5 c 128,-1,6
 35 513 35 513 128.5 611 c 128,-1,7
 222 709 222 709 383 709 c 128,-1,0
 544 709 544 709 640.5 610.5 c 128,-1,1
583.5 105.5 m 128,-1,9
 650 198 650 198 650 349 c 128,-1,10
 650 500 650 500 580 593 c 128,-1,11
 510 686 510 686 382.5 686 c 128,-1,12
 255 686 255 686 188.5 594 c 128,-1,13
 122 502 122 502 122 350.5 c 128,-1,14
 122 199 122 199 192 106 c 128,-1,15
 262 13 262 13 389.5 13 c 128,-1,8
 517 13 517 13 583.5 105.5 c 128,-1,9
454 746 m 0,16,17
 426 746 426 746 382.5 767 c 128,-1,18
 339 788 339 788 316 788 c 0,19,20
 277 788 277 788 259 743 c 1,21,-1
 235 752 l 1,22,23
 257 855 257 855 317 855 c 0,24,25
 345 855 345 855 388.5 834 c 128,-1,26
 432 813 432 813 455 813 c 0,27,28
 494 813 494 813 512 858 c 1,29,-1
 536 849 l 1,30,31
 514 746 514 746 454 746 c 0,16,17
EndSplineSet
EndChar

StartChar: Odieresis
Encoding: 214 214 151
Width: 772
GlyphClass: 2
Flags: W
LayerCount: 2
Fore
SplineSet
640.5 610.5 m 128,-1,1
 737 512 737 512 737 355.5 c 128,-1,2
 737 199 737 199 643.5 94.5 c 128,-1,3
 550 -10 550 -10 390 -10 c 128,-1,4
 230 -10 230 -10 132.5 95 c 128,-1,5
 35 200 35 200 35 356.5 c 128,-1,6
 35 513 35 513 128.5 611 c 128,-1,7
 222 709 222 709 383 709 c 128,-1,0
 544 709 544 709 640.5 610.5 c 128,-1,1
583.5 105.5 m 128,-1,9
 650 198 650 198 650 349 c 128,-1,10
 650 500 650 500 580 593 c 128,-1,11
 510 686 510 686 382.5 686 c 128,-1,12
 255 686 255 686 188.5 594 c 128,-1,13
 122 502 122 502 122 350.5 c 128,-1,14
 122 199 122 199 192 106 c 128,-1,15
 262 13 262 13 389.5 13 c 128,-1,8
 517 13 517 13 583.5 105.5 c 128,-1,9
228 793 m 128,-1,17
 228 815 228 815 244 831 c 128,-1,18
 260 847 260 847 282 847 c 128,-1,19
 304 847 304 847 320 831 c 128,-1,20
 336 815 336 815 336 793 c 128,-1,21
 336 771 336 771 320 755 c 128,-1,22
 304 739 304 739 282 739 c 128,-1,23
 260 739 260 739 244 755 c 128,-1,16
 228 771 228 771 228 793 c 128,-1,17
435 793 m 128,-1,25
 435 815 435 815 451 831 c 128,-1,26
 467 847 467 847 489 847 c 128,-1,27
 511 847 511 847 527 831 c 128,-1,28
 543 815 543 815 543 793 c 128,-1,29
 543 771 543 771 527 755 c 128,-1,30
 511 739 511 739 489 739 c 128,-1,31
 467 739 467 739 451 755 c 128,-1,24
 435 771 435 771 435 793 c 128,-1,25
EndSplineSet
EndChar

StartChar: multiply
Encoding: 215 215 152
Width: 550
GlyphClass: 2
Flags: W
LayerCount: 2
Fore
SplineSet
146 156 m 1,0,-1
 112 190 l 1,1,-1
 241 319 l 1,2,-1
 112 448 l 1,3,-1
 146 482 l 1,4,-1
 275 353 l 1,5,-1
 404 482 l 1,6,-1
 438 448 l 1,7,-1
 309 319 l 1,8,-1
 438 190 l 1,9,-1
 404 156 l 1,10,-1
 275 285 l 1,11,-1
 146 156 l 1,0,-1
EndSplineSet
EndChar

StartChar: Oslash
Encoding: 216 216 153
Width: 772
GlyphClass: 2
Flags: W
LayerCount: 2
Fore
SplineSet
737 357 m 0,0,1
 737 199 737 199 643.5 94.5 c 128,-1,2
 550 -10 550 -10 390 -10 c 0,3,4
 346 -10 346 -10 306 -1 c 1,5,-1
 274 -110 l 1,6,-1
 225 -110 l 1,7,-1
 261 11 l 1,8,9
 155 49 155 49 95 142.5 c 128,-1,10
 35 236 35 236 35 357 c 0,11,12
 35 513 35 513 128.5 611 c 128,-1,13
 222 709 222 709 382 709 c 0,14,15
 423 709 423 709 465 701 c 1,16,-1
 497 809 l 1,17,-1
 547 809 l 1,18,-1
 511 689 l 1,19,20
 617 654 617 654 677 565.5 c 128,-1,21
 737 477 737 477 737 357 c 0,0,1
650 350 m 0,22,23
 650 459 650 459 612 540 c 128,-1,24
 574 621 574 621 502 658 c 1,25,-1
 314 23 l 1,26,27
 352 13 352 13 390 13 c 0,28,29
 517 13 517 13 583.5 105.5 c 128,-1,30
 650 198 650 198 650 350 c 0,22,23
122 350 m 0,31,32
 122 240 122 240 159.5 159 c 128,-1,33
 197 78 197 78 269 40 c 1,34,-1
 457 676 l 1,35,36
 419 686 419 686 382 686 c 0,37,38
 255 686 255 686 188.5 594 c 128,-1,39
 122 502 122 502 122 350 c 0,31,32
EndSplineSet
EndChar

StartChar: Ugrave
Encoding: 217 217 154
Width: 792
GlyphClass: 2
Flags: W
LayerCount: 2
Fore
SplineSet
662 473 m 2,0,-1
 662 277 l 2,1,2
 662 210 662 210 645.5 158 c 128,-1,3
 629 106 629 106 603 75 c 128,-1,4
 577 44 577 44 541 24 c 0,5,6
 480 -10 480 -10 401 -10 c 0,7,8
 130 -10 130 -10 130 267 c 2,9,-1
 130 474 l 2,10,11
 130 581 130 581 123.5 620 c 128,-1,12
 117 659 117 659 105 669 c 0,13,14
 82 688 82 688 32 688 c 1,15,-1
 30 700 l 1,16,-1
 299 700 l 1,17,-1
 297 688 l 1,18,19
 273 688 273 688 258.5 686 c 128,-1,20
 244 684 244 684 232 675 c 128,-1,21
 220 666 220 666 214.5 654.5 c 128,-1,22
 209 643 209 643 205 616 c 0,23,24
 200 581 200 581 200 474 c 2,25,-1
 200 262 l 2,26,27
 200 134 200 134 257.5 76.5 c 128,-1,28
 315 19 315 19 412 19 c 128,-1,29
 509 19 509 19 573 81.5 c 128,-1,30
 637 144 637 144 637 275 c 2,31,-1
 637 473 l 2,32,33
 637 573 637 573 628 617 c 128,-1,34
 619 661 619 661 598.5 674.5 c 128,-1,35
 578 688 578 688 529 688 c 1,36,-1
 527 700 l 1,37,-1
 773 700 l 1,38,-1
 771 688 l 1,39,40
 722 688 722 688 701.5 674.5 c 128,-1,41
 681 661 681 661 671.5 617 c 128,-1,42
 662 573 662 573 662 473 c 2,0,-1
288.5 859.5 m 128,-1,44
 300 869 300 869 315.5 869 c 128,-1,45
 331 869 331 869 351 856 c 2,46,-1
 514 757 l 1,47,-1
 503 732 l 1,48,-1
 320 788 l 2,49,50
 277 801 277 801 277 834 c 0,51,43
 277 850 277 850 288.5 859.5 c 128,-1,44
EndSplineSet
EndChar

StartChar: Uacute
Encoding: 218 218 155
Width: 792
GlyphClass: 2
Flags: W
LayerCount: 2
Fore
SplineSet
662 473 m 2,0,-1
 662 277 l 2,1,2
 662 210 662 210 645.5 158 c 128,-1,3
 629 106 629 106 603 75 c 128,-1,4
 577 44 577 44 541 24 c 0,5,6
 480 -10 480 -10 401 -10 c 0,7,8
 130 -10 130 -10 130 267 c 2,9,-1
 130 474 l 2,10,11
 130 581 130 581 123.5 620 c 128,-1,12
 117 659 117 659 105 669 c 0,13,14
 82 688 82 688 32 688 c 1,15,-1
 30 700 l 1,16,-1
 299 700 l 1,17,-1
 297 688 l 1,18,19
 273 688 273 688 258.5 686 c 128,-1,20
 244 684 244 684 232 675 c 128,-1,21
 220 666 220 666 214.5 654.5 c 128,-1,22
 209 643 209 643 205 616 c 0,23,24
 200 581 200 581 200 474 c 2,25,-1
 200 262 l 2,26,27
 200 134 200 134 257.5 76.5 c 128,-1,28
 315 19 315 19 412 19 c 128,-1,29
 509 19 509 19 573 81.5 c 128,-1,30
 637 144 637 144 637 275 c 2,31,-1
 637 473 l 2,32,33
 637 573 637 573 628 617 c 128,-1,34
 619 661 619 661 598.5 674.5 c 128,-1,35
 578 688 578 688 529 688 c 1,36,-1
 527 700 l 1,37,-1
 773 700 l 1,38,-1
 771 688 l 1,39,40
 722 688 722 688 701.5 674.5 c 128,-1,41
 681 661 681 661 671.5 617 c 128,-1,42
 662 573 662 573 662 473 c 2,0,-1
460 856 m 2,43,44
 480 869 480 869 495.5 869 c 128,-1,45
 511 869 511 869 522.5 859.5 c 128,-1,46
 534 850 534 850 534 834 c 0,47,48
 534 801 534 801 491 788 c 2,49,-1
 308 732 l 1,50,-1
 297 757 l 1,51,-1
 460 856 l 2,43,44
EndSplineSet
EndChar

StartChar: Ucircumflex
Encoding: 219 219 156
Width: 792
GlyphClass: 2
Flags: W
LayerCount: 2
Fore
SplineSet
662 473 m 2,0,-1
 662 277 l 2,1,2
 662 210 662 210 645.5 158 c 128,-1,3
 629 106 629 106 603 75 c 128,-1,4
 577 44 577 44 541 24 c 0,5,6
 480 -10 480 -10 401 -10 c 0,7,8
 130 -10 130 -10 130 267 c 2,9,-1
 130 474 l 2,10,11
 130 581 130 581 123.5 620 c 128,-1,12
 117 659 117 659 105 669 c 0,13,14
 82 688 82 688 32 688 c 1,15,-1
 30 700 l 1,16,-1
 299 700 l 1,17,-1
 297 688 l 1,18,19
 273 688 273 688 258.5 686 c 128,-1,20
 244 684 244 684 232 675 c 128,-1,21
 220 666 220 666 214.5 654.5 c 128,-1,22
 209 643 209 643 205 616 c 0,23,24
 200 581 200 581 200 474 c 2,25,-1
 200 262 l 2,26,27
 200 134 200 134 257.5 76.5 c 128,-1,28
 315 19 315 19 412 19 c 128,-1,29
 509 19 509 19 573 81.5 c 128,-1,30
 637 144 637 144 637 275 c 2,31,-1
 637 473 l 2,32,33
 637 573 637 573 628 617 c 128,-1,34
 619 661 619 661 598.5 674.5 c 128,-1,35
 578 688 578 688 529 688 c 1,36,-1
 527 700 l 1,37,-1
 773 700 l 1,38,-1
 771 688 l 1,39,40
 722 688 722 688 701.5 674.5 c 128,-1,41
 681 661 681 661 671.5 617 c 128,-1,42
 662 573 662 573 662 473 c 2,0,-1
416 883 m 128,-1,44
 431 883 431 883 442 875.5 c 128,-1,45
 453 868 453 868 474 845 c 2,46,-1
 554 754 l 1,47,-1
 534 732 l 1,48,-1
 416 809 l 1,49,-1
 298 732 l 1,50,-1
 278 754 l 1,51,-1
 358 845 l 2,52,53
 379 868 379 868 390 875.5 c 128,-1,43
 401 883 401 883 416 883 c 128,-1,44
EndSplineSet
EndChar

StartChar: Udieresis
Encoding: 220 220 157
Width: 792
GlyphClass: 2
Flags: W
LayerCount: 2
Fore
SplineSet
662 473 m 2,0,-1
 662 277 l 2,1,2
 662 210 662 210 645.5 158 c 128,-1,3
 629 106 629 106 603 75 c 128,-1,4
 577 44 577 44 541 24 c 0,5,6
 480 -10 480 -10 401 -10 c 0,7,8
 130 -10 130 -10 130 267 c 2,9,-1
 130 474 l 2,10,11
 130 581 130 581 123.5 620 c 128,-1,12
 117 659 117 659 105 669 c 0,13,14
 82 688 82 688 32 688 c 1,15,-1
 30 700 l 1,16,-1
 299 700 l 1,17,-1
 297 688 l 1,18,19
 273 688 273 688 258.5 686 c 128,-1,20
 244 684 244 684 232 675 c 128,-1,21
 220 666 220 666 214.5 654.5 c 128,-1,22
 209 643 209 643 205 616 c 0,23,24
 200 581 200 581 200 474 c 2,25,-1
 200 262 l 2,26,27
 200 134 200 134 257.5 76.5 c 128,-1,28
 315 19 315 19 412 19 c 128,-1,29
 509 19 509 19 573 81.5 c 128,-1,30
 637 144 637 144 637 275 c 2,31,-1
 637 473 l 2,32,33
 637 573 637 573 628 617 c 128,-1,34
 619 661 619 661 598.5 674.5 c 128,-1,35
 578 688 578 688 529 688 c 1,36,-1
 527 700 l 1,37,-1
 773 700 l 1,38,-1
 771 688 l 1,39,40
 722 688 722 688 701.5 674.5 c 128,-1,41
 681 661 681 661 671.5 617 c 128,-1,42
 662 573 662 573 662 473 c 2,0,-1
258 793 m 128,-1,44
 258 815 258 815 274 831 c 128,-1,45
 290 847 290 847 312 847 c 128,-1,46
 334 847 334 847 350 831 c 128,-1,47
 366 815 366 815 366 793 c 128,-1,48
 366 771 366 771 350 755 c 128,-1,49
 334 739 334 739 312 739 c 128,-1,50
 290 739 290 739 274 755 c 128,-1,43
 258 771 258 771 258 793 c 128,-1,44
465 793 m 128,-1,52
 465 815 465 815 481 831 c 128,-1,53
 497 847 497 847 519 847 c 128,-1,54
 541 847 541 847 557 831 c 128,-1,55
 573 815 573 815 573 793 c 128,-1,56
 573 771 573 771 557 755 c 128,-1,57
 541 739 541 739 519 739 c 128,-1,58
 497 739 497 739 481 755 c 128,-1,51
 465 771 465 771 465 793 c 128,-1,52
EndSplineSet
EndChar

StartChar: Yacute
Encoding: 221 221 158
Width: 721
GlyphClass: 2
Flags: W
LayerCount: 2
Fore
SplineSet
383 226 m 2,0,1
 383 78 383 78 400 46 c 0,2,3
 406 34 406 34 421 25 c 128,-1,4
 436 16 436 16 453 14 c 128,-1,5
 470 12 470 12 500 12 c 1,6,-1
 502 0 l 1,7,-1
 194 0 l 1,8,-1
 196 12 l 1,9,10
 226 12 226 12 243.5 13.5 c 128,-1,11
 261 15 261 15 275.5 25 c 128,-1,12
 290 35 290 35 296.5 46 c 128,-1,13
 303 57 303 57 308 85 c 0,14,15
 313 119 313 119 313 226 c 2,16,-1
 313 289 l 1,17,-1
 201 478 l 2,18,19
 154 558 154 558 131 594.5 c 128,-1,20
 108 631 108 631 84 655 c 128,-1,21
 60 679 60 679 44.5 683.5 c 128,-1,22
 29 688 29 688 -1 688 c 1,23,-1
 -3 700 l 1,24,-1
 246 700 l 1,25,-1
 244 688 l 1,26,27
 211 688 211 688 197.5 683.5 c 128,-1,28
 184 679 184 679 184 663 c 0,29,30
 184 645 184 645 196.5 622 c 128,-1,31
 209 599 209 599 213 591 c 128,-1,32
 217 583 217 583 226 567.5 c 128,-1,33
 235 552 235 552 241 542 c 0,34,35
 268 494 268 494 278 478 c 2,36,-1
 368 323 l 1,37,-1
 445 478 l 1,38,39
 514 620 514 620 514 654 c 0,40,41
 514 676 514 676 499.5 682 c 128,-1,42
 485 688 485 688 447 688 c 1,43,-1
 445 700 l 1,44,-1
 669 700 l 1,45,-1
 667 688 l 1,46,47
 620 688 620 688 588 672 c 0,48,49
 564 660 564 660 520 577 c 0,50,51
 503 545 503 545 470 478 c 2,52,-1
 383 300 l 1,53,-1
 383 226 l 2,0,1
439 856 m 2,54,55
 459 869 459 869 474.5 869 c 128,-1,56
 490 869 490 869 501.5 859.5 c 128,-1,57
 513 850 513 850 513 834 c 0,58,59
 513 801 513 801 470 788 c 2,60,-1
 287 732 l 1,61,-1
 276 757 l 1,62,-1
 439 856 l 2,54,55
EndSplineSet
EndChar

StartChar: Thorn
Encoding: 222 222 159
Width: 597
GlyphClass: 2
Flags: W
LayerCount: 2
Fore
SplineSet
514.5 210 m 128,-1,1
 452 152 452 152 366 152 c 128,-1,2
 280 152 280 152 220 180 c 1,3,4
 221 101 221 101 228.5 67.5 c 128,-1,5
 236 34 236 34 255 23 c 128,-1,6
 274 12 274 12 318 12 c 1,7,-1
 320 0 l 1,8,-1
 50 0 l 1,9,-1
 52 12 l 1,10,11
 77 12 77 12 91 14 c 128,-1,12
 105 16 105 16 117.5 25 c 128,-1,13
 130 34 130 34 135.5 45.5 c 128,-1,14
 141 57 141 57 145 84 c 0,15,16
 150 119 150 119 150 226 c 2,17,-1
 150 474 l 2,18,19
 150 578 150 578 144 619 c 128,-1,20
 138 660 138 660 126 670 c 0,21,22
 102 689 102 689 52 689 c 1,23,-1
 50 700 l 1,24,-1
 320 700 l 1,25,-1
 318 689 l 1,26,27
 261 689 261 689 242.5 667 c 128,-1,28
 224 645 224 645 221 564 c 1,29,-1
 312 564 l 2,30,31
 420 564 420 564 494 522 c 0,32,33
 533 500 533 500 555 458 c 128,-1,34
 577 416 577 416 577 357 c 0,35,0
 577 268 577 268 514.5 210 c 128,-1,1
220 204 m 1,36,37
 272 176 272 176 342.5 176 c 128,-1,38
 413 176 413 176 456 221.5 c 128,-1,39
 499 267 499 267 499 357 c 0,40,41
 499 541 499 541 285 541 c 2,42,-1
 220 541 l 1,43,-1
 220 204 l 1,36,37
EndSplineSet
EndChar

StartChar: germandbls
Encoding: 223 223 160
Width: 628
GlyphClass: 2
Flags: W
LayerCount: 2
Fore
SplineSet
379.5 468 m 128,-1,1
 359 449 359 449 359 426 c 128,-1,2
 359 403 359 403 384 381.5 c 128,-1,3
 409 360 409 360 444 342.5 c 128,-1,4
 479 325 479 325 514.5 304.5 c 128,-1,5
 550 284 550 284 575 248.5 c 128,-1,6
 600 213 600 213 600 166 c 0,7,8
 600 81 600 81 542 35.5 c 128,-1,9
 484 -10 484 -10 405 -10 c 128,-1,10
 326 -10 326 -10 260 33 c 1,11,-1
 260 131 l 1,12,-1
 270 131 l 1,13,14
 270 78 270 78 312.5 48.5 c 128,-1,15
 355 19 355 19 412 19 c 128,-1,16
 469 19 469 19 496.5 56 c 128,-1,17
 524 93 524 93 524 141 c 128,-1,18
 524 189 524 189 500 221 c 128,-1,19
 476 253 476 253 441.5 270 c 128,-1,20
 407 287 407 287 373 303.5 c 128,-1,21
 339 320 339 320 315 347 c 128,-1,22
 291 374 291 374 291 408.5 c 128,-1,23
 291 443 291 443 311.5 467 c 128,-1,24
 332 491 332 491 356 506 c 128,-1,25
 380 521 380 521 400.5 548.5 c 128,-1,26
 421 576 421 576 421 610 c 0,27,28
 421 695 421 695 310 695 c 0,29,30
 196 695 196 695 196 519 c 2,31,-1
 196 0 l 1,32,-1
 27 0 l 1,33,-1
 29 7 l 1,34,35
 53 7 53 7 67.5 9 c 128,-1,36
 82 11 82 11 94 20 c 128,-1,37
 106 29 106 29 111.5 40.5 c 128,-1,38
 117 52 117 52 121 80 c 0,39,40
 126 114 126 114 126 221 c 2,41,-1
 126 494 l 2,42,43
 126 613 126 613 179.5 674 c 128,-1,44
 233 735 233 735 328 735 c 0,45,46
 394 735 394 735 442 704 c 128,-1,47
 490 673 490 673 490 610 c 0,48,49
 490 573 490 573 469.5 544 c 128,-1,50
 449 515 449 515 424.5 501 c 128,-1,0
 400 487 400 487 379.5 468 c 128,-1,1
EndSplineSet
EndChar

StartChar: agrave
Encoding: 224 224 161
Width: 528
GlyphClass: 2
Flags: W
LayerCount: 2
Fore
SplineSet
412 323 m 2,0,-1
 412 222 l 2,1,2
 412 111 412 111 419 76.5 c 128,-1,3
 426 42 426 42 453 42 c 0,4,5
 470 42 470 42 498 56 c 1,6,-1
 503 46 l 1,7,8
 495 40 495 40 482 31.5 c 128,-1,9
 469 23 469 23 429 9 c 128,-1,10
 389 -5 389 -5 352 -5 c 1,11,12
 342 37 342 37 342 129 c 1,13,14
 320 67 320 67 284.5 28.5 c 128,-1,15
 249 -10 249 -10 186 -10 c 128,-1,16
 123 -10 123 -10 86.5 23.5 c 128,-1,17
 50 57 50 57 50 115 c 0,18,19
 50 276 50 276 342 277 c 1,20,-1
 342 313 l 2,21,22
 342 385 342 385 321 423 c 128,-1,23
 300 461 300 461 243 461 c 0,24,25
 211 461 211 461 191 445 c 128,-1,26
 171 429 171 429 164 410 c 0,27,28
 147 358 147 358 113.5 358 c 128,-1,29
 80 358 80 358 80 395.5 c 128,-1,30
 80 433 80 433 130 458 c 128,-1,31
 180 483 180 483 251 483 c 128,-1,32
 322 483 322 483 367 442.5 c 128,-1,33
 412 402 412 402 412 323 c 2,0,-1
145 46.5 m 128,-1,35
 164 21 164 21 205.5 21 c 128,-1,36
 247 21 247 21 281 61.5 c 128,-1,37
 315 102 315 102 327.5 151.5 c 128,-1,38
 340 201 340 201 342 254 c 1,39,40
 231 253 231 253 178.5 213 c 128,-1,41
 126 173 126 173 126 111 c 0,42,34
 126 72 126 72 145 46.5 c 128,-1,35
157 719 m 128,-1,44
 167 729 167 729 184.5 729 c 128,-1,45
 202 729 202 729 225 709 c 2,46,-1
 359 587 l 1,47,-1
 344 564 l 1,48,-1
 182 647 l 2,49,50
 147 666 147 666 147 694 c 0,51,43
 147 709 147 709 157 719 c 128,-1,44
EndSplineSet
EndChar

StartChar: aacute
Encoding: 225 225 162
Width: 528
GlyphClass: 2
Flags: W
LayerCount: 2
Fore
SplineSet
412 323 m 2,0,-1
 412 222 l 2,1,2
 412 111 412 111 419 76.5 c 128,-1,3
 426 42 426 42 453 42 c 0,4,5
 470 42 470 42 498 56 c 1,6,-1
 503 46 l 1,7,8
 495 40 495 40 482 31.5 c 128,-1,9
 469 23 469 23 429 9 c 128,-1,10
 389 -5 389 -5 352 -5 c 1,11,12
 342 37 342 37 342 129 c 1,13,14
 320 67 320 67 284.5 28.5 c 128,-1,15
 249 -10 249 -10 186 -10 c 128,-1,16
 123 -10 123 -10 86.5 23.5 c 128,-1,17
 50 57 50 57 50 115 c 0,18,19
 50 276 50 276 342 277 c 1,20,-1
 342 313 l 2,21,22
 342 385 342 385 321 423 c 128,-1,23
 300 461 300 461 243 461 c 0,24,25
 211 461 211 461 191 445 c 128,-1,26
 171 429 171 429 164 410 c 0,27,28
 147 358 147 358 113.5 358 c 128,-1,29
 80 358 80 358 80 395.5 c 128,-1,30
 80 433 80 433 130 458 c 128,-1,31
 180 483 180 483 251 483 c 128,-1,32
 322 483 322 483 367 442.5 c 128,-1,33
 412 402 412 402 412 323 c 2,0,-1
145 46.5 m 128,-1,35
 164 21 164 21 205.5 21 c 128,-1,36
 247 21 247 21 281 61.5 c 128,-1,37
 315 102 315 102 327.5 151.5 c 128,-1,38
 340 201 340 201 342 254 c 1,39,40
 231 253 231 253 178.5 213 c 128,-1,41
 126 173 126 173 126 111 c 0,42,34
 126 72 126 72 145 46.5 c 128,-1,35
292 709 m 2,43,44
 315 729 315 729 332.5 729 c 128,-1,45
 350 729 350 729 360 719 c 128,-1,46
 370 709 370 709 370 694 c 0,47,48
 370 666 370 666 335 647 c 2,49,-1
 173 564 l 1,50,-1
 158 587 l 1,51,-1
 292 709 l 2,43,44
EndSplineSet
EndChar

StartChar: acircumflex
Encoding: 226 226 163
Width: 528
GlyphClass: 2
Flags: W
LayerCount: 2
Fore
SplineSet
412 323 m 2,0,-1
 412 222 l 2,1,2
 412 111 412 111 419 76.5 c 128,-1,3
 426 42 426 42 453 42 c 0,4,5
 470 42 470 42 498 56 c 1,6,-1
 503 46 l 1,7,8
 495 40 495 40 482 31.5 c 128,-1,9
 469 23 469 23 429 9 c 128,-1,10
 389 -5 389 -5 352 -5 c 1,11,12
 342 37 342 37 342 129 c 1,13,14
 320 67 320 67 284.5 28.5 c 128,-1,15
 249 -10 249 -10 186 -10 c 128,-1,16
 123 -10 123 -10 86.5 23.5 c 128,-1,17
 50 57 50 57 50 115 c 0,18,19
 50 276 50 276 342 277 c 1,20,-1
 342 313 l 2,21,22
 342 385 342 385 321 423 c 128,-1,23
 300 461 300 461 243 461 c 0,24,25
 211 461 211 461 191 445 c 128,-1,26
 171 429 171 429 164 410 c 0,27,28
 147 358 147 358 113.5 358 c 128,-1,29
 80 358 80 358 80 395.5 c 128,-1,30
 80 433 80 433 130 458 c 128,-1,31
 180 483 180 483 251 483 c 128,-1,32
 322 483 322 483 367 442.5 c 128,-1,33
 412 402 412 402 412 323 c 2,0,-1
145 46.5 m 128,-1,35
 164 21 164 21 205.5 21 c 128,-1,36
 247 21 247 21 281 61.5 c 128,-1,37
 315 102 315 102 327.5 151.5 c 128,-1,38
 340 201 340 201 342 254 c 1,39,40
 231 253 231 253 178.5 213 c 128,-1,41
 126 173 126 173 126 111 c 0,42,34
 126 72 126 72 145 46.5 c 128,-1,35
249 723 m 128,-1,44
 264 723 264 723 275 715.5 c 128,-1,45
 286 708 286 708 307 685 c 2,46,-1
 387 594 l 1,47,-1
 367 572 l 1,48,-1
 249 649 l 1,49,-1
 131 572 l 1,50,-1
 111 594 l 1,51,-1
 191 685 l 2,52,53
 212 708 212 708 223 715.5 c 128,-1,43
 234 723 234 723 249 723 c 128,-1,44
EndSplineSet
EndChar

StartChar: atilde
Encoding: 227 227 164
Width: 528
GlyphClass: 2
Flags: W
LayerCount: 2
Fore
SplineSet
412 323 m 2,0,-1
 412 222 l 2,1,2
 412 111 412 111 419 76.5 c 128,-1,3
 426 42 426 42 453 42 c 0,4,5
 470 42 470 42 498 56 c 1,6,-1
 503 46 l 1,7,8
 495 40 495 40 482 31.5 c 128,-1,9
 469 23 469 23 429 9 c 128,-1,10
 389 -5 389 -5 352 -5 c 1,11,12
 342 37 342 37 342 129 c 1,13,14
 320 67 320 67 284.5 28.5 c 128,-1,15
 249 -10 249 -10 186 -10 c 128,-1,16
 123 -10 123 -10 86.5 23.5 c 128,-1,17
 50 57 50 57 50 115 c 0,18,19
 50 276 50 276 342 277 c 1,20,-1
 342 313 l 2,21,22
 342 385 342 385 321 423 c 128,-1,23
 300 461 300 461 243 461 c 0,24,25
 211 461 211 461 191 445 c 128,-1,26
 171 429 171 429 164 410 c 0,27,28
 147 358 147 358 113.5 358 c 128,-1,29
 80 358 80 358 80 395.5 c 128,-1,30
 80 433 80 433 130 458 c 128,-1,31
 180 483 180 483 251 483 c 128,-1,32
 322 483 322 483 367 442.5 c 128,-1,33
 412 402 412 402 412 323 c 2,0,-1
145 46.5 m 128,-1,35
 164 21 164 21 205.5 21 c 128,-1,36
 247 21 247 21 281 61.5 c 128,-1,37
 315 102 315 102 327.5 151.5 c 128,-1,38
 340 201 340 201 342 254 c 1,39,40
 231 253 231 253 178.5 213 c 128,-1,41
 126 173 126 173 126 111 c 0,42,34
 126 72 126 72 145 46.5 c 128,-1,35
317 586 m 0,43,44
 289 586 289 586 245.5 607 c 128,-1,45
 202 628 202 628 179 628 c 0,46,47
 140 628 140 628 122 583 c 1,48,-1
 98 592 l 1,49,50
 120 695 120 695 180 695 c 0,51,52
 208 695 208 695 251.5 674 c 128,-1,53
 295 653 295 653 318 653 c 0,54,55
 357 653 357 653 375 698 c 1,56,-1
 399 689 l 1,57,58
 377 586 377 586 317 586 c 0,43,44
EndSplineSet
EndChar

StartChar: adieresis
Encoding: 228 228 165
Width: 528
GlyphClass: 2
Flags: W
LayerCount: 2
Fore
SplineSet
412 323 m 2,0,-1
 412 222 l 2,1,2
 412 111 412 111 419 76.5 c 128,-1,3
 426 42 426 42 453 42 c 0,4,5
 470 42 470 42 498 56 c 1,6,-1
 503 46 l 1,7,8
 495 40 495 40 482 31.5 c 128,-1,9
 469 23 469 23 429 9 c 128,-1,10
 389 -5 389 -5 352 -5 c 1,11,12
 342 37 342 37 342 129 c 1,13,14
 320 67 320 67 284.5 28.5 c 128,-1,15
 249 -10 249 -10 186 -10 c 128,-1,16
 123 -10 123 -10 86.5 23.5 c 128,-1,17
 50 57 50 57 50 115 c 0,18,19
 50 276 50 276 342 277 c 1,20,-1
 342 313 l 2,21,22
 342 385 342 385 321 423 c 128,-1,23
 300 461 300 461 243 461 c 0,24,25
 211 461 211 461 191 445 c 128,-1,26
 171 429 171 429 164 410 c 0,27,28
 147 358 147 358 113.5 358 c 128,-1,29
 80 358 80 358 80 395.5 c 128,-1,30
 80 433 80 433 130 458 c 128,-1,31
 180 483 180 483 251 483 c 128,-1,32
 322 483 322 483 367 442.5 c 128,-1,33
 412 402 412 402 412 323 c 2,0,-1
145 46.5 m 128,-1,35
 164 21 164 21 205.5 21 c 128,-1,36
 247 21 247 21 281 61.5 c 128,-1,37
 315 102 315 102 327.5 151.5 c 128,-1,38
 340 201 340 201 342 254 c 1,39,40
 231 253 231 253 178.5 213 c 128,-1,41
 126 173 126 173 126 111 c 0,42,34
 126 72 126 72 145 46.5 c 128,-1,35
101 643 m 128,-1,44
 101 665 101 665 117 681 c 128,-1,45
 133 697 133 697 155 697 c 128,-1,46
 177 697 177 697 193 681 c 128,-1,47
 209 665 209 665 209 643 c 128,-1,48
 209 621 209 621 193 605 c 128,-1,49
 177 589 177 589 155 589 c 128,-1,50
 133 589 133 589 117 605 c 128,-1,43
 101 621 101 621 101 643 c 128,-1,44
308 643 m 128,-1,52
 308 665 308 665 324 681 c 128,-1,53
 340 697 340 697 362 697 c 128,-1,54
 384 697 384 697 400 681 c 128,-1,55
 416 665 416 665 416 643 c 128,-1,56
 416 621 416 621 400 605 c 128,-1,57
 384 589 384 589 362 589 c 128,-1,58
 340 589 340 589 324 605 c 128,-1,51
 308 621 308 621 308 643 c 128,-1,52
EndSplineSet
EndChar

StartChar: aring
Encoding: 229 229 166
Width: 528
GlyphClass: 2
Flags: W
LayerCount: 2
Fore
SplineSet
412 323 m 2,0,-1
 412 222 l 2,1,2
 412 111 412 111 419 76.5 c 128,-1,3
 426 42 426 42 453 42 c 0,4,5
 470 42 470 42 498 56 c 1,6,-1
 503 46 l 1,7,8
 495 40 495 40 482 31.5 c 128,-1,9
 469 23 469 23 429 9 c 128,-1,10
 389 -5 389 -5 352 -5 c 1,11,12
 342 37 342 37 342 129 c 1,13,14
 320 67 320 67 284.5 28.5 c 128,-1,15
 249 -10 249 -10 186 -10 c 128,-1,16
 123 -10 123 -10 86.5 23.5 c 128,-1,17
 50 57 50 57 50 115 c 0,18,19
 50 276 50 276 342 277 c 1,20,-1
 342 313 l 2,21,22
 342 385 342 385 321 423 c 128,-1,23
 300 461 300 461 243 461 c 0,24,25
 211 461 211 461 191 445 c 128,-1,26
 171 429 171 429 164 410 c 0,27,28
 147 358 147 358 113.5 358 c 128,-1,29
 80 358 80 358 80 395.5 c 128,-1,30
 80 433 80 433 130 458 c 128,-1,31
 180 483 180 483 251 483 c 128,-1,32
 322 483 322 483 367 442.5 c 128,-1,33
 412 402 412 402 412 323 c 2,0,-1
145 46.5 m 128,-1,35
 164 21 164 21 205.5 21 c 128,-1,36
 247 21 247 21 281 61.5 c 128,-1,37
 315 102 315 102 327.5 151.5 c 128,-1,38
 340 201 340 201 342 254 c 1,39,40
 231 253 231 253 178.5 213 c 128,-1,41
 126 173 126 173 126 111 c 0,42,34
 126 72 126 72 145 46.5 c 128,-1,35
177.5 713.5 m 128,-1,44
 205 742 205 742 249.5 742 c 128,-1,45
 294 742 294 742 321 713.5 c 128,-1,46
 348 685 348 685 348 643 c 128,-1,47
 348 601 348 601 321 572.5 c 128,-1,48
 294 544 294 544 249.5 544 c 128,-1,49
 205 544 205 544 177.5 572.5 c 128,-1,50
 150 601 150 601 150 643 c 128,-1,43
 150 685 150 685 177.5 713.5 c 128,-1,44
249 582 m 128,-1,52
 270 582 270 582 281.5 599 c 128,-1,53
 293 616 293 616 293 642 c 128,-1,54
 293 668 293 668 281 685.5 c 128,-1,55
 269 703 269 703 248.5 703 c 128,-1,56
 228 703 228 703 216 685.5 c 128,-1,57
 204 668 204 668 204 642 c 128,-1,58
 204 616 204 616 216 599 c 128,-1,51
 228 582 228 582 249 582 c 128,-1,52
EndSplineSet
EndChar

StartChar: ae
Encoding: 230 230 167
Width: 795
GlyphClass: 2
Flags: W
LayerCount: 2
Fore
SplineSet
745 253 m 1,0,-1
 417 253 l 1,1,-1
 417 236 l 2,2,3
 417 130 417 130 462 74.5 c 128,-1,4
 507 19 507 19 574 19 c 0,5,6
 674 19 674 19 718 99 c 1,7,-1
 733 91 l 1,8,9
 681 -10 681 -10 559 -10 c 0,10,11
 486 -10 486 -10 429.5 34.5 c 128,-1,12
 373 79 373 79 354 161 c 1,13,14
 317 -10 317 -10 183 -10 c 0,15,16
 123 -10 123 -10 86.5 23.5 c 128,-1,17
 50 57 50 57 50 115 c 0,18,19
 50 279 50 279 342 282 c 1,20,-1
 342 313 l 2,21,22
 342 385 342 385 321 423 c 128,-1,23
 300 461 300 461 243 461 c 0,24,25
 211 461 211 461 191 445 c 128,-1,26
 171 429 171 429 164 410 c 0,27,28
 147 358 147 358 113.5 358 c 128,-1,29
 80 358 80 358 80 395.5 c 128,-1,30
 80 433 80 433 130 458 c 128,-1,31
 180 483 180 483 247 483 c 0,32,33
 355 483 355 483 395 405 c 1,34,35
 450 483 450 483 546.5 483 c 128,-1,36
 643 483 643 483 694 418.5 c 128,-1,37
 745 354 745 354 745 253 c 1,0,-1
145 46.5 m 128,-1,39
 164 21 164 21 200 21 c 128,-1,40
 236 21 236 21 264 44 c 128,-1,41
 292 67 292 67 308 103 c 0,42,43
 340 175 340 175 342 253 c 1,44,45
 231 252 231 252 178.5 212.5 c 128,-1,46
 126 173 126 173 126 111 c 0,47,38
 126 72 126 72 145 46.5 c 128,-1,39
551 463 m 0,48,49
 493 463 493 463 459.5 413.5 c 128,-1,50
 426 364 426 364 419 282 c 1,51,-1
 668 282 l 1,52,53
 661 463 661 463 551 463 c 0,48,49
EndSplineSet
EndChar

StartChar: ccedilla
Encoding: 231 231 168
Width: 450
GlyphClass: 2
Flags: W
LayerCount: 2
Fore
SplineSet
254 -10 m 1,0,-1
 241 -9 l 1,1,-1
 222 -65 l 1,2,3
 273 -65 273 -65 305.5 -88.5 c 128,-1,4
 338 -112 338 -112 338 -158.5 c 128,-1,5
 338 -205 338 -205 303 -231.5 c 128,-1,6
 268 -258 268 -258 216.5 -258 c 128,-1,7
 165 -258 165 -258 132 -219 c 1,8,-1
 150 -199 l 1,9,10
 175 -224 175 -224 208.5 -224 c 128,-1,11
 242 -224 242 -224 260 -205.5 c 128,-1,12
 278 -187 278 -187 278 -161 c 0,13,14
 278 -94 278 -94 183 -83 c 1,15,-1
 211 -5 l 1,16,17
 137 9 137 9 88.5 71.5 c 128,-1,18
 40 134 40 134 40 238.5 c 128,-1,19
 40 343 40 343 97.5 413 c 128,-1,20
 155 483 155 483 261 483 c 0,21,22
 327 483 327 483 376 461.5 c 128,-1,23
 425 440 425 440 425 402 c 0,24,25
 425 368 425 368 388 368 c 0,26,27
 369 368 369 368 356.5 383 c 128,-1,28
 344 398 344 398 337.5 415.5 c 128,-1,29
 331 433 331 433 312 448 c 128,-1,30
 293 463 293 463 262 463 c 0,31,32
 190 463 190 463 153 403 c 128,-1,33
 116 343 116 343 116 238.5 c 128,-1,34
 116 134 116 134 160 76.5 c 128,-1,35
 204 19 204 19 269 19 c 0,36,37
 368 19 368 19 410 99 c 1,38,-1
 425 91 l 1,39,40
 374 -10 374 -10 254 -10 c 1,0,-1
EndSplineSet
EndChar

StartChar: egrave
Encoding: 232 232 169
Width: 494
GlyphClass: 2
Flags: W
LayerCount: 2
Fore
SplineSet
444 253 m 1,0,-1
 116 253 l 1,1,-1
 116 236 l 2,2,3
 116 130 116 130 161 74.5 c 128,-1,4
 206 19 206 19 273 19 c 0,5,6
 373 19 373 19 417 99 c 1,7,-1
 432 91 l 1,8,9
 380 -10 380 -10 258 -10 c 0,10,11
 168 -10 168 -10 104 55 c 128,-1,12
 40 120 40 120 40 230.5 c 128,-1,13
 40 341 40 341 96.5 412 c 128,-1,14
 153 483 153 483 247.5 483 c 128,-1,15
 342 483 342 483 393 418.5 c 128,-1,16
 444 354 444 354 444 253 c 1,0,-1
250 463 m 0,17,18
 192 463 192 463 158.5 413.5 c 128,-1,19
 125 364 125 364 118 282 c 1,20,-1
 367 282 l 1,21,22
 360 463 360 463 250 463 c 0,17,18
155 719 m 128,-1,24
 165 729 165 729 182.5 729 c 128,-1,25
 200 729 200 729 223 709 c 2,26,-1
 357 587 l 1,27,-1
 342 564 l 1,28,-1
 180 647 l 2,29,30
 145 666 145 666 145 694 c 0,31,23
 145 709 145 709 155 719 c 128,-1,24
EndSplineSet
EndChar

StartChar: eacute
Encoding: 233 233 170
Width: 494
GlyphClass: 2
Flags: W
LayerCount: 2
Fore
SplineSet
444 253 m 1,0,-1
 116 253 l 1,1,-1
 116 236 l 2,2,3
 116 130 116 130 161 74.5 c 128,-1,4
 206 19 206 19 273 19 c 0,5,6
 373 19 373 19 417 99 c 1,7,-1
 432 91 l 1,8,9
 380 -10 380 -10 258 -10 c 0,10,11
 168 -10 168 -10 104 55 c 128,-1,12
 40 120 40 120 40 230.5 c 128,-1,13
 40 341 40 341 96.5 412 c 128,-1,14
 153 483 153 483 247.5 483 c 128,-1,15
 342 483 342 483 393 418.5 c 128,-1,16
 444 354 444 354 444 253 c 1,0,-1
250 463 m 0,17,18
 192 463 192 463 158.5 413.5 c 128,-1,19
 125 364 125 364 118 282 c 1,20,-1
 367 282 l 1,21,22
 360 463 360 463 250 463 c 0,17,18
280 709 m 2,23,24
 303 729 303 729 320.5 729 c 128,-1,25
 338 729 338 729 348 719 c 128,-1,26
 358 709 358 709 358 694 c 0,27,28
 358 666 358 666 323 647 c 2,29,-1
 161 564 l 1,30,-1
 146 587 l 1,31,-1
 280 709 l 2,23,24
EndSplineSet
EndChar

StartChar: ecircumflex
Encoding: 234 234 171
Width: 494
GlyphClass: 2
Flags: W
LayerCount: 2
Fore
SplineSet
444 253 m 1,0,-1
 116 253 l 1,1,-1
 116 236 l 2,2,3
 116 130 116 130 161 74.5 c 128,-1,4
 206 19 206 19 273 19 c 0,5,6
 373 19 373 19 417 99 c 1,7,-1
 432 91 l 1,8,9
 380 -10 380 -10 258 -10 c 0,10,11
 168 -10 168 -10 104 55 c 128,-1,12
 40 120 40 120 40 230.5 c 128,-1,13
 40 341 40 341 96.5 412 c 128,-1,14
 153 483 153 483 247.5 483 c 128,-1,15
 342 483 342 483 393 418.5 c 128,-1,16
 444 354 444 354 444 253 c 1,0,-1
250 463 m 0,17,18
 192 463 192 463 158.5 413.5 c 128,-1,19
 125 364 125 364 118 282 c 1,20,-1
 367 282 l 1,21,22
 360 463 360 463 250 463 c 0,17,18
247 723 m 128,-1,24
 262 723 262 723 273 715.5 c 128,-1,25
 284 708 284 708 305 685 c 2,26,-1
 385 594 l 1,27,-1
 365 572 l 1,28,-1
 247 649 l 1,29,-1
 129 572 l 1,30,-1
 109 594 l 1,31,-1
 189 685 l 2,32,33
 210 708 210 708 221 715.5 c 128,-1,23
 232 723 232 723 247 723 c 128,-1,24
EndSplineSet
EndChar

StartChar: edieresis
Encoding: 235 235 172
Width: 494
GlyphClass: 2
Flags: W
LayerCount: 2
Fore
SplineSet
444 253 m 1,0,-1
 116 253 l 1,1,-1
 116 236 l 2,2,3
 116 130 116 130 161 74.5 c 128,-1,4
 206 19 206 19 273 19 c 0,5,6
 373 19 373 19 417 99 c 1,7,-1
 432 91 l 1,8,9
 380 -10 380 -10 258 -10 c 0,10,11
 168 -10 168 -10 104 55 c 128,-1,12
 40 120 40 120 40 230.5 c 128,-1,13
 40 341 40 341 96.5 412 c 128,-1,14
 153 483 153 483 247.5 483 c 128,-1,15
 342 483 342 483 393 418.5 c 128,-1,16
 444 354 444 354 444 253 c 1,0,-1
250 463 m 0,17,18
 192 463 192 463 158.5 413.5 c 128,-1,19
 125 364 125 364 118 282 c 1,20,-1
 367 282 l 1,21,22
 360 463 360 463 250 463 c 0,17,18
89 643 m 128,-1,24
 89 665 89 665 105 681 c 128,-1,25
 121 697 121 697 143 697 c 128,-1,26
 165 697 165 697 181 681 c 128,-1,27
 197 665 197 665 197 643 c 128,-1,28
 197 621 197 621 181 605 c 128,-1,29
 165 589 165 589 143 589 c 128,-1,30
 121 589 121 589 105 605 c 128,-1,23
 89 621 89 621 89 643 c 128,-1,24
296 643 m 128,-1,32
 296 665 296 665 312 681 c 128,-1,33
 328 697 328 697 350 697 c 128,-1,34
 372 697 372 697 388 681 c 128,-1,35
 404 665 404 665 404 643 c 128,-1,36
 404 621 404 621 388 605 c 128,-1,37
 372 589 372 589 350 589 c 128,-1,38
 328 589 328 589 312 605 c 128,-1,31
 296 621 296 621 296 643 c 128,-1,32
EndSplineSet
EndChar

StartChar: igrave
Encoding: 236 236 173
Width: 317
GlyphClass: 2
Flags: W
LayerCount: 2
Fore
SplineSet
201 473 m 1,0,-1
 201 165 l 2,1,2
 201 60 201 60 213.5 36 c 128,-1,3
 226 12 226 12 285 12 c 1,4,-1
 287 0 l 1,5,-1
 43 0 l 1,6,-1
 45 12 l 1,7,8
 105 12 105 12 118 36.5 c 128,-1,9
 131 61 131 61 131 167 c 2,10,-1
 131 237 l 2,11,12
 131 387 131 387 116 418 c 0,13,14
 111 429 111 429 98.5 438 c 128,-1,15
 86 447 86 447 71.5 449 c 128,-1,16
 57 451 57 451 32 451 c 1,17,-1
 30 462 l 1,18,19
 117 473 117 473 201 473 c 1,0,-1
49 719 m 128,-1,21
 59 729 59 729 76.5 729 c 128,-1,22
 94 729 94 729 117 709 c 2,23,-1
 251 587 l 1,24,-1
 236 564 l 1,25,-1
 74 647 l 2,26,27
 39 666 39 666 39 694 c 0,28,20
 39 709 39 709 49 719 c 128,-1,21
EndSplineSet
EndChar

StartChar: iacute
Encoding: 237 237 174
Width: 317
GlyphClass: 2
Flags: W
LayerCount: 2
Fore
SplineSet
201 473 m 1,0,-1
 201 165 l 2,1,2
 201 60 201 60 213.5 36 c 128,-1,3
 226 12 226 12 285 12 c 1,4,-1
 287 0 l 1,5,-1
 43 0 l 1,6,-1
 45 12 l 1,7,8
 105 12 105 12 118 36.5 c 128,-1,9
 131 61 131 61 131 167 c 2,10,-1
 131 237 l 2,11,12
 131 387 131 387 116 418 c 0,13,14
 111 429 111 429 98.5 438 c 128,-1,15
 86 447 86 447 71.5 449 c 128,-1,16
 57 451 57 451 32 451 c 1,17,-1
 30 462 l 1,18,19
 117 473 117 473 201 473 c 1,0,-1
182 709 m 2,20,21
 205 729 205 729 222.5 729 c 128,-1,22
 240 729 240 729 250 719 c 128,-1,23
 260 709 260 709 260 694 c 0,24,25
 260 666 260 666 225 647 c 2,26,-1
 63 564 l 1,27,-1
 48 587 l 1,28,-1
 182 709 l 2,20,21
EndSplineSet
EndChar

StartChar: icircumflex
Encoding: 238 238 175
Width: 317
GlyphClass: 2
Flags: W
LayerCount: 2
Fore
SplineSet
201 473 m 1,0,-1
 201 165 l 2,1,2
 201 60 201 60 213.5 36 c 128,-1,3
 226 12 226 12 285 12 c 1,4,-1
 287 0 l 1,5,-1
 43 0 l 1,6,-1
 45 12 l 1,7,8
 105 12 105 12 118 36.5 c 128,-1,9
 131 61 131 61 131 167 c 2,10,-1
 131 237 l 2,11,12
 131 387 131 387 116 418 c 0,13,14
 111 429 111 429 98.5 438 c 128,-1,15
 86 447 86 447 71.5 449 c 128,-1,16
 57 451 57 451 32 451 c 1,17,-1
 30 462 l 1,18,19
 117 473 117 473 201 473 c 1,0,-1
144 723 m 128,-1,21
 159 723 159 723 170 715.5 c 128,-1,22
 181 708 181 708 202 685 c 2,23,-1
 282 594 l 1,24,-1
 262 572 l 1,25,-1
 144 649 l 1,26,-1
 26 572 l 1,27,-1
 6 594 l 1,28,-1
 86 685 l 2,29,30
 107 708 107 708 118 715.5 c 128,-1,20
 129 723 129 723 144 723 c 128,-1,21
EndSplineSet
EndChar

StartChar: idieresis
Encoding: 239 239 176
Width: 317
GlyphClass: 2
Flags: W
LayerCount: 2
Fore
SplineSet
201 473 m 1,0,-1
 201 165 l 2,1,2
 201 60 201 60 213.5 36 c 128,-1,3
 226 12 226 12 285 12 c 1,4,-1
 287 0 l 1,5,-1
 43 0 l 1,6,-1
 45 12 l 1,7,8
 105 12 105 12 118 36.5 c 128,-1,9
 131 61 131 61 131 167 c 2,10,-1
 131 237 l 2,11,12
 131 387 131 387 116 418 c 0,13,14
 111 429 111 429 98.5 438 c 128,-1,15
 86 447 86 447 71.5 449 c 128,-1,16
 57 451 57 451 32 451 c 1,17,-1
 30 462 l 1,18,19
 117 473 117 473 201 473 c 1,0,-1
-14 643 m 128,-1,21
 -14 665 -14 665 2 681 c 128,-1,22
 18 697 18 697 40 697 c 128,-1,23
 62 697 62 697 78 681 c 128,-1,24
 94 665 94 665 94 643 c 128,-1,25
 94 621 94 621 78 605 c 128,-1,26
 62 589 62 589 40 589 c 128,-1,27
 18 589 18 589 2 605 c 128,-1,20
 -14 621 -14 621 -14 643 c 128,-1,21
193 643 m 128,-1,29
 193 665 193 665 209 681 c 128,-1,30
 225 697 225 697 247 697 c 128,-1,31
 269 697 269 697 285 681 c 128,-1,32
 301 665 301 665 301 643 c 128,-1,33
 301 621 301 621 285 605 c 128,-1,34
 269 589 269 589 247 589 c 128,-1,35
 225 589 225 589 209 605 c 128,-1,28
 193 621 193 621 193 643 c 128,-1,29
EndSplineSet
EndChar

StartChar: eth
Encoding: 240 240 177
Width: 540
GlyphClass: 2
Flags: W
LayerCount: 2
Fore
SplineSet
221 710 m 0,0,1
 180 710 180 710 152.5 695.5 c 128,-1,2
 125 681 125 681 94 648 c 1,3,-1
 74 667 l 1,4,5
 108 710 108 710 145 727.5 c 128,-1,6
 182 745 182 745 230 745 c 0,7,8
 329 745 329 745 397 649 c 1,9,-1
 514 709 l 1,10,-1
 531 676 l 1,11,-1
 417 618 l 1,12,13
 492 487 492 487 492 279 c 0,14,15
 492 145 492 145 433 67.5 c 128,-1,16
 374 -10 374 -10 269.5 -10 c 128,-1,17
 165 -10 165 -10 102.5 61 c 128,-1,18
 40 132 40 132 40 236 c 128,-1,19
 40 340 40 340 99.5 406.5 c 128,-1,20
 159 473 159 473 255 473 c 128,-1,21
 351 473 351 473 412 420 c 1,22,23
 400 527 400 527 369 593 c 1,24,-1
 249 532 l 1,25,-1
 232 565 l 1,26,-1
 351 626 l 1,27,28
 299 710 299 710 221 710 c 0,0,1
268 10 m 128,-1,30
 341 10 341 10 379.5 79.5 c 128,-1,31
 418 149 418 149 418 249.5 c 128,-1,32
 418 350 418 350 370.5 401.5 c 128,-1,33
 323 453 323 453 256.5 453 c 128,-1,34
 190 453 190 453 153 394 c 128,-1,35
 116 335 116 335 116 236.5 c 128,-1,36
 116 138 116 138 155.5 74 c 128,-1,29
 195 10 195 10 268 10 c 128,-1,30
EndSplineSet
EndChar

StartChar: ntilde
Encoding: 241 241 178
Width: 630
GlyphClass: 2
Flags: W
LayerCount: 2
Fore
SplineSet
201 483 m 1,0,-1
 201 304 l 1,1,2
 210 376 210 376 251 429.5 c 128,-1,3
 292 483 292 483 360 483 c 0,4,5
 513 483 513 483 513 323 c 2,6,-1
 513 165 l 2,7,8
 513 61 513 61 526.5 36.5 c 128,-1,9
 540 12 540 12 598 12 c 1,10,-1
 600 0 l 1,11,-1
 357 0 l 1,12,-1
 359 12 l 1,13,14
 419 12 419 12 431 37 c 128,-1,15
 443 62 443 62 443 174 c 2,16,-1
 443 313 l 2,17,18
 443 382 443 382 421.5 417 c 128,-1,19
 400 452 400 452 353.5 452 c 128,-1,20
 307 452 307 452 276 420.5 c 128,-1,21
 245 389 245 389 230 341 c 0,22,23
 201 248 201 248 201 154 c 128,-1,24
 201 60 201 60 213.5 36 c 128,-1,25
 226 12 226 12 285 12 c 1,26,-1
 287 0 l 1,27,-1
 43 0 l 1,28,-1
 45 12 l 1,29,30
 105 12 105 12 118 36.5 c 128,-1,31
 131 61 131 61 131 167 c 2,32,-1
 131 247 l 2,33,34
 131 397 131 397 116 428 c 0,35,36
 111 439 111 439 98.5 448 c 128,-1,37
 86 457 86 457 71.5 459 c 128,-1,38
 57 461 57 461 32 461 c 1,39,-1
 30 472 l 1,40,41
 117 483 117 483 201 483 c 1,0,-1
403 586 m 0,42,43
 375 586 375 586 331.5 607 c 128,-1,44
 288 628 288 628 265 628 c 0,45,46
 226 628 226 628 208 583 c 1,47,-1
 184 592 l 1,48,49
 206 695 206 695 266 695 c 0,50,51
 294 695 294 695 337.5 674 c 128,-1,52
 381 653 381 653 404 653 c 0,53,54
 443 653 443 653 461 698 c 1,55,-1
 485 689 l 1,56,57
 463 586 463 586 403 586 c 0,42,43
EndSplineSet
EndChar

StartChar: ograve
Encoding: 242 242 179
Width: 532
GlyphClass: 2
Flags: W
LayerCount: 2
Fore
SplineSet
100 412 m 128,-1,1
 160 483 160 483 263 483 c 128,-1,2
 366 483 366 483 429 412 c 128,-1,3
 492 341 492 341 492 236 c 128,-1,4
 492 131 492 131 431.5 60.5 c 128,-1,5
 371 -10 371 -10 268 -10 c 128,-1,6
 165 -10 165 -10 102.5 61 c 128,-1,7
 40 132 40 132 40 236.5 c 128,-1,0
 40 341 40 341 100 412 c 128,-1,1
268 10 m 128,-1,9
 341 10 341 10 378.5 73 c 128,-1,10
 416 136 416 136 416 235.5 c 128,-1,11
 416 335 416 335 376 399 c 128,-1,12
 336 463 336 463 263.5 463 c 128,-1,13
 191 463 191 463 153.5 399.5 c 128,-1,14
 116 336 116 336 116 237 c 128,-1,15
 116 138 116 138 155.5 74 c 128,-1,8
 195 10 195 10 268 10 c 128,-1,9
174 719 m 128,-1,17
 184 729 184 729 201.5 729 c 128,-1,18
 219 729 219 729 242 709 c 2,19,-1
 376 587 l 1,20,-1
 361 564 l 1,21,-1
 199 647 l 2,22,23
 164 666 164 666 164 694 c 0,24,16
 164 709 164 709 174 719 c 128,-1,17
EndSplineSet
EndChar

StartChar: oacute
Encoding: 243 243 180
Width: 532
GlyphClass: 2
Flags: W
LayerCount: 2
Fore
SplineSet
100 412 m 128,-1,1
 160 483 160 483 263 483 c 128,-1,2
 366 483 366 483 429 412 c 128,-1,3
 492 341 492 341 492 236 c 128,-1,4
 492 131 492 131 431.5 60.5 c 128,-1,5
 371 -10 371 -10 268 -10 c 128,-1,6
 165 -10 165 -10 102.5 61 c 128,-1,7
 40 132 40 132 40 236.5 c 128,-1,0
 40 341 40 341 100 412 c 128,-1,1
268 10 m 128,-1,9
 341 10 341 10 378.5 73 c 128,-1,10
 416 136 416 136 416 235.5 c 128,-1,11
 416 335 416 335 376 399 c 128,-1,12
 336 463 336 463 263.5 463 c 128,-1,13
 191 463 191 463 153.5 399.5 c 128,-1,14
 116 336 116 336 116 237 c 128,-1,15
 116 138 116 138 155.5 74 c 128,-1,8
 195 10 195 10 268 10 c 128,-1,9
289 709 m 2,16,17
 312 729 312 729 329.5 729 c 128,-1,18
 347 729 347 729 357 719 c 128,-1,19
 367 709 367 709 367 694 c 0,20,21
 367 666 367 666 332 647 c 2,22,-1
 170 564 l 1,23,-1
 155 587 l 1,24,-1
 289 709 l 2,16,17
EndSplineSet
EndChar

StartChar: ocircumflex
Encoding: 244 244 181
Width: 532
GlyphClass: 2
Flags: W
LayerCount: 2
Fore
SplineSet
100 412 m 128,-1,1
 160 483 160 483 263 483 c 128,-1,2
 366 483 366 483 429 412 c 128,-1,3
 492 341 492 341 492 236 c 128,-1,4
 492 131 492 131 431.5 60.5 c 128,-1,5
 371 -10 371 -10 268 -10 c 128,-1,6
 165 -10 165 -10 102.5 61 c 128,-1,7
 40 132 40 132 40 236.5 c 128,-1,0
 40 341 40 341 100 412 c 128,-1,1
268 10 m 128,-1,9
 341 10 341 10 378.5 73 c 128,-1,10
 416 136 416 136 416 235.5 c 128,-1,11
 416 335 416 335 376 399 c 128,-1,12
 336 463 336 463 263.5 463 c 128,-1,13
 191 463 191 463 153.5 399.5 c 128,-1,14
 116 336 116 336 116 237 c 128,-1,15
 116 138 116 138 155.5 74 c 128,-1,8
 195 10 195 10 268 10 c 128,-1,9
266 723 m 128,-1,17
 281 723 281 723 292 715.5 c 128,-1,18
 303 708 303 708 324 685 c 2,19,-1
 404 594 l 1,20,-1
 384 572 l 1,21,-1
 266 649 l 1,22,-1
 148 572 l 1,23,-1
 128 594 l 1,24,-1
 208 685 l 2,25,26
 229 708 229 708 240 715.5 c 128,-1,16
 251 723 251 723 266 723 c 128,-1,17
EndSplineSet
EndChar

StartChar: otilde
Encoding: 245 245 182
Width: 532
GlyphClass: 2
Flags: W
LayerCount: 2
Fore
SplineSet
100 412 m 128,-1,1
 160 483 160 483 263 483 c 128,-1,2
 366 483 366 483 429 412 c 128,-1,3
 492 341 492 341 492 236 c 128,-1,4
 492 131 492 131 431.5 60.5 c 128,-1,5
 371 -10 371 -10 268 -10 c 128,-1,6
 165 -10 165 -10 102.5 61 c 128,-1,7
 40 132 40 132 40 236.5 c 128,-1,0
 40 341 40 341 100 412 c 128,-1,1
268 10 m 128,-1,9
 341 10 341 10 378.5 73 c 128,-1,10
 416 136 416 136 416 235.5 c 128,-1,11
 416 335 416 335 376 399 c 128,-1,12
 336 463 336 463 263.5 463 c 128,-1,13
 191 463 191 463 153.5 399.5 c 128,-1,14
 116 336 116 336 116 237 c 128,-1,15
 116 138 116 138 155.5 74 c 128,-1,8
 195 10 195 10 268 10 c 128,-1,9
334 586 m 0,16,17
 306 586 306 586 262.5 607 c 128,-1,18
 219 628 219 628 196 628 c 0,19,20
 157 628 157 628 139 583 c 1,21,-1
 115 592 l 1,22,23
 137 695 137 695 197 695 c 0,24,25
 225 695 225 695 268.5 674 c 128,-1,26
 312 653 312 653 335 653 c 0,27,28
 374 653 374 653 392 698 c 1,29,-1
 416 689 l 1,30,31
 394 586 394 586 334 586 c 0,16,17
EndSplineSet
EndChar

StartChar: odieresis
Encoding: 246 246 183
Width: 532
GlyphClass: 2
Flags: W
LayerCount: 2
Fore
SplineSet
100 412 m 128,-1,1
 160 483 160 483 263 483 c 128,-1,2
 366 483 366 483 429 412 c 128,-1,3
 492 341 492 341 492 236 c 128,-1,4
 492 131 492 131 431.5 60.5 c 128,-1,5
 371 -10 371 -10 268 -10 c 128,-1,6
 165 -10 165 -10 102.5 61 c 128,-1,7
 40 132 40 132 40 236.5 c 128,-1,0
 40 341 40 341 100 412 c 128,-1,1
268 10 m 128,-1,9
 341 10 341 10 378.5 73 c 128,-1,10
 416 136 416 136 416 235.5 c 128,-1,11
 416 335 416 335 376 399 c 128,-1,12
 336 463 336 463 263.5 463 c 128,-1,13
 191 463 191 463 153.5 399.5 c 128,-1,14
 116 336 116 336 116 237 c 128,-1,15
 116 138 116 138 155.5 74 c 128,-1,8
 195 10 195 10 268 10 c 128,-1,9
108 643 m 128,-1,17
 108 665 108 665 124 681 c 128,-1,18
 140 697 140 697 162 697 c 128,-1,19
 184 697 184 697 200 681 c 128,-1,20
 216 665 216 665 216 643 c 128,-1,21
 216 621 216 621 200 605 c 128,-1,22
 184 589 184 589 162 589 c 128,-1,23
 140 589 140 589 124 605 c 128,-1,16
 108 621 108 621 108 643 c 128,-1,17
315 643 m 128,-1,25
 315 665 315 665 331 681 c 128,-1,26
 347 697 347 697 369 697 c 128,-1,27
 391 697 391 697 407 681 c 128,-1,28
 423 665 423 665 423 643 c 128,-1,29
 423 621 423 621 407 605 c 128,-1,30
 391 589 391 589 369 589 c 128,-1,31
 347 589 347 589 331 605 c 128,-1,24
 315 621 315 621 315 643 c 128,-1,25
EndSplineSet
EndChar

StartChar: divide
Encoding: 247 247 184
Width: 550
GlyphClass: 2
Flags: W
LayerCount: 2
Fore
SplineSet
98 295 m 1,0,-1
 98 343 l 1,1,-1
 452 343 l 1,2,-1
 452 295 l 1,3,-1
 98 295 l 1,0,-1
238.5 179.5 m 128,-1,5
 254 195 254 195 276 195 c 128,-1,6
 298 195 298 195 313 179.5 c 128,-1,7
 328 164 328 164 328 141.5 c 128,-1,8
 328 119 328 119 312.5 104 c 128,-1,9
 297 89 297 89 275.5 89 c 128,-1,10
 254 89 254 89 238.5 104 c 128,-1,11
 223 119 223 119 223 141.5 c 128,-1,4
 223 164 223 164 238.5 179.5 c 128,-1,5
238.5 533.5 m 128,-1,13
 254 549 254 549 276 549 c 128,-1,14
 298 549 298 549 313 533.5 c 128,-1,15
 328 518 328 518 328 495.5 c 128,-1,16
 328 473 328 473 312.5 458 c 128,-1,17
 297 443 297 443 275.5 443 c 128,-1,18
 254 443 254 443 238.5 458 c 128,-1,19
 223 473 223 473 223 495.5 c 128,-1,12
 223 518 223 518 238.5 533.5 c 128,-1,13
EndSplineSet
EndChar

